<mxfile host="app.diagrams.net" agent="Mozilla/5.0 (Windows NT 10.0; Win64; x64; rv:131.0) Gecko/20100101 Firefox/131.0" version="24.8.3">
  <diagram name="Page-1" id="NuKH9qWMKU3T047h-PP1">
    <mxGraphModel dx="1793" dy="933" grid="0" gridSize="11.811" guides="1" tooltips="1" connect="1" arrows="1" fold="1" page="1" pageScale="1" pageWidth="1600" pageHeight="1200" background="none" math="0" shadow="0">
      <root>
        <mxCell id="0" />
        <mxCell id="1" parent="0" />
        <mxCell id="SjB44mdSJOXD2yQ44_Wg-14" value="AWS Cloud" style="points=[[0,0],[0.25,0],[0.5,0],[0.75,0],[1,0],[1,0.25],[1,0.5],[1,0.75],[1,1],[0.75,1],[0.5,1],[0.25,1],[0,1],[0,0.75],[0,0.5],[0,0.25]];outlineConnect=0;gradientColor=none;html=1;whiteSpace=wrap;fontSize=12;fontStyle=0;container=0;pointerEvents=0;collapsible=0;recursiveResize=0;shape=mxgraph.aws4.group;grIcon=mxgraph.aws4.group_aws_cloud_alt;strokeColor=#232F3E;fillColor=none;verticalAlign=top;align=left;spacingLeft=30;fontColor=#232F3E;dashed=0;" parent="1" vertex="1">
          <mxGeometry x="470" y="255" width="1023.62" height="826.77" as="geometry" />
        </mxCell>
        <mxCell id="IqXkSeY8LU8EEEE8MS7V-86" value="" style="edgeStyle=orthogonalEdgeStyle;rounded=0;orthogonalLoop=1;jettySize=auto;html=1;" edge="1" parent="1" source="SjB44mdSJOXD2yQ44_Wg-12" target="IqXkSeY8LU8EEEE8MS7V-81">
          <mxGeometry relative="1" as="geometry" />
        </mxCell>
        <mxCell id="SjB44mdSJOXD2yQ44_Wg-12" value="" style="sketch=0;outlineConnect=0;fontColor=#232F3E;gradientColor=none;fillColor=#232F3D;strokeColor=none;dashed=0;verticalLabelPosition=bottom;verticalAlign=top;align=center;html=1;fontSize=12;fontStyle=0;aspect=fixed;pointerEvents=1;shape=mxgraph.aws4.users;" parent="1" vertex="1">
          <mxGeometry x="98" y="935.99" width="46" height="46" as="geometry" />
        </mxCell>
        <mxCell id="IqXkSeY8LU8EEEE8MS7V-79" value="" style="edgeStyle=orthogonalEdgeStyle;rounded=0;orthogonalLoop=1;jettySize=auto;html=1;flowAnimation=1;endArrow=blockThin;endFill=0;strokeColor=#4D4D4D;exitX=1;exitY=0;exitDx=0;exitDy=0;" edge="1" parent="1" source="IqXkSeY8LU8EEEE8MS7V-81" target="SjB44mdSJOXD2yQ44_Wg-29">
          <mxGeometry relative="1" as="geometry">
            <mxPoint x="345" y="717.3800000000001" as="sourcePoint" />
            <mxPoint x="485" y="729" as="targetPoint" />
            <Array as="points">
              <mxPoint x="371" y="717" />
              <mxPoint x="371" y="717" />
            </Array>
          </mxGeometry>
        </mxCell>
        <mxCell id="SjB44mdSJOXD2yQ44_Wg-20" value="eu-north-1" style="sketch=0;outlineConnect=0;gradientColor=none;html=1;whiteSpace=wrap;fontSize=12;fontStyle=0;shape=mxgraph.aws4.group;grIcon=mxgraph.aws4.group_region;strokeColor=#B6BABF;fillColor=none;verticalAlign=top;align=left;spacingLeft=30;fontColor=#B6BABF;dashed=1;" parent="1" vertex="1">
          <mxGeometry x="589.37" y="353.42" width="826.77" height="629.92" as="geometry" />
        </mxCell>
        <mxCell id="SjB44mdSJOXD2yQ44_Wg-9" value="VPC" style="points=[[0,0],[0.25,0],[0.5,0],[0.75,0],[1,0],[1,0.25],[1,0.5],[1,0.75],[1,1],[0.75,1],[0.5,1],[0.25,1],[0,1],[0,0.75],[0,0.5],[0,0.25]];outlineConnect=0;gradientColor=none;html=1;whiteSpace=wrap;fontSize=12;fontStyle=0;container=1;pointerEvents=0;collapsible=0;recursiveResize=0;shape=mxgraph.aws4.group;grIcon=mxgraph.aws4.group_vpc2;strokeColor=#8C4FFF;fillColor=none;verticalAlign=top;align=left;spacingLeft=30;fontColor=#AAB7B8;dashed=0;noLabel=0;labelPadding=0;direction=east;snapToPoint=0;portConstraintRotation=1;dropTarget=0;" parent="1" vertex="1">
          <mxGeometry x="550" y="314.05" width="905.51" height="708.66" as="geometry" />
        </mxCell>
        <mxCell id="SjB44mdSJOXD2yQ44_Wg-22" value="Public subnet" style="points=[[0,0],[0.25,0],[0.5,0],[0.75,0],[1,0],[1,0.25],[1,0.5],[1,0.75],[1,1],[0.75,1],[0.5,1],[0.25,1],[0,1],[0,0.75],[0,0.5],[0,0.25]];outlineConnect=0;gradientColor=none;html=1;whiteSpace=wrap;fontSize=12;fontStyle=0;container=1;pointerEvents=0;collapsible=0;recursiveResize=0;shape=mxgraph.aws4.group;grIcon=mxgraph.aws4.group_security_group;grStroke=0;strokeColor=#7AA116;fillColor=#F2F6E8;verticalAlign=top;align=left;spacingLeft=30;fontColor=#248814;dashed=0;" parent="1" vertex="1">
          <mxGeometry x="628.74" y="385.88" width="748.03" height="314.96" as="geometry" />
        </mxCell>
        <mxCell id="SjB44mdSJOXD2yQ44_Wg-26" value="Security group" style="fillColor=none;strokeColor=#DD3522;verticalAlign=top;fontStyle=0;fontColor=#DD3522;whiteSpace=wrap;html=1;" parent="SjB44mdSJOXD2yQ44_Wg-22" vertex="1">
          <mxGeometry x="39.37" y="29.53" width="669.29" height="255.905" as="geometry" />
        </mxCell>
        <mxCell id="SjB44mdSJOXD2yQ44_Wg-23" value="EC2 instance - t3.micro" style="points=[[0,0],[0.25,0],[0.5,0],[0.75,0],[1,0],[1,0.25],[1,0.5],[1,0.75],[1,1],[0.75,1],[0.5,1],[0.25,1],[0,1],[0,0.75],[0,0.5],[0,0.25]];outlineConnect=0;gradientColor=none;html=1;whiteSpace=wrap;fontSize=12;fontStyle=0;container=1;pointerEvents=0;collapsible=0;recursiveResize=0;shape=mxgraph.aws4.group;grIcon=mxgraph.aws4.group_ec2_instance_contents;strokeColor=#D86613;fillColor=none;verticalAlign=top;align=left;spacingLeft=30;fontColor=#D86613;dashed=0;" parent="SjB44mdSJOXD2yQ44_Wg-22" vertex="1">
          <mxGeometry x="78.74" y="59.06" width="590.55" height="196.85" as="geometry" />
        </mxCell>
        <mxCell id="IqXkSeY8LU8EEEE8MS7V-29" value="" style="edgeStyle=orthogonalEdgeStyle;rounded=0;orthogonalLoop=1;jettySize=auto;html=1;strokeColor=#4D4D4D;endArrow=blockThin;endFill=0;flowAnimation=1;" edge="1" parent="SjB44mdSJOXD2yQ44_Wg-23" source="ZdfeFCO9iQw0SIt7HIkc-2" target="IqXkSeY8LU8EEEE8MS7V-25">
          <mxGeometry relative="1" as="geometry">
            <Array as="points">
              <mxPoint x="142" y="104" />
              <mxPoint x="142" y="104" />
            </Array>
          </mxGeometry>
        </mxCell>
        <mxCell id="ZdfeFCO9iQw0SIt7HIkc-2" value="" style="shape=image;verticalLabelPosition=bottom;labelBackgroundColor=default;verticalAlign=top;aspect=fixed;imageAspect=1;image=data:image/svg+xml,PHN2ZyB2aWV3Qm94PSItMTcuMjYxMTc1IC02LjAyOTk3NSAxNDkuNTk2ODUgMzYuMTc5ODUiIHdpZHRoPSIxMjAwIiBoZWlnaHQ9IjgwMCIgeG1sbnM6eGxpbms9Imh0dHA6Ly93d3cudzMub3JnLzE5OTkveGxpbmsiIHhtbG5zPSJodHRwOi8vd3d3LnczLm9yZy8yMDAwL3N2ZyI+PGcgdHJhbnNmb3JtPSJ0cmFuc2xhdGUoLTExLjU0NzggLTExLjE1NikiPjxwYXRoIGlkPSJhIiBkPSJNMTQuMDQ3OCAzMi43Mjc2VjEzLjY2MjlsMTkuMDYyNSAxOS4wNjQ3VjEzLjY2MjkiIGZpbGw9Im5vbmUiIHN0cm9rZT0iIzA5MCIgc3Ryb2tlLWxpbmVjYXA9InJvdW5kIiBzdHJva2UtbGluZWpvaW49InJvdW5kIiBzdHJva2Utd2lkdGg9IjUiLz48cGF0aCBkPSJNNDQuNjg3NSAxMS4xODc1TDQ0IDEyLjQ2ODhsLTUuMzEyNSA5LjY1NjJMMzggMjMuMzQzOGwuNjg3NSAxLjIxODdMNDQgMzMuOTA2M2wuNzE4OCAxLjI4MTJINTguNjI1bC42ODc1LTEuNDA2MyAzLjk2ODgtOCAxLjc4MTItMy42MjVoLTQuMDMxM2wtMTAuMTU2Mi4wMzEzYy0xLjMyMDgtLjAxODctMi41MzU2IDEuMTc5LTIuNTM1NiAyLjVzMS4yMTQ4IDIuNTE4NyAyLjUzNTYgMi41TDU3IDI3LjE1NjJsLTEuNSAzLjAzMTNoLTcuODc1bC0zLjkwNjMtNi44NzUgMy45Mzc2LTcuMTI1aDguMzc3MmwxLjk1MzEgNC4wMDc4aDUuMDMxMmwtMy4xNzE4LTcuNjAxNS0uNjg3NS0xLjQwNjNoLTEyLjk3MXptMjUuMzI2My0uMDMxMmMtMS4zMDkuMDE2My0yLjQ4NTEgMS4yMjIyLTIuNDY4OCAyLjUzMTJ2Ni41MTQ1aDV2LTYuNTE0NWMuMDE2Ni0xLjMyOTgtMS4yMDE0LTIuNTQ3OC0yLjUzMTItMi41MzEzeiIgZmlsbD0iIzA5MCIvPjx1c2UgaGVpZ2h0PSIxMDUyLjM2MjIiIHRyYW5zZm9ybT0ibWF0cml4KC0xIDAgMCAxIDExMS4xMzkgLjA0ODQpIiB3aWR0aD0iNzQ0LjA5NDUiIHhsaW5rOmhyZWY9IiNhIi8+PGcgdHJhbnNmb3JtPSJ0cmFuc2xhdGUoLjEwNTkgLjMzMDEpIj48cGF0aCBpZD0iYiIgZD0iTTEwNC45MDk0IDEzLjM3NDJsMTkuMDg0OCAxOS4wMTc5IiBmaWxsPSJub25lIiBzdHJva2U9IiMwOTAiIHN0cm9rZS1saW5lY2FwPSJyb3VuZCIgc3Ryb2tlLWxpbmVqb2luPSJyb3VuZCIgc3Ryb2tlLXdpZHRoPSI1Ii8+PHVzZSBoZWlnaHQ9IjEwNTIuMzYyMiIgdHJhbnNmb3JtPSJtYXRyaXgoLTEgMCAwIDEgMjI4LjkyNTggMCkiIHdpZHRoPSI3NDQuMDk0NSIgeGxpbms6aHJlZj0iI2IiLz48L2c+PHBhdGggZD0iTTcwLjAxMzggMzUuMjA0Yy0xLjMwOS0uMDE2My0yLjQ4NTEtMS4yMjIyLTIuNDY4OC0yLjUzMTJWMjIuMjA4NWg1djEwLjQ2NDNjLjAxNjYgMS4zMjk4LTEuMjAxNCAyLjU0NzktMi41MzEyIDIuNTMxM3oiIGZpbGw9IiMwOTAiLz48L2c+PC9zdmc+;clipPath=inset(34.5% 10.33% 35.5% 10%);" parent="SjB44mdSJOXD2yQ44_Wg-23" vertex="1">
          <mxGeometry x="12.52" y="87.68" width="85.59" height="21.487029288702928" as="geometry" />
        </mxCell>
        <mxCell id="IqXkSeY8LU8EEEE8MS7V-28" value="" style="edgeStyle=orthogonalEdgeStyle;rounded=0;orthogonalLoop=1;jettySize=auto;html=1;strokeColor=#4D4D4D;endArrow=blockThin;endFill=0;flowAnimation=1;" edge="1" parent="SjB44mdSJOXD2yQ44_Wg-23" source="IqXkSeY8LU8EEEE8MS7V-25" target="ZdfeFCO9iQw0SIt7HIkc-2">
          <mxGeometry relative="1" as="geometry">
            <Array as="points">
              <mxPoint x="143" y="93" />
              <mxPoint x="143" y="93" />
            </Array>
          </mxGeometry>
        </mxCell>
        <mxCell id="IqXkSeY8LU8EEEE8MS7V-25" value="" style="rounded=0;whiteSpace=wrap;html=1;fillColor=none;" vertex="1" parent="SjB44mdSJOXD2yQ44_Wg-23">
          <mxGeometry x="190.51999999999998" y="19.689999999999994" width="374.015" height="157.48" as="geometry" />
        </mxCell>
        <mxCell id="IqXkSeY8LU8EEEE8MS7V-26" value="" style="image;sketch=0;aspect=fixed;html=1;points=[];align=center;fontSize=12;image=img/lib/mscae/Docker.svg;" vertex="1" parent="SjB44mdSJOXD2yQ44_Wg-23">
          <mxGeometry x="190.52" y="19.69" width="32.08" height="26.31" as="geometry" />
        </mxCell>
        <mxCell id="IqXkSeY8LU8EEEE8MS7V-27" style="edgeStyle=orthogonalEdgeStyle;rounded=0;orthogonalLoop=1;jettySize=auto;html=1;exitX=0.5;exitY=1;exitDx=0;exitDy=0;" edge="1" parent="SjB44mdSJOXD2yQ44_Wg-23" source="ZdfeFCO9iQw0SIt7HIkc-2" target="ZdfeFCO9iQw0SIt7HIkc-2">
          <mxGeometry relative="1" as="geometry" />
        </mxCell>
        <mxCell id="IqXkSeY8LU8EEEE8MS7V-30" value="&lt;font style=&quot;font-size: 12px;&quot;&gt;Redis - Cache/PubSub/Message Queue&lt;/font&gt;" style="rounded=0;whiteSpace=wrap;html=1;fillColor=none;verticalAlign=middle;" vertex="1" parent="SjB44mdSJOXD2yQ44_Wg-23">
          <mxGeometry x="246.52" y="46" width="301.48" height="29.06" as="geometry" />
        </mxCell>
        <mxCell id="IqXkSeY8LU8EEEE8MS7V-32" value="" style="image;sketch=0;aspect=fixed;html=1;points=[];align=center;fontSize=12;image=img/lib/mscae/Cache_Redis_Product.svg;" vertex="1" parent="SjB44mdSJOXD2yQ44_Wg-23">
          <mxGeometry x="249.52" y="51.010000000000005" width="22.67" height="19.04" as="geometry" />
        </mxCell>
        <mxCell id="IqXkSeY8LU8EEEE8MS7V-65" value="" style="edgeStyle=orthogonalEdgeStyle;rounded=0;orthogonalLoop=1;jettySize=auto;html=1;entryX=0.514;entryY=1.009;entryDx=0;entryDy=0;entryPerimeter=0;flowAnimation=1;endArrow=blockThin;endFill=0;strokeColor=#4D4D4D;" edge="1" parent="SjB44mdSJOXD2yQ44_Wg-23" source="IqXkSeY8LU8EEEE8MS7V-33" target="IqXkSeY8LU8EEEE8MS7V-30">
          <mxGeometry relative="1" as="geometry">
            <Array as="points">
              <mxPoint x="277" y="94" />
              <mxPoint x="402" y="94" />
            </Array>
          </mxGeometry>
        </mxCell>
        <mxCell id="IqXkSeY8LU8EEEE8MS7V-69" value="" style="edgeStyle=orthogonalEdgeStyle;rounded=0;orthogonalLoop=1;jettySize=auto;html=1;flowAnimation=1;endArrow=blockThin;endFill=0;strokeColor=#4D4D4D;" edge="1" parent="SjB44mdSJOXD2yQ44_Wg-23" source="IqXkSeY8LU8EEEE8MS7V-33" target="IqXkSeY8LU8EEEE8MS7V-34">
          <mxGeometry relative="1" as="geometry" />
        </mxCell>
        <mxCell id="IqXkSeY8LU8EEEE8MS7V-33" value="" style="shape=image;verticalLabelPosition=bottom;labelBackgroundColor=default;verticalAlign=top;aspect=fixed;imageAspect=0;image=data:image/png,iVBORw0KGgoAAAANSUhEUgAAAoAAAADeCAQAAAAH33kGAAAABGdBTUEAALGPC/xhBQAAACBjSFJNAAB6JgAAgIQAAPoAAACA6AAAdTAAAOpgAAA6mAAAF3CculE8AAAAAmJLR0QA/4ePzL8AAAAHdElNRQfoBwwHMQwEkQ37AAAhh0lEQVR42u2deXwV5bnHv9mQJUAICEjYwx4CYgQUEFABcUEFhbpU1HoF7b2KlVasGy6titUqotXe6hW3WkChYIsIiAuLlFVW2cMSCCFsCYEQQnLuH0YQzDlnznmfmTNzzvOdjx/9mDPvvNv85nm35wFFURRFURRFURRFURRFUaKZOE/ltgW/JdEohc28aLFe3jTM67+Zod1LURQ5xuAzvL62+KR44yc9o82lKG4n3lO5TdQGUxQlVgUwThtMUZRYFUBFURQVQEVRFBVARVEUFUBFURQVQEVRFBVARVEUFUBFURQVQEVRFBVARVEUFUBFUVQAFUVRVAAVRVFUABVFUVQAFUVRVAAVRVFUABVFUVQAFUVRVAAVRVFUABVFUVQAFUVRVAAVRVFUABVFUVQAFUVRVAAVRVFUABVFUVQAFUVRVAAVRVFUABVFUVQAFUVRVAAVRVGkSNQqqJRybjdMYbVWoqKoAHqV97QKFEWHwIqiKCqAiqIoKoCKoigqgIqiKCqAiqIoKoCKoigqgIqiKCqAiqIoKoCKoigqgIqiKCqAiqIoKoCKoigqgIqiKA6SGOGnp9GMBqSQQgoJQBLJFFNIIYUcIpcd5HJSmykgcaSRTnPq04BzOZcGpBBHCpBMEsUc5zAlHCWf7WxnB9vZxEEXf5JTSSWVOqSSSnVqV3ykq1INKKOQwxzhCIUc4RB72Ut5VLduMnWoQx2SSCIZTtUHnOQIAIco4RiFlFBAgQvbM43mtKAJdSuuFKpU/K2EwxRwmIPsYhvb2OZ8v3ReAKuQSSad6ERrGll4/kn2sJlVrGbNqYpTEmlPZzrRhnRaUTXAL6tRjTpn/T8fG1jEAr5lY4TLkUAjmtKMJjShGU1Jo26IKZSyh2w2sJ7vWckBT7dqNVrTlMY0pilNOK9C+EKhjIMc4CAHOche9lT8s5tjDpekNt3pQiYdaR/SW5vHUpaylCVOtWScY1VSlZ70pjfdqRbBLvYNfSz+cnhAWQnOCpbZ8DVtTy+60ZmOnCOS4i6mMYUFjrZBTdrRjna0pT2thD9qm/kPC5nNNs+IXhU6k0k7OtCe5rZNSR2usP2z2cF2NnPUpuek0I/+9KCDYUnKWcpMZrLCbvveCQGszzVcwwBquKC7WRfA/SHbImfyNGMF7b3uXEIvevzMlpNhA2/yNkW2DoTS6UIXutCRNAfaeTOfMYWF+FwrfI3IIoue9IyIQXCI9axjPevYRrZILTVmKIO5WHhMmcuHTGSdV036qgxiMifwueb62nLe9xs+6SmRGkznXqZy2IGayedh8VcxjvbcwavMpzAirb2D52npsneiOlfxGltc9E4cZBFv8xCDaBxWiWpwFwsoszGHS7knouPGsGjDBApc1MyhCuCBiApgHBfxApsdrp1tDBIaCF3BWD7joAtavIzpXOaKN6I+/8PnFLvunTh9jQq5TC2Z4Mjn2Ucej5DiFfG7lJm2fhGiWQDj6M0EciJWQ28ZTFU0YBivs9aFbf8VF+tIKMhVwrkhlSqDDyh1NIcFjKW628XvYua6uJGtC+DBCAhga54mO+J1tIYmIed8GG+w3uUv+CeOzD6eTSfejtAEQKjXlJBmMP/KyYjkcjcj3Lt7uQ3/dnkju1UAq3ArC11TS7voEGLLF3viFT/MCAf3PUAvPqXcEzXjw8eVlpfkHqIoojldRFv3iV8yz1Pi+kZ2owA25ElyXVZPOTSLQgH04WMatRx4G+IZzlrP1MkPLZ5gqWQXsMIFuT3KfY5+yoLSw/EJe7sF8JBjAvisK2tqPclRKYA+NoZs34ZKP1Z6Svx8+PijpfnpB11k5MwJcc7Sz5fKnCq8yHxaoUQT7XktSkvWhoV0s3HObxZzON9jdVLGW0F/U5sZvOSi01j9WGpez+YC2IivGB2FThVMDWyf52vgdq6JUglMYTbdbVntfZEVXOHBGvmY7CC/aMki1/WHZixkaGQFsCfLI7rBQLGTV4QO3LmP2syinbjtt5jRFmfS3Mafg/y9C4ttnzgIh+r8g3sjJ4BXM4eGqhNRSzq3R23ZUpguuLE2iadZTmeP1sWXLAn49yyZ+TZbiOd1HoyMAN7MNO8dUHFsCBwdjI5ij5Ft+FColevwOY9H2LWcCS8Esf7mGZ6Lt/tNfYnfOS+A1/FeiK56FC+KxGVRXLqr+JWInbyISz1cC2v5PGDpZjqycciMcQx3VgAvZ5KHv3iKdX4R1aV7yfh0SB+WiM8mOi0evgC27SxPTHLF8Tf6OieAbfg4aqfHdQh8JtdH9YeuNs8b3X8ds0n1dA1s5iO/f0vgI89sb6vCVNKdEcCaTPWOXwbFkHpcENXlu9ngWFV//uF5L+XPUub3b094aktPHT4KvTXCEcC/kREDL75agKcHedFMAo+EeWdPphl6DY882/ggQPke9Vhpulo6z2IogLdF+ayQcjaXRHn5bqFRGHddzCxX+Dg34zm/Iceq854H9zSO5nJ7BbAJE1QRYoxOUV6+RG4J+Z7z+CSks9LuZCfv+f3bk67zpW1t3PZGaFZ5qAI4ntox8trrEPhHmkb9jO8dIf4+iSmcFwXlfo4Tfv6SyQMeLVNrRtsngFcwWPUg5oijdZSXMCPEWe3x9IyCUufwToASeneP76OhuHILRQATeDmmXnuvUMYhtrOWNWxjGzkUiz+hedS3dijbvW8zO33qGsZR4ucv13p6Y3e1UJa1QtnjdRftHcj+MQ5QShVqkKwnTfxQwjpWs5rN7GI3+yvpAg1JpxVt6MoFAlEUmrmi1MVUte2z1Nfy3HaaA27CTnIEgFo2LkPs8esAK04ooqG/su3hJFCFNNta8w6eZYe0AFblCRtFbz7LWMYq8s6IYZ9Ka9rShs70oWbMy56P1cxjGavZ4Hft7kepyCabuRUt3IXPDM9y1nO4pAfYyEY2sZW95JPHoYr/n0R90mhMFpfTTfT16UOcRQdmr9l2MGwrX7Cc1exk76lw4DVpQSsyuJiLhGNC/4njfv5yvQ3eDH0sZg4L2MrOU303mfZcyI30EZf5Kjwsb6WPtMWr6wmmc7OF7QSJdOdh1jjoEfqY4ZOsh0UP7hF6O29xM/XDbrvRhmV504J1Zt4XipjNMwymqaUyNeVFUT/U1p462Ja3IJuxQedZuxg94Ri/YRC/5kVmsoGtfBHAjcki4dIV8+eApWvIcxwVf6bwRzuBTTaI33shHrR5LOYEcDWPCZw0TTWUio9sF8DZXBzGkbu2rBPrjf0tPK+WDeFKlzDY0kx8ltFTtluu067C5fvY0qelEX8Xfq5F/zBWF0EGia8EzqQtw9miE3p+WMtY2tOJP7DBOK2DzDG6P8X20q7m2yDD+srYSG9WCeWgjYXfPC4cWHMnv6Ab004NeANhNuAvt/zL+wTLd5y7uJGdlmYkb+Fu0eW7kda0Ld5ycrJzfg9wTVAn3JElcqvAB3iVzmTytID0/chco7vdu/fzADdWLBiYEvwDX497RPP+PhlMtvxrM7+MVgUwhWFi5TvEAP4vhN+/RX+htgRIt3aE01q1NmOAYMNncwHjoyBmhjzlzOYm0hjFauGUF0epAMIWnhZJJ7jH4zGCZz+OMJjhFDn2Qbb6tg0W8/JUxADmh3jPQgYKSqCl8z3WBPB2Qb/A39GTjR4QI6ctwP2MI50rmOR3d5YJ640+OO52iPUX8gRSCbbGWl9wXXEHPfino/3RqgV4s9infBjLwrhvEbeLmUY3WBFza8I2VKzpV9GXXDX1zmIFI2nGwyFMVYf+PT4QtbV3jHcFUgnm1e93Yq4PsrmUtQ5/kK0JYH2xDdB/5LMw75zGn4TyUMfK9nYrAtiOjkJZyuVaClTvzuIFsvjfM/Y/2oGJALr9VMz7AmmkBPxrNe4Ws/4uCWv224k2GCxk6y832kr9WBifh8qxEMbTigAOEcpOCYMsrQjF2hD4sCNPKfFEXYTHWnJstgCHCM2DHmIgu8O602wSypqwXSk0/L03gJPV4JTyP0LDYCEBvFKomz7J8hiy69y2yGPiudj956K/stkCvFNIGn4Z9sq+WRskWuohl4uU8u8sNUzhaz4WyUnT4N6+gwtgLbqLZGYlL3lKwKLNHVa9qK6LFcYpJAVY420mNDc2jpkRagMrp+ovEVnlPilykvhZIQMi6FaY4ALYV8QlgY//ohQlUtQxEkD3t9xqkTryh8wuiPVGG3bsHwLLhD6YJnK44TtmieSmt3m1yng+my7wjVbCp4fR3SdcXz6JTfX+N03cIJLHkX7dD7hjCNxLpJSvC7XoGyKpdDUXwB4C2fCFHqxEh8BinEtHbo9yAZTYWuVPJBqSKZD6DBZEsH6SLPxCYqprN98I5XhWJW7eQic9gNMHS1+GeJGgiPPC2hSphEMDmtOc5jQmjYak0VAgcGOJ60tdTIHxOq0/p0yXC3wMy8KOPfcj5UZ3BxfATgJ+I2G62OJfKZP5tXEqCbRjpYkANhGplomqSzZSl450IIPmtKBFsC9elFqAsNdYAP29C/0Fcvce6yIqgFWD+js8X6QVpgm26EwBAYQMMwFsK5CFopCP/egQOPiXLZNuZJBBRxrY/rQSD7RXnnFfTfRrAZoz3jgFn2FvrhZkq31ngVIWiA2AAb6iROBkcobZEFhCAP8d0qFvJRDV6cYl9ORi2/wSe9UCPCrwUamMNjQ2Tvk7AaddZcY951iQIbCEZJ0QbdElAjGpO5oJYDuBgszzpNSYWoCyG6Hj6cogLicrInFSvCCA5nms/F3oKpC3iQJpmPanYFMjEqbOd8JtulRAAJtF3gL8Ug03I+nrza1ca+AQPzYE0HyvYuXvQheBnP1doHymFmCNIPIoMZEiLYASzm7rmglgunEG8tisKhYmLRjJrQJDMLUAwxdA810QS8kXKF+54f2BLcDmInPeq4Tb1AUCWNc4A+s9Kj6RXgTpx/1cLeiHUS3A8GysDON0Zfb/mQpg4N0cTQVyWCDuzk1me3vNQE5WA79gCQKnAzepIRcyvfiSOQxyifx5YxW43DiFymKS1BaYeljoAQGUGADniDsAKaTQbhsw8CtWS8AO0gFwaGQwj/n0jTLryn4SbSml+Ry4j289IIASQSTtcLm7SyCNeuELoEQo5jy8SSSGwDV4gZViXnljawhsLoCVWYDmc+C5IjOAXhDA/Ta06mGBNKqE321SBB5/BMUaHZgsMOMUq0NgewTQfAFqj0uG+IEXQWoK5DDfhlY9KpDGSZMhsDm6Cdoa97DcpfIXK0Pgyl6URq4ZAZlvhA6ERCw4O4JdSKiHgQBKTGoW40XMB8C+kJ72JG9Q1bW1EbsWoLkASoUAM/0I2S+Abj08Whp+t5Ho+OegBCaBtw3dVdmNF+YAq9jyoqS4ZmBorwBKBENKcmWrGlmAxwUeXx0lMK+6XP68MQSuYsuLYh4KqdwlbVDd9hZ2qwCWRlYAa+BFnDPnx4g4/bEXnwdaLMmWF8V8FlxqL6epRCV7UgBTBNI4EFkBrIfin/48p5XgEluhst5uPi9bW6h8phIV2BCRmOyqaUOrmm9DL+ZQZAUwXd/NAN+3t6Mu+px3LcDjtthvdYXKZ68FeEggh01saNWGxinsNjHQDwsMflrpu+mXcbZ0GrUAwxvmV2YFJbhGFkwXomqEP0y0SDMb7D9zC3yPiQAeF9jF1EbfTT+051daCa6xAEsq/diXGeertVD5yg3zkmy7ADYSnwWU8EYaRACDLX/vNDZC21LPlkMy9uLEtP/TIpsPgnGEXexhDzlkcYUKYEgDYIJ4UbbCuTQSOg1y0sgerWEyULREAo1F/Lf81EQwJ8dMAHfQzTADcfThkxi0SIJJaHMG2/DU/WxhJ7nsIZfd5LLrJ3vpx0a1AJoOgSsXQImjWN2FQgWVGu2prRHkPZegk7AAni+QxlpTATTn0pgUwGD8t8D80o+Do/Us4lvWsVnk8LhagKeRcMfUW0gAzWYBAw+Bd1EusODTg+mibSoRqn1F4D8HK7SEAA4We9WjZwgcz80ig6Kp3EQqmYxkIktjWP7MzzJUvhFkr0DOBgmV8KTR3TWCiOt2gRz2EG3RFDoYp3GcDWYCuFWgII0YoAbfWVxCmvGA6DVacAOTbDmEHntUfmZdwpVBupCTC7O9ejWCbLhaLZDDLJGTG6dHjuY26Zpg24eCPeI7kaLcqe/XWVxneP/3ZHFfsAlexVhedoukLXPU0WxXbkKQLSUSAliN7oItcr39A+DgApgrMggYIrKgHU2YBdteRHfWaCU6IIBbRNK+TcQliKlfpWQzqbDEL8TaI5GrBVJZYiqAsEwgGwmM1TfsJ9Qn0+Du7VytbmbFqdy+kgno0JDbIm4BBnOHsFBk3nuY2F7Aq0TO0Mw1F8BvRIozTCC+qrPYuQySZXQAbkRML3Y4bQHKuAJ7SEAY7LUA94uELzuXfkLtcY9AGmvY6RYBjOd9Fzv8tEMAA91/vtHwd46qlWMCeCLYPjKLtBZ4oU0twGDv39dCw30JWorsWZ1lRZiCsVxolTGDpz31QsTZ2F07GqSrkwlOCiAsF0p/LOdG2AIMJoCfiZTzRpEzwY+IuBGzUKLgjznJ50JdYLTIuo5XCHSGIPwukh18VkMR/WAtFkq/Lm9F2AIMthAzV8QpVhK/NU4jneECOTliJSKzFZ39l1AXiGcS/T3yOsQbW4BFtgigyp/TFuA8sSdcy6MRtQDPCdpjZco60tgBynMiSymfWJm/tSKAM8VcoldhivBucfsE0E4LMHwHE/NVqRwWwO1sE3vGM0bev+2eA4R/iJQyiVeM7r+OoSL5eEfqRT/AbLEuUJt5Iuat3Zgf3isK0BHDP7bl1TDz3hVAqbkxgDhe59mwxxZ2W4AwTSiG45UGRx/q8heRPGyxZixYs3Q+EOxo5zCRF4OEaY5uCzDZINVkFKcFcKroc37P3DCdpNo9BwhH+KdQKV8Nc6EvkckCoUgBJlrbx2HtRZ8huvMsjtGsFtsv5FYBLAowRAifXij24F9evhH2Z3kZa3gojE1h9luA8IZQGZOZznlh3Deey0SeX8a7ki/6MWvj6RBoxWxm0DOKh8D+LUATrx6DPOhZx+sW4En+Lvys2oxjE78LIeZZOuMY5YAAzhc7YtmSL0KUwHheF4uQ+E+r5+StWjp/EYtvetoOHMQC5jOcOi58Hcx9NdsjgK24T7XKYQGE/7PheU14gVw+4aaAkc/iyWQMi9nMQ8bxFa3ZnC+LlbA9S7gwBJvxAzH58/Gs9Iu+hRm27OLrRS9K+ZJZLGel3xOuNcjkfLo4uInG/NSK/yFwoZHzyWdYwiLVK0cFcBX/EfVzcrqXDWEIPtazinXsJI+DAFQjlTTa0IHuYmE1seiQ4QOepKnQExuzkHE8Z2Hw3pUPxaKnwCzrrh0SQ3jxrrMphGMSAxgAlLOZXHLZd2o+phZpNCKNBmLhpWU7S6Bv0LEA8xMHDE4FJDObG60c8lHEBBBeYrJtT44jQ8hjYGCs+eor5U9MEHzm49zNeD5kl9/ftOVxbhKd2vmjPRX4KT7PX1bPO7YzfE5gby2rDVMv550wBkRjw37evUHTLjYs0YvGvfOAYQ5uDJh6Als93/dfsPzx3yb+7HKW8nt6nmXPNude5nBS+Flf2TXXNYaBjsQxcwOmQ+CigH/dbOQOC+K4g6F8wOshTFnHUUvNvLAtwDKeEV8IdJpzLNfEI3wkbuVeWDEfuJN8jlFCA1rZshmunIdD+XkoQ8v1vB0zr4PpEDhwNLHvBXJYg5GsZgvjuYGWASYnGtCPB5lKPg+qyoUtgPA+62OmT08SOwH9c5qSxSX0I9OmvcATQ8t7aBbdEwwlVQXQWADXiuUznfu5HyhgJznkcbTC9kzhHBrSmDRXrrF7UQDLGMOnni6h9Rl8HyNYLh7m3AkKQz1vHZoA7uNBJsbE61DT1iHwAvH81ibTcFgd6wQ/OP8vZnCth0sYiofLNUzw5Ijh0VBDeIS6uvpujKw/ptgqgDmCB+wV5+Th/iDtGk08HiygpAtZEfpJltC3l9whEibJ7Zjuvjoa5O+zUbzHDn4TM2U9xq1C4QCc4ii3Uma/AOZxS+iPUQvwLKaomniSt5geM2VdYei/0GlGhWOzhrPB+MsYcMtutwX4tTq28ih3CoXKdOcg/0xeYpJnSvdxeHtUwjth8Uf+GuXd3HTPXLCwlWX8TbXEkxxiSNDPW7Tg4y6RgOn2k83d4d0Y7hGz+8QihbgT080jh4P+4i8em2FRfmQN13uy7cLx636UK9nh+pIVcH24Dvviw67M68RihbiRNGM7IRi5tvgYUZxgLiNsjRttD+GFPNrD1RZ6cyQ5zqDw7dR4g+ocykwVwLAtQHhCKOCo4jzvcre4gzj7hSI81nE5B1xbqnJuM4mUE29UodfyWlR277iwvNmGKoD5PKVK4lne5i4jz47OE/6wfSUDXWoF+hjFxyYJmLmZKuM+RkXhXFaqsTMEa93llSi2ob330QuViVzlKRveJKbIMi5hp+tKVMYIUxPM3M/eq/Rgsw6Aw7AAf1hl263a4wrC+eTNoY+HzvSYhT1fR08xd/kyFDPEONi8iKPR5WQxPqo2R5vHpbJqGezligovwEpkqR7WXavIEouk5m4BhBx6uGgD/2EGMsM8GRlPy0d4gK5R5Ki9nXEK1mdM1jFQOOqYEg7Vwn4RhzCCQg+U8IhxCkX8gtFhbaeRZikX8o1EQnKu5lfSk/78Jypehg7GxvnxkBqzl2dPF8S6BQjg4290lLBGbEZiGcPHn8liVUTL4eNVerFVJjHZWBtzuYir+dbzL4NphIY9If5+I1l6OtizAgiwi+u4wuUuU6XWcddwEc9HbOlzDwMlF17lgw3NpAcZjHP55snAtHdYAKGQYVwbIHCM4m4BBJhNJsNc7ERKbq75OL+nM184XoKjPEUbWU9K9kRbW8/DNGMEX7hmp9QJ1jOV5ywFhjH3orwnrLs+JYMnwj3So0RcAKGcKXTkBr50ZQlle9YG+tGf5Y7lvpwpZPCk185hpzKcqRRFJArWPr7hf/kt19AqJM/XA42f/IpBjaUw2lURyA6wIUjENIiGqHCyoRQ78CzbBWr/CPN4mbvoQzsmGKZVxYb3O44hLLK9Dx7iFdrYI1B2R3k7yHu8RxIX0ove9LQ1QkUJO8gmm+1kk83WsE3+3gLzFCbf6Zd4mYsYwhBaOPipKiGX3ewhj/3sZ/+pf3vrtEP4yIboWc8jPEo3ruEqzg9jnLWbBSxiAat/Uv+NjXJUZMusnY+pTOVi/pshNgU5+o43+NA+uy/O0U4WTws60ZFMMmhhWGHF5JNLPvvYyTay2c5uoQPq33KRYQq38YFITrpwNd3oSkNxsctnD3vJYS+7yGMXew234nQxnEzJI8ewTJ0NP+b5tp10SKEnPehCB5oF+WUhy/gPS1lS6fb49UZz01tobeu7XZubGEZvMZPKx3KmMpWN9kqSswJ4JvVpQhOakUqdiusckkiu+BoXV4z8CyjmGAUUcZR89rGXfPaRa1t0hmQOGsfDupx5onlqQlc60YJmNCMtpNwVcpi97GMfe8gnj1zy2evpBSovU5PmNKMpqaRQk2SSgGIKKCSHbWwlO4CDhUSOGg1iv+QyB0pYhyvpT29aGkn1QhbyuTNH7+K0V/5sBvAz4zQybNwQkcB5pFCLWtQiBahFwimb+DjHKOEoJRzmEIc57DmPJYo/WhkeOH2XOxzMbWMuJJNMWtPUUiDdAjaygQ18z2JnYw4las86i0sFjPftNuavjBzj4aLiPdoa3u/smfMcck4dEUzmvIoRXi3iTwWbKKWIcvLJJ5+9AqdUVACFuN44hd0c02pUhDGdwYvcHtMiNztLideedQbdBJbbN2s1KiqA3kAF8ExuFUhDBVCRp5Xh/Tu1ClUAg1GT2wVSWasVqbjMAjzJJq1CFcBg3GkcDxiIsK8MJRqpSlOj+zcZewNUAYx6qvCASDprtCoVYTqf2uykfVIF0CZGihw926nbjBVxsgzvX6dVqAIYmNo8JpLOYq1KRRzT3alqAaoABuF56ouks0CrUhEmwVgAdWFOCUgvyoRc92RpZSrCmDpoy9Mjr0ogUkV8t/nwUaBnaxRx/mHYKydpFSr+iWOGmOvGj7U6FWHSOWHYK3+tlaj451lB37W/0upUhHnXuFdmaCUq/rhbUP7KOU8rVBGlL+XGoSF0BlDxwzBKBQXwG61QRZRUthn3yslajUrl/JKTosFbRmiVRiUvMTwiG8aSmCvQK4dpAyqVcb/Y1pcfrmJStFKjkk/wsZahhsfRQqUKn4jElauuDaj8vHNNEA/e96FWaxQLoA8f2/mtYx+5OnyuvVKxhzQW2hC9tKtWbJQLoA8fRUzkMtsHxBexWahXXqPNp5xJH3JtkL95WrExIYA/XDt5nq42ra7W4WWxuekDtoRDVzxLEk8JL3z8ePXXyo0hAfzh2s2bXCU6x9aQxzgg2Ctf1cZTTtORZbaIn08glKbiPQH84SphAX+gPzWMnhHHZUw2PvNx5lVm7EhfiRoSGcNxm+TvJJlawTErgKd7wVre5zf04dyQUm/FSCaxz4Z+OV2bLrgsxAZdeZMLbEt9gvpbU0gggwx+CUABW9nCVvLIJ599HOEERyveuNrUpg6ptKQN7WhDXZvy4+MP2igK1Ga8TfN+P1zfU00rWS1A111q/ynALbas+Z6+TtBNK1kF0HVXKR214WJ9CNyK17jC5meMYol2I8V1TFAv0LFNFcZQbPt39kmtaLUAXXjlUkubLZZJZ5MD3exldTSkAujK6wZttFinCWPYYmsne0ErWQXQldc72mQKQDwDma+DXyWmBDCb2tpkyml68an4Cts9Wq0qgK68ijUuofJz+rJYrIsV2r6yrKgAhnvdqc2lVE4/Vgl0sM26v0oF0LXX89pYin8SGG64MPIv9fqsAuja6wPdlaAEI5FfkR2my4MnIhIZQlEBtHb0LUmbSrFCEsPZGHJwwQFacSqArr0mqfwpoVmCt4ewWfpzGmqVqQC6eOdfgjaTEirxDGW9hY0FY3ToqwLo2quc53XuTwlfBG9iTYDutVydnaoAulj+jnKjNpBiSi8mU/qzzrWfUTq0UFwsgGv186xI0Zhn2PET8XtOjxQpLhbAcl6hqjaOIksHbuMBBmjXUlwtgJu4TBtGUZTYE8AjPKLxfmVI1CpQFA9RyjuMZa9WhKIoznCjoCsNk6uI12iuzaEoitO04SmbHewGvnJ4zLYAmoqiKEGJ40KeEfEpFMp1nElcqduxFEVxBy0YxWcccWCxYwq3qv8he79piqKEQyJd6UtfLhKPwFbKEr7ia+ZzXKtZBVBR3P0OtaILF3ABmUYuM46zgZWsZAUrOabVqgKoKF6jOi1pSUtaUJ961KMudaleye8KKaWA/eSxl1xy2MIWcvBpBaoAKkq0DZVrVvxXTeIopFgHtoqiKIqiKIqiKIqiKIqiKM7w/6qjzUW/WbGgAAAAJXRFWHRkYXRlOmNyZWF0ZQAyMDI0LTA3LTEyVDA3OjQ5OjExKzAwOjAwQWfFowAAACV0RVh0ZGF0ZTptb2RpZnkAMjAyNC0wNy0xMlQwNzo0OToxMSswMDowMDA6fR8AAAAASUVORK5CYII=;" vertex="1" parent="SjB44mdSJOXD2yQ44_Wg-23">
          <mxGeometry x="246.51999999999998" y="113.94" width="60.71" height="21.06" as="geometry" />
        </mxCell>
        <mxCell id="IqXkSeY8LU8EEEE8MS7V-70" value="" style="edgeStyle=orthogonalEdgeStyle;rounded=0;orthogonalLoop=1;jettySize=auto;html=1;flowAnimation=1;endArrow=blockThin;endFill=0;strokeColor=#4D4D4D;" edge="1" parent="SjB44mdSJOXD2yQ44_Wg-23">
          <mxGeometry relative="1" as="geometry">
            <mxPoint x="401.52" y="113.94" as="sourcePoint" />
            <mxPoint x="401.52" y="75.06000000000006" as="targetPoint" />
          </mxGeometry>
        </mxCell>
        <mxCell id="IqXkSeY8LU8EEEE8MS7V-34" value="" style="shape=image;verticalLabelPosition=bottom;labelBackgroundColor=default;verticalAlign=top;aspect=fixed;imageAspect=0;image=data:image/png,iVBORw0KGgoAAAANSUhEUgAAAgAAAAIACAYAAAD0eNT6AAAAGXRFWHRTb2Z0d2FyZQBBZG9iZSBJbWFnZVJlYWR5ccllPAAAAyhpVFh0WE1MOmNvbS5hZG9iZS54bXAAAAAAADw/eHBhY2tldCBiZWdpbj0i77u/IiBpZD0iVzVNME1wQ2VoaUh6cmVTek5UY3prYzlkIj8+IDx4OnhtcG1ldGEgeG1sbnM6eD0iYWRvYmU6bnM6bWV0YS8iIHg6eG1wdGs9IkFkb2JlIFhNUCBDb3JlIDUuNi1jMTExIDc5LjE1ODMyNSwgMjAxNS8wOS8xMC0wMToxMDoyMCAgICAgICAgIj4gPHJkZjpSREYgeG1sbnM6cmRmPSJodHRwOi8vd3d3LnczLm9yZy8xOTk5LzAyLzIyLXJkZi1zeW50YXgtbnMjIj4gPHJkZjpEZXNjcmlwdGlvbiByZGY6YWJvdXQ9IiIgeG1sbnM6eG1wPSJodHRwOi8vbnMuYWRvYmUuY29tL3hhcC8xLjAvIiB4bWxuczp4bXBNTT0iaHR0cDovL25zLmFkb2JlLmNvbS94YXAvMS4wL21tLyIgeG1sbnM6c3RSZWY9Imh0dHA6Ly9ucy5hZG9iZS5jb20veGFwLzEuMC9zVHlwZS9SZXNvdXJjZVJlZiMiIHhtcDpDcmVhdG9yVG9vbD0iQWRvYmUgUGhvdG9zaG9wIENDIDIwMTUgKE1hY2ludG9zaCkiIHhtcE1NOkluc3RhbmNlSUQ9InhtcC5paWQ6Q0ExNUQ3RkQ5QTRDMTFFNkI3QTVBNUM4NjYyNkU4NTQiIHhtcE1NOkRvY3VtZW50SUQ9InhtcC5kaWQ6Q0ExNUQ3RkU5QTRDMTFFNkI3QTVBNUM4NjYyNkU4NTQiPiA8eG1wTU06RGVyaXZlZEZyb20gc3RSZWY6aW5zdGFuY2VJRD0ieG1wLmlpZDpDQTE1RDdGQjlBNEMxMUU2QjdBNUE1Qzg2NjI2RTg1NCIgc3RSZWY6ZG9jdW1lbnRJRD0ieG1wLmRpZDpDQTE1RDdGQzlBNEMxMUU2QjdBNUE1Qzg2NjI2RTg1NCIvPiA8L3JkZjpEZXNjcmlwdGlvbj4gPC9yZGY6UkRGPiA8L3g6eG1wbWV0YT4gPD94cGFja2V0IGVuZD0iciI/PuTO0+EAAB5ASURBVHja7N0LcF13fSfwc9+60rWefr8jhyTGMUkGCBTCFsKr426XQmHbxCosxWUDw27pwHZISqGwLZuFsGRKZza0AVrWhU4ZxzTTZmhnmZB1ePVNHJMQYk8ICSEhL8ey9bqP/R9Zoia1FUmRpavz/3yYX64sy1jn9/fV/3v+55VrtVoJABCXnAAAAAIAACAAAAACAAAgAAAAAgAAIAAAAAIAACAAAAACAAAgAAAAAgAAIAAAAAIAACAAAAACAAAgAAAAAgAACAAAgAAAAAgAAIAAAAAIAACAAAAACAAAgAAAAAgAAIAAAAAIAACAAAAACAAAgAAAAAgAAIAAAAAIAAAgAAAAAgAAIAAAAAIAACAAAAACAAAgAAAAAgAAIAAAAAIAACAAAAACAAAgAAAAAgAAIAAAAAIAACAAAIAAAAAIAACAAAAACAAAgAAAAAgAAIAAAAAIAACAAAAACAAAgAAAAAgAAIAAAAAIAACAAAAACAAAgAAAAAKALgCAAAAACAAAgAAAAAgAAIAAAAAIAACAAAAACAAAgAAAAAgAAIAAAAAIAACAAAAACAAAgAAAAAgAACAACAAAIAAAAAIAACAAAAACAAAgAAAAAgAAIAAAAAIAACAAAAACAAAgAAAAAgAAIAAAAAIAACAAAAACAAAgAACAAAAACAAAgAAAAAgAAIAAAAAIAACAAAAACAAAgAAAAAgAAIAAAAAIAACAAAAACAAAgAAAAAgAAIAAAAACAAAgAAAAAgAAIAAAAAIAACAAAAACAAAgAAAAAgAAIAAAAAIAACAAAAACAAAgAAAAAgAAIAAAAAIAAAgAAIAAAAAIAACAAAAACAAAgAAAAAgAAIAAAAAIAACAAAAACAAAgAAAAAgAAIAAAAAIAADAMwSAXC6nE2fJLUf2FMLLhlBbQw2G2hxqTaj+UAOnVE86HqE6QlV0DmD5yueKSblQfbRc7HysUqwdDx9PFPLlfCFfKhVyxUoul++arCQpT03HK075441Qw6EeCnVPqLtC3R7qwLba0NGF+P4m534BYEEn+nNDPW+qdk5VOuEXdQggmxN9tdT9o2qp55FquadeKXTVCvni2jChd5+Fv64Z6rZQnwu1L4SBYwLA0kz4veHlZ0JdFuoloV4UqqozAFmVSyrFzrFaeeD7XZWBsbBnvzKfK6xbom8mXQm4IdR1IQg8KgCc3Qm/PDXZ7wr1mlAXJieX7AHIqFKhI1lRWfWD7o41J8rFrg25JFdrs2/xeKgPhbo+BIEJAWDhJv302PwvTU36rwxV0xWAbKuWeuq91fX3d5X7Owr50vpl8m0fCnVFCAEHBYD5T/rpyXmvD/WmqUnf8XuAzE/63a2e6voHw95+Vz5X6FummzEa6l0hBHxaAJj9pJ+ewPfaUG8P9fMmfYDsK+YrSdjTf6qvc0Mznyv2ZmjTrg11TQgCLQHgzBP/lvDy1lBvC7XR2wEg23Lhf12V/qS/c/OPq6WelUl2z+VKTxB855lCQDr3R7mnGyb+F4eX94R6Q6i8twRAtuVzhXRvvxkm/pFCvtQVPrUq45t8VagnQ119xjAUywpAmPTTif4/hHpvqJd6OwBkX7rM39e5sd5X3dDM5fLlCFuw53TnBERxCCBM/OnG/XKoD4Ta7u0AEMfEP9C1pdlbTS/Tz8W80pueGHjp068OyHQAmJr4Xxfqg6Eu9nYAiGHiL6fH95Pezg2NXJIr6Mik9BLBS069T0BmzwEIk396w57rQz3fuANkX3qMP534+zs3pUv96R6/yf9f7Qj17lAfO/WTmVoBCBN/et/9jyYnl/wBiEB3x9pkVW2wGfb+ndR9ZukdA7dO3zY4MysAYeJP78Gfnun435KTT9MDIOOqpe5kde05SUdp8kF6Jv+ZpVc+pCfBvy8zKwBh8r88vHwqOfkkPgAyLl3uX1kbTPqqGzRjbtIHCG1KnyK4rFcApp7G9/FQv2ZMASLZjS0PJGtXnJcUCxXNmLue5OTzbf5kMkgt08n/F8LL3SZ/gFj2+ovJuu7tycbenSb/Z+fN0x8sq0MAYeLvDC/XhXqHMQSIQ7XUMzn5p4/m5Vlrhuof7Np9dNkcAgiT/yXh5fOhLjB+ANmX3rd/oHZOMtC5KcnuLfsXXbry/7JQf7UsDgGEyf9d4eWbJn+AOKTL/Jv7LgmT/2aT/8K7bLLHbT7xp5f3pWf4/6rxAohDZ7k3Wd+9IynkS5pxdmxv6wAQJv/B8HJTqIuMFUAc+js3pTf1sdd/dp3XtgEgTP6vCC/7QvUZJ4Dsy+XyyboVFyQrOlZrxtm3ri0DQJj800sUbgxl7QcgAulS/4aeCyfP9mdR1NoqAEw9vS99ZO/vGhuAOJQL1WRD7/MmX1m8zNU2ASBM/uk38+lQbzEuAHHoKHUnG3t2Otlv8TXaIgCEyb8cXr4Q6g3GBCAOneW+ZEPPjsk7/LHohpc8AEzd2e+LoXYZD4A4dJX7J4/5pyf+sSQeWtIAMDX5/1WoVxgLgDjUKiuT9WHPP+cyv6V0T/qfJYlfJn8Akz9L5q4lCQBTx/y/aPIHiEd6zH9993NN/u3h9kUPAFNn+6cn/DnmDxCJ9Pr+9Gx/x/zbQvo0wAPpB4v2OOCp6/w/m7jUDyAalWIt2dx3sbP928et22pDl6dz/2LGsQ+Y/AHiUcxXko29O03+7eVz0x8sygrA1O19/1TfAeKQzxUmH+ebrgDQNo6G2rStNnRsUVYAph7sc6O+A8QiN3m2v8m/7dyQTv6LsgIw9Ujff0g81Q8gGqtr5yZ9nRs1or0cD7U1BIBH01+c1RWAMPmnT3a4yeQPEI/ujtUm//b0oenJf9rZPATwqVAX6TlAHCrFrmTNivM1ov0cCnX90z95Vg4BhL3/d4WXT+o5QBzSM/239j8/KXmsb7sZDXVp2Ps/eOonJ+f+hQ4AYfK/JLx8M1RZ3wHikJ70t6KySiPaz54w+X/66Z9c8AAwdY//fwx1gZ4DxKGnY22yttuP/TZ0bZj8rz7db5yNkwCvM/kDxCNd8l+94jka0X5uCHXNTF+wYCsAYe//F8LLzXoOEIf0wT7pzX46St2a0WZ7/unkH/b+W2f6ggU7BBAm/97wcneoNfoOEIf+zs3JqtqgRrSP9IS/d53umP/pAsBC3aD54yZ/gHiUC9VkZddWjWgf6aV+Vzz9bP+ZPOsVgLD3f3l4+YreA8RjU+/FSWe5VyOW3nCoD4e6Pkz+E7P9Q8/6EMDU3f7uCHWuMQCIQ091XbLWDX+WWvpgn/REv+uefoe/2QaAZ3sI4GqTP0A8CvlSsrq2TSOWRjPUbcnJR/ruO/XBPvMx7xWAsPe/Obx8N1SHMQGIw5oVz0l6qxs04uxqJCeX9h8KdU+ou0LdHupAmPSPLsRf8KxWAE4cGz7QmKib/AEiUa10Jz2r12vE/Pfevxfq4NTrfaHuD/XYVD0+9XWjYZIfXYxvaF4BYP+hoV8fHxndbDwB4rFp9c7Ja/+ZlXQSv22qvhbq78PEPtJO3+CcDwHccmRP7sRTx55q1Bs14wsQh57a2uQ5G1+sETN7It1HDrUv1K3tNuGfal6HAMZOjHzY5A8Qlw0rt2vCGebSUF8Old585+a5XIq3rFYA9h8aytfHJ4abjYbnPQJEonfFuuTcDS/SiJ92PNRnQ30iTPpHll1qmfMKQKv1UZM/QExyYe//udrw0xP/HybzvP5+Wa4A3Hz3WwpjI6Pp3r8z/wEi0d+9MRlc/wKNOLnU/8ehfidM/I8s+42ZywpAo17/gMkfIC5rBzzqN/hWqKvCxP8vWdqo/Gy/sD5Rf7d/AwDx6O5alXRWemJuwYlQ6dz3kqxN/qlZrQDsv3P3W8dHxzzwGSAia/qjvtP7P4baHSb+72Z1A2e1AtBoNH7XWwEgHpN3/euK9invnwz1M1me/Ge1AvClQ0OXjrnrH0Bce/99UT7wJ71736+HiX9vDBv7jAEg7P1f660AEI9Cvpj0d0f3wJ/0kr7Xhcn/67Fs8IyXAf7lXW8uhb3/kVazWfCWAIjDqt6tyZa1F8e0yfeFenWY/O+NZYOf8TLAsPd/tckfIC4re7fEtLmHQ708TP4PxDbOM54E2Gw03u6tABCP9LK/ro4+k3/MAeBL3xna2qg3Nng7AMRjoGdTLJv6YKhXxjr5zxgAmo3mB5NWy7sBICJ9K6LY73sq1K4w+X8/5rGeIQA0/r23AkA8uqr9SbmU+ee9NUP9xzD53xH7eJ82AOw/NHRuo95Y6e0AEI/+Fetj2MxrwuT/N0b7DAGg1Wz+jtYARBYAujdmfRP3h/qokZ4hADQbzddoDUA8Ojt6klIx0w98/WGoPWHv38ltZwoA+w8N1ZqNxhqtAYhHBPf9f0uY/B830jMEgFazdVWr1cppDYAAkBGfCZP//zXKzxQAWs1f1haAeBQKpaSrsz+rm/dIqPcY5VkEgGajuUNbAOLR3bkyySWZXfj97bD3/6RRfoYAsP/Ooa3NRqOqLQDxqFUze9X3v4T6jBGeRQBotZpv1RKAyAJAdpf/rw57/00jPKsA0Hq1lgBENAnkC0lnpTeLm/atMPl/2QjPNgA0m9u1BCAe6ZP/crlMHv//PaM7ywCw/9BQudlo9moJQEQBoJrJ5f/vhvprozvbFYBW65UtT/8DiEpnpTuLm/UH7vg3hwAQJv/XagdAXKqVnqxt0kioPzOycwsAL9QOgHjkcvmko1LL2mZ9Mez9HzW6cwkAzdagdgDEtPe/Ios3APqCkZ1zAGgOaAdATAEgc8f/nwj1FSM7hwBw08ErO5rNZkk7AOJRKXVlbZNu2VYbmjCyc1kByOUu1QqAuJRLnVnbJDf+mXMAaCXP1wqA2FYAMhcAPPJ3zgEgaXkCIIAVgOXs3m21oR8Z1TkGgFbLFQAA8QWATD389etGdD4rAK1klVYAxKNYKGftEsB/NqrzWwHo0QqAuAJAxnzbqM4vANS0AkAAWMa+Y1TnEQBCBOjQCgABYJka2VYbetiozmsFIHETIAABYLn6vhGd7wpAq1XQCoB4FPKZ2u/7oRGd9wpAK6cVABHJ1k/9xwzofFcAAIhr/s9l6sf/E0ZUAABgNj/8c5k68jtiRAUAAGAWiul/an3uAwQQk3LV1d8CQJIeC3IOIEBM/NRn+hDAmFYAxKPZamZpczqN6PwDwKhWAMSjlWQqAPQa0fkHAABYrga0YP4B4EmtAIhHs1nP0uasN6LzDwDuogQQkUZrIkubs8WICgAAzCYAZGsFoHp4eO9aoyoAAPCMAWAia5u03ajOLwA8rhUAEQWAVuYCwEVGdX4B4GGtAIhtBaCVpU26xKjOLwDcrxUAcZloZOoecC8xovMLAEe0AiC2AJCpe8Cd60TA+QWA+7QCILIA0MzcTWBfZVTnHgAeDFXXDgArAMvYzxnVOQaAXYM3NhLnAQBEFgBGsrZJuw4P7y0Z2bmtAKQOagdAPMbqx7O2SX2hXmlkBQAAZjDeOJFk7FLA1BVGdu4B4A7tAIhHq9VMxuonsrZZbzo8vLfH6AoAAMy0CpC9wwDVULuN7NwCwL2hRrQEIB6j9eEsbtZ/PTy8N2d0ZxkApq4E+JaWAEQUACaeyuJmnR/q543u7FcAUl/XEoCYVgCOJa3snQiYer/RnVsAuF1LAOLRbDWSsYljWdy0Fx0e3uvGQHMIAN9IkmxGQQBObySbhwFS/yOEgLwRnkUA2DV445Ph5U5tAYjHiYkns7ppF4d6mxGe3QpA6m+1BSCiADCeBoDMLv7+3uHhvb1GeXYB4BZtAYhHs1XP8mGA1aE+bpRnFwDSEwGHtQYgHsfHHsvy5v3a4eG9HhX8TAFg1+CN4+HlK1oDEI/h8cezvol/GkLAgJGeeQUg5TAAQETG6sNJvTmW5U1cH+qP3SHwmQPAvlB17QGIx7HRR7K+ia8P9VtGeoYAsGvwxvRgkMMAADEFgLEfx7CZHzk8vPe1RvvMKwCpL2oPQDzSKwHqjbGsb2Y67/1FCAHPEwDObH/iMABAZKsAj8Swmd2hbgkhYIsAcBq7Bm9MTwn9a28HgHgcHX04lk3dEOorIQRsFABO74+8HQDikV4NMJrNhwOdzrZQX401BDxTAPibUA94SwDE48nRH8a0uWkIOBBCwLkCwCl2Dd7YCC+f9nYAiEd6OWD6mOCIbA31jRACXiIA/LTPhGp6SwDEIZ38I7gnwNOtTE6eEzAUywbnWq1WksvNfGOkW47sSS8JfKO3BUAcKsWuZGv/C2Pd/E+Ges+22tBEVjcwnfvzs/xaT1ICiMhY/XhyPPvPBziT/5KcPCRwfvQrAFOrAOlTAl/qbQEQh85yX7Kp96KYW3Ai1DXpisC22lCmDoXPZQUgdZ23A0BEs9/4E5OXBcacgUJdH+rrh4f3Xpy1jZtLALg51F3eEgDxeOzE/ZqQJC8K9U8hBHwq1OqsbNSsDwGkbjmy51fCyxf8WwCIRS7Z2v+CyZMCmXQ81B+Gum5bbejR5boRk3P/HANA+oX/FOpi/wYA4lCrrEw29FyoEf82CHw21CdCEDiS+QAwFQJ+MTn5oCAAInFyFaCmEaeZS0N9OTl507ybl8ulg/MNAOkX/32o5xt3gFhWAQaSDT07NWJmT0ztIO8LdWsIAyOZCgBTIeCy8HLAWAPEI70kML00kFkZDXXbVH0t3XFup0Aw7wAwGQIOv+0vWknyJmMMEIf0RMBzBtK7A+Y0Y+7S+wh8L9TBqdf7QqWXWDw2VenqQXo4YTQEhdG2DgD7Dw29eGJ07BvpnwcgDpvXXJSs7jtHI86u9ElM6Q0YHgp1T3LyEvz0ZnwHQjg4uuQBIHXTwSu/MjE2frmxAohDsVBOdg6+OikUSpqxNKsI6SGFz4XaF8LAsSULAH9515t7xkdGH2k2m2XjAhCHlb1bkq1rL9GIpZWuBNyQzPN+BM86AKT237n7N8dHx/6XsQCIx/mbL0tWdK7UiKWXHir4cKjr53IJ4oIEgNS+b19xV31i4gLjABCHjnIt2XHO5WH+yGtGezgU6ooQAg7ONgAsyMgVioXX5PL5pv4DxGF0fDh58NG7NaJ97Aj1d4eH975ttn9gQVYAUvvv3P3+8dGx/24MAOKQzh0XbP53SVfVvQHazLWhrtlWG2rNtAKwYAEgte+OK+6oj0+4VRRAJCqlrmTHOa9I8vmiZrSX9ATBd54pBCzYIYBphULhFflCfkzfAeIwNnE8uf/hOzSi/VwV6iMzfcGCBoBf3LH3sWK5PJTk3CUKIBaPHr0/eeLYgxrRft430zkBC3oIYNpNB6/8/MTY+BV6DxCH9MZAz9368slDArSV9LbClz796oAFPwfgVPu+/Sv31ifq2/QeIA7VSneyfcvPJvl8QTPaS3qJ4CWn3idgwc8B+Kk0WCq+MF8ojOg7QBxGxp5K7vvRP2tE+0kvEXz30z951lYAUvsPDb1sYnTstvB3OCkAIBKb1uxM1vRZAG4zx0Ntnb5t8FldAUi9fsfeA6VK+Tf0HSAeDzx8Z3L0+MMa0V7SkzPeu2grANNuOnjl/54YG79K/wHiUMgXk/O3vCzprPRoRvtIHyC0KX2K4FlfAZj2hp2ff0exXLpV7wHi0GjWk3t/8I1kvD6qGe0jTWO/NP2LRXuKQ7XW9coQAtw4GiAS6eR/7wPfmAwDtI03T3+wKIcApu0/NFRu1OtHGhP1DcYAIA61an9y3uaXJvmcywPbQPrgvv7Brt1HF/U5jq/fsXe8UCxeEOoRYwAQh+GRx5Pv/eCbSavlobFtIJ33Xzb9waIKIWC4VCmFEFB4wjgAxOHYiR8nhx/8OyGgPVy2JAEg9brt/+eJQql0nhAAEI8nh38kBLSH7UsWAKZWAh4tVSqDDgcAxBUC7n3gW0mz1dCMpXPekgaAkysBn3uyUCpuC+UxUgCRSG8SlJ4T4OqAJbNuyQPA1ErAcKFYHCyWS981JgBxSM8JuOcHX0vqjXHNWHy1tggAUyFgvFrr2h5CwFeNC0Acjo88kdz9/f+XjI4Pa8bimrwec1HvAzAbNx288oaJsfH/bHwA4lAslJNzN74oqVUHNGNxNAa7dhfz7fZdvWHn568qd1R+I4SSljECyL70MMA99389efypBzRjcUwuueTb8Tt7/YV/9geljsrP5guFEeMEkH3pVQFHfvgPyQOP3Bl+Zf/vLHuobQPAZAjYsfdAsVzaVCgVjxgrgDj86PF7k+/en54cOKYZZ889bR0ApkLAY2+86M+3lSrlLyRtdJ4CAGfPsROPJt+576uTJwlyVtzV9gFg2ht2fv7KcqV8RT6fd70IQATGJ0aSu+8/kDz0WLqz6pDAArs9/U/bXQUwk/2HhlY2641b6xMTFxo/gDjUOgeSwXUvSMqlqmY8ez95GuCyCgA/CQJ37v7QxPjE+1vNZt5YAmRfoVBKtqy5KOnv3qgZz86t22pDl0/O/csxAEytBmxp1ht/W5+YOM94AsShp7YmBIGLrQbM31tDAPiTZR0Apt10cPd7GxMTH2k2myXjChDBakC+mGxY9dxkdd+gZszN0VCbQgA4lokAkPrSd361t1Fv7K9PTLw8aTlZBCAGXdX+ZPOanUlXR59mzM7/DJP/+9IPMhMApu2/c/dLGo3Gnzcm6puMM0AcBno2JRtX7UhKxQ7NOLPjobaGAPBoJgPAKUHgHfWJ+seajUaXMQfIvny+mKwbeE6ypv/cJJ8raMi/9Vth8v/Y9C8yGwBStxzZkxs9PvL7jfrEbzYbTbEQIALpKsDaEARW9W4VBP7VoVCXhAAwEUUAmLbvjisKYfs+0ajX3x6CQMW/A4DsKxerybqV5ycrezaHOS7qK8ZHQ10aJv+Dp34yigAw7ea731KoT9R/PwSBdzYbjRXeHgBxBIHV/YOTKwKFfJQXi+0Jk/+nn/7JqALAqfbfuXtPo974YAgD7igBEIH00sGVIQSs6dsW0z0Erg2T/9Wn+41oA8BPgsChoRc3G41rQxC4rNVsOVgEkHHpfNfTtWZyRSC9qVD4TFY39YZQ7wwBoCUAzLwiUAl9uKbZaO4JYWC9twhA9pWLHclA75Y0DDTKxWqWdgKvDXXNmSZ/AeDMqwKDrUbzQ81mY1ej3ujXEYDsS28q1N+9oTXQvXG8WKgs1xPG0xP+3nW6Y/4CwNxXBi4I/fntZqP5qmajsbblLoMAmVerDiR93evrfbV1Y+VS53K5n0x6qd8VTz/bXwBYmDDQHXr1jlBvDIHgwhAI3FsAIOPSEwZ7a2ubfSvWD3dVB8r5XL7dfvand/j7UKjrT73OXwA4u4HgnNC7/xTq1SEQbG81m71WCACyLJdUK7Wku2vVWHfX6uGujv5CsVDuXaJvJn2wT3qi33XTt/edCwFgIQPBoaFy6OirQj9fE+rSVrN1TggFA55SCJBdhUIp6erobXZVe493VfuPd5Z7klKxWgvzau0s/HXNULeF+lyofelT/eb7fyQALIKbDl7ZERp8adJKnh9aviP0ezB8vCq89oQK/0BaHWEISmE0CuHXBgIgC8EgX0wqla5mR3nFWEelNlIpdo6VipV6sVBphsqH3y/lc4WOJMmVklwSfvj/VGBohBoO9VCoe0LdFer2UAfCpH90Ib6/nwQAACAuAgAACAAAgAAAAAgAAIAAAAAIAACAAAAACAAAgAAAAAgAAIAAAAAIAACAAAAACAAAgAAAAAgAAIAAAAAIAAAgAAAAAgAAIAAAAAIAACAAAAACAAAgAAAAAgAAIAAAAAIAACAAAAACAAAgAAAAAgAAIAAAAAIAACAAAIAAAAAIAACAAAAACAAAgAAAAAgAAIAAAAAIAACAAAAACAAAgAAAAAgAAIAAAAAIAACAAAAACAAAgAAAAAIAACAAAAACAAAgAAAAAgAAIAAAAAIAACAAAAACAAAgAAAAAgAAIAAAAAIAACAAAAACAAAgAAAAAgAACAACAAAIAACAAAAACAAAgAAAAAgAAIAAAAAIAACAAAAACAAAgAAAAAgAAIAAAAAIAACAAAAACAAAgAAAAAgAACAAAAACAAAgAAAAAgAAIAAAAAIAACAAAAACAAAgAAAAAgAAIAAAAAIAACAAAAACAAAgAAAAAgAAIAAAgAAAAAgAAIAAAAAIAACAAAAACAAAgAAAAAgAAIAAAAAIAACAAAAACAAAgAAAAAgAAIAAAAAIAACAAAAAAgAAIAAAAAIAACAAAAACAAAgAAAAAgAAIAAAAAIAACAAAAACAAAgAAAAAgAAIAAAAAIAACAAAAACAAAIAACAAAAACAAAgAAAAAgAAIAAAAAIAACAAAAACAAAgAAAAAgAAIAAAAAIAACAAAAACAAAwAz+vwADAJ3WjsZxJ49mAAAAAElFTkSuQmCC;clipPath=inset(29% 0% 29.33% 0%);" vertex="1" parent="SjB44mdSJOXD2yQ44_Wg-23">
          <mxGeometry x="371.99" y="113.94" width="50.54" height="21.06" as="geometry" />
        </mxCell>
        <mxCell id="IqXkSeY8LU8EEEE8MS7V-71" value="" style="edgeStyle=orthogonalEdgeStyle;rounded=0;orthogonalLoop=1;jettySize=auto;html=1;flowAnimation=1;endArrow=blockThin;endFill=0;strokeColor=#4D4D4D;" edge="1" parent="SjB44mdSJOXD2yQ44_Wg-23" source="IqXkSeY8LU8EEEE8MS7V-36">
          <mxGeometry relative="1" as="geometry">
            <mxPoint x="573.713488372093" y="111.44" as="sourcePoint" />
            <mxPoint x="435.51581395348853" y="74.56000000000006" as="targetPoint" />
            <Array as="points">
              <mxPoint x="535" y="94" />
              <mxPoint x="436" y="94" />
            </Array>
          </mxGeometry>
        </mxCell>
        <mxCell id="IqXkSeY8LU8EEEE8MS7V-36" value="" style="shape=image;verticalLabelPosition=bottom;labelBackgroundColor=default;verticalAlign=top;aspect=fixed;imageAspect=0;image=data:image/webp,UklGRuQWAABXRUJQVlA4WAoAAAAYAAAA/wAA/wAAQUxQSJwOAAABwMf/nyHZ1b5VNcHJjY1rO7btXNu2bdu2bSP2tY3Ydk5yuqq+nz/OzJ7d6Z6ax09ETICGPaRR1MQ11r3b3vd91svf9LkfHnfK3y++ZnmutnG++brLLzjjj6cf/c1PvO1lT3vQvvfafM2giWkUg9o9jqLGLrvbwU9589eOP/PaFSyiWfXuhvN/9b0Pv/xRe91qDY1NscVCipKUbnvkiz550sUdk2vuulxKqZ6IV661lpJz1+VqJi8/57iPPu+ATSQpxbYKSZLW2vU5X/rbzYx17nKpnswi23hsLbnrCuOvOfF1u4+kkNopRUm3fdJXzmNld7lUj2WKbWy7li4b4G9v2VpSaqMk6VbPOmE5QM7VNjZ9tbFdOkP98VFSiO0Tg7T/l68HSq42Nv03ds3AL+4jpdA2IUn3PRXIxcZmMI2dCxy7vZRaJkq7nAg129gMq41LwW9dTaldkkbvhFJsmwG2cYY/bqMYGmWkO/4WZ2Mz0DbuyE+QQpOMtMfVdMZmwG0yvE2KDZK0d0eHzbDb1MLnpNgcSfe8gYzN0Ns48xUpNEbQWn8nYzMDjTs+odaM+jAdNjPROPNqpaaI2h3bZkaaau6j1BJBPyVjZqYpXHFLxXaI2hXbzFDT8V2FlvgYecbYhQcrNYPWuZBqZqop/GMNtWLSIVTPGEzmGUrN8GY6M3MK/1hdzXg0hZlrFx6k1AjLLqJ6BmW+q9AEQXfpMLPX5tqtFFog6kA8mwqPVGqBpMdSZhF0fLQNRnop3Uxy4ddBbfCaWWWu2UihAZLeM6MwZTvFBoj6JHlGmSOVmuBzZGZT4dFNEPTlGfaURvj6zMo8Q6P/99//DPIVbup6XHH7/Zh+V1pPetSH3vGu3r7nzb+ltl/P30LXfjH1eA29dx7oddK7/5NvpPe0UUyjUQyNExY9plGKoU8hJQ37OwdjyUehJylK0jrbPeBFb/r0t37wwwH+0XfOog5B0C2/9u1vfmsxv/m1z73/lY/eeT1JIU1fSJI2OvLtJ15RGXIzDPdkSX3ZT150N0lpumKS1nno1y5n5dp1OecyxLniYbjb8poXu+sKQPfT+0kxTE9I0h3ffh5Qu1JtY9Oaq7ICs6g2tmvOwC8PldK0JOmOn7gZSq42pk2nZKyNnQt8aWOlqQhJa79lOeRq2zTrNAE2LoUL9lWcgigdfhZk26Zlpwxs3MGTFJYsKb4fOmPTtlMHNgVepLhEI936l9SCTev2AJtqnqe0JCPtfBmdsZlDsKnmoRotwUgHraDDpoF7gU2h205p0UY62GRs5hVsMn9fS2GRRtq1I2Mzv2DT8RHFxUm6/RVkbOYZbFcOUFqMoNV/R4fNfIMp/CFpMaM+SYfNvIPJPEtp1ZIeSrHNPFQ5fz2FVQna5BIKZg7CZF6stCpRn6TDzEeunLO2VjFqN2zPSdiZJyotLOgYMmZeovALLTzpQKrNvIRt9lJcSNBPyMxVmY8qLSBqR2wzP+HKRetpgUkfIc9ZLjxQaULQhpdQzTyFM59VnJD0SIrnrcr5a2ti0NfJNLczT1/A3bvpc+UQpTFBG15OdXsVnqQ0JmqbPHW44x0Tko6iuskesYBdPX0UfqnxSW+nM+1lDlWccBieOpubbqewknQ6hQYjbz0h6TGUqcOFRylJCtr0OuzmcuWqDRTGjPRKuumj4wNjkg7Fpr0KvwoaH/VpMlPvwq+08kivoWswOj6mOE76BcXTZ268pYIkfZ9Mc9uFxyuNCdr0Gsz0u3J/JUnLLqC6wbjp9gpjkg7Fveh4k0aK2rpg2rtwoiYmvYmuDxR+JCnpMZT2sjPPVBon/YpCD1258BYrvYeO9qpcuYXCmKitK3YPMHU7RekYilvLZD6kpLFJryObXhQer6RlF1JbyzYr7qo4Tqv/g0o/O96lpHtkTGvR8SEljU26P8XuhQs/kfRgamuZyhVbKIwLOoFCP105b5n0crrGsp15qpLGJh1EtfuB6e4ifYZMU9t0/EBBk0+m0BtzpHQKxS1lk7lwM8VxIz2cYtOXzPO07GJqS9kUvIeSxgatczaF3tDxYd1qOaadbQo8TCONT/oAGdNXF47WXrSUTYEnKWn8SIdS7R5V/rnaQ6ntZOjgMYoaH7XZhRRMf821G76ErpVs3HH1wUoaH6TjyZhe5Xu/qZVsnOEXd1DS+BD0ETLulzn8y+QWsu1cKa8PSpoY9SqKMb0qPOEYSvMYu2bDj7aWosaHqOdRjelXx0tPo9CqnlhLZ+CYg6SkiVF6Ma6Ynne89wzqEBnbteTc9T4Xs/I579tRClETk/R2XDE9d+YrV+OhsbFLVxnMfOlxbz5gLSkkTR5p2depFfevcPSKoTF2LgArLjntu5959xte/Zpev/KFTzzyXutIUoqaHKV7/5lsbHpf+HkZFBvXDNx40psecNdlGs4UtcCQpGfdTGfMAFb+7iGxqRmW/+Dxt9bYENOo9ylFLTgkaZsTIGMzhObCAbGpGc5+3R0lKaWgAY5J2up9hVyxGYgrMMNo4wxnP2NtKaSgIY5J0m3fehVkYzMU1xoPgk0tXP+KtaQUNLghppEkjfb97PWQjc1QmpvrMNhk+M5tpaSFhjhKwzB23QPe9lcgV2yG0+Q8CMYdNzxOGgVNDqOgsaM1ljgt+WprrH3L3R7xph9eAjjbNkNqbrphCIwzv7+zYtTkGCWtv/ez3/+9k/7y7zOW8swzfv+73y/xX864YrkBnKttM6zm+osGwLjw1dU10uQYpK2e+t0rGM7S5WpjBtdc/Qdq30ytvEtKmhiitOcXrwPIXS51qcuS11ptGzPI5qITKO6XceU1UtTEJO11NJBztbFp2so/ftA348JrFYLGh6gtvwjONjbNW/nlB8n02SbzXoWg8VF65BXUbGwa2IVjX0XnHtl0fEsKGp8UPwadsWliZ77ydHKvyPxlTUWNT9rwVErBppU73nMo7pGprLiXksYn3fIfdMamld3x4m0LfXLmmRppfNKWZ9Jh084uPHKD63pkMscqaHzUun+hw6alYO/V/k51b0x3D8UJ0rF02LTVTbfR98l9MZm3K2l80tvpsGlpV85bU++ho6+VSzdRGJd0KNWYtiocLz2T7H7YmVdrpLFB65xNwTR2x4ekA3BfKldtoTAu6R10mMZ25unSljdi98HOfFhJY6PuugK7vWBPKf2V2hOzo+Kkz5Ixje3KlRso6Otkeln4lSZG3XkFNs1dOFEa6VV07oMzr9BoXNLbyA3mjrcpJR1F7YMNOyqO07KzqKa9KvdVCrrVcuweVM5YXeOTjqC6vWyu3lRBSn+m9oDMFxQnfYjOtHfhGEmK+gyZ6Xfm+RqNU/obtcGceYVG0kjPJLsH5lDFMUF37nB72bCTohS1k7Gnj5vvqDAm6SFU096VvySNXesi6vRVrriFxo/0SroGc8c7lVYK+i6ZHvxz9QlRnyHT3LbZT3GlkV5K9tQVTtQCf0Rxc1H55+oaG7Ub2NP3k4WcRKG5nXmn0hhpzbOpvUq/azDb7KE4LuoT5B78eAGjP1Obi8IfoyYm3Z9qz1V25lVKE6T1LqbOW+S7K06K+gTZnqfIHK2gyUn7Uecqu/BwpQVI+j2FOYrKeetowUnPINtzk515i9KCgja4iDpPsfyOCgtS0mvJeE4ymS8qauFBm1xGteckm11WSUkvJTMfmcx3FbWqQcv+RcFzkc0ui6Ck+1Jszz8m80VFLWLUl+mYf0zlxjsuTtBGF1DwnGPT8UolLWrS/lDxnEPmd1GLnfQCsvE8Yyp1e6XFUtCHyMbzi3Hm2UpaAn2BbOw5xbjjkwpawiB9llKx5xLjjh9raRSkt0EGe+6wqR3HrKaopQ3So5eTK/Z8YUOGr0ZFLXnSXU+Grtr23GDjmuFVUtQUJulpF0LJXnkOsLFLhj/sKQVNZZTWf9lZQOlK9WLnobDx4NfSFeDsZyclTW2S1nrE969lrGtZzBX8cDjqoJuxNx33uFtISVMckqQtHvLeEy+5mUU/YRjADP2Ky3/x8SfcQVLStKcgSctuv88hD33sYj7mSQcMg83rDn3A/Qb7/vc7bPc7rRMkKamPISVNZ9921/DHFNTjEGNa5DgYh2j1NOAxBs3Avh2kqNb/j5805x2g9u/b4VprjR7HeeDiM87q7ZlnnbOrYuOB6ff+zWdTe1wq+zZfz+3/999/B9ivEf5ImVGwTxvo5zNst0Y4muIZ1d27CYK+Rp5VN26u0AAjvZmOWezK2WuoBZMeS/EsonC0mjDongV7Brnj7UotII3+Tp1BduW+jZD0Xjp79lSu2FihCaL2xLPHznxZUa34KwqeOZXDlRoh6VFkzxhT+K0aMvyegmeLMw9Xaoakwym2Z4jJnKaWjPoiHfbMMIZdFBsiaMPzyMwMm47XK6klk/aEimeDTcfxas2kJ1Ar9gyw6ThzY8XGUNRLqRV78Gw6rriLkpoz6JVQsAfO0HH51hqpQYOeCRl7yGzccdZdNVKTRt3nBjpjD5ZNqZy8iUZq1KS7/g4X8DDZuIP3SEnNOtLoXZAr9vDYOJvzj5SiGjZJe/8ROmMPi41LgY9uqBTUtCEpvegKyNXYg2HbpcBJe0hJzZukLd51A+Ri20NgY+cKv3mglIJaOEm3fdcVUHM1ds+MXTJw6oMkRTVySNIWz/8TULKN3Rcbu2Tg2i/sLSmpoUOS4hFfvBIoXbWxp87YNWeg/uy5t5SU1NghSdrsCd+9CiDnamNPi41dc2eg+8Wrt5YUo1o8RUmbPvwT/2LlnItt7KWxsV1zNsBF33rWXSUpBbV6SEHS6ju+6JsXsLJzV6ptY6+K8cq1dNmsfNmPX7PvOpKUoto+pChJy3Z+9id/v5zxtetyKdWTay05d7ky/sY/f+lFe60nSWEUNBfGUZCkcMuDn/Ox489dzuL7xrOO/fBzD9oyaeVR1FwZR1Fj17jl3g954Vu+fsypZ12zPLtbvvz6S87446nf/ugbnvWAXbZYQ2PjKAbNSFZQOCBgBwAA8C4AnQEqAAEAAT5tNphIpCMioSTQ2XCADYljbr3AR/m4z3YNf0n9w2CfyX5gfkz1rvO3hLoPkG9kudz+7+pT9N+wB+oX68daHzAftN6xX969XX919QD+lf47rVPQg/c705vZn/cj9xvaK//+sxbU+xmUDEHs8DGrb9dK1AU3JT9wh9pvt11wY/hEsWNEBlY1jcl/+sBBu09qhayn/gVlo+rBIlUgZ18SbXbzn+QdlRD+k/2y5o1RV1KSfcwhdNmrKbYVvb355x3WFWGVBvT/4SYu9Hpx8H4FjEPaaPMfAsPkeiCRGAT5zPkHsiRG6/VeHrdpSPb9C5+N8kh/AMI2qnavbaANWmMXcYODOQeJL5/4Fekkice939DuUEquoqxqnXKR8f7U6KCtR9LYfYP92bB3vb6U8uXfEnQZRLUkmidifKS3CQ6hAlFOrBgpcqPX5clO1wpyDp3rAo5MI58QaMsO+vsBLMhlLxC9UwYH4uk+IWdnSjJ7r29XVGak0ERAAP3dwRVm5/31A/MXlMPy3MtlqrIaXWLI4Q11kPaFWbO2AumvKBCzh+DZHbQGAegpNOhopJBPYpRnndNDv8/98vHZBQ9q0Za/yxTwBu/vqCmCR1vdXFq+0e4Sx2t+1xdKRthhmQEdg6A5kC6jBMMPiNFyQF+VwfahovNBSXP5R6qjKsA5QlRREb1mmSFUNGXfc4XAYgTRMtcb9lnwmjsCWcBuXaXcOlPa6mUYhFPr7/WAAW1gy3Oz8osi/OkJ148oAXtzJYkbAcEePD3jAZ7WrUdim8qbJaZUysh5k6qOvXjJZd1AejxhUYgOfDMFXsthyerNity+ke+jXKD4hs/N5c/+uqwYpXbZ1YnRkY2j+E7LeQb6FTNPpbcQAHoV52PJQI7lwA4v32ZmP5rVyJHtFFl2yl5nBSd/Mzzoj/FM6XB00Q5nY8IAUfrZ6KtOvywuzeLtGj4ZY///5SxFrlBiQbKxb8mcYueCwmvbT9YvUUTwl5WCjWtZ848Kj73LIle/mbqW3+NklxBNaXgwSm44ZxXEO35IQanxV56sAAAH5LAbMjYprcAs+CXAZO3tVZ2ypGvb7UAALT0+ww2FilG/fb/Wc77yzZJaQp0u/WwxlZy9KBara1/+2LB0IVqlt0OV5K8AAALAVH8m3+QzCMggR19tnhKYHtxZu9vox5VEQlpSfqaXEQADxaxhGDLoVVHCwcEFEXFRqrP3xpcxcX/nsDjFV/9bVf6PxG5MtX03MaThCkYsVs62qIXGoj4+Ja+E8K8wMJyDHR/3wEjrKv9B/8SHwqhxUkpknrlMFuBepQ2TY/heDa0w2dR/aFMVy7O2nm755vA7j0+U5Zx5iZz7dY+BwuECSwhbvFXcUhvqCWcbgNoD6cx1I+5bV8bl1YNTIufz0N0Za3kCP80doH/AiCyuZvTzvfRt1KKDtCbmVm0Bt42Fc6Kf9P0xkfdVyftHtf/OgUPje1tPd31Onww3m6S8z2b14FqqirOAXCJdbv1Plq621E1NpjPfqykmp0MeGdnBPBnQSAYwxnrqMEAFqLSc05wevYlg9X5zjCnwuUok4/Xr/vcTMT7SllvmxGl1hdvamFdz8XdbkPLtjA2Bb4AhSLknHgEkxIKj9YY31i+Vn8tt/2qGHc1BCQVgz04BittDOgP4aXKDZcQOLQ94aCtrmwACiUo5cn09DBAkRkkXEpxNei52MFWbZ6o5bBmPEDQTc4c0zfAHGQQmvO+5RuN0IKORqmryP0EScd5bjhAMRe9+1eYMr/4CkQcAby8jtUEmMvL0dML3MIFmSLpXBLERWdgr//V///UsP/9qOvnCana0l9t7wwJd2A5fEFB2tA2yFjYGBLg6QwoWJX1+CF79AzSSz9fBiUVLZ2rKL/57f//ZUP/2Sp//2PcLuRCNd97F58HR4oj9oH/RwnGb/8YRFGZARBDCfDpCpBS+5c/n+2cz1065v2WYCnfjg6XmrJ9v//8DY/+e9TPxhfhFlzBLF1rl5MI1mv3G7Q3OIrCIKLpwqAPasVRTWmJGcqrKdiYaUIcPv9ObmdO+HVAn9Wj9ZMMJev4rTRquJ7oyJm1cu5sOQUll8WhqEGYf4dIo9NoAXJ5bMUKDoLenWuRRXDBmy8Ug9ltbMdh5G7itbj/sBLp4B2sSKsUA4jZdX7W5JHx74Z996LNm9NJ/l0UYKXAKz5oa9OaDSEzaG2/2Ma8zX/KUb1ntSgrR6ZgHDLhNJcxnWL6WjOoLc/v1oacZ0HDSxDPW/bNWTVUyi/2/e6iGG6/lc/3MT0HVoWi8KJ3//4G5QuyL7eyV7/w+SDMhDfuvBIEQBp7Cnb+NuA8SxE/cJcbS/SdScIQOBsdWX1Xdqp3bNt46O736mGDkI8AoPfWZdK4gOrLkiGftgDqlawuQUk5dokcKa6+GL7EJV0aUo/FTKWMLZ9WzgaxRFN+kG3kH9Xy7THZTgHkkgUUDdiHVG77Mt6C5/+Lko69BT+UeZMHUsLjB7+GIeMyV0AAAAEVYSUa6AAAARXhpZgAASUkqAAgAAAAGABIBAwABAAAAAQAAABoBBQABAAAAVgAAABsBBQABAAAAXgAAACgBAwABAAAAAgAAABMCAwABAAAAAQAAAGmHBAABAAAAZgAAAAAAAABIAAAAAQAAAEgAAAABAAAABgAAkAcABAAAADAyMTABkQcABAAAAAECAwAAoAcABAAAADAxMDABoAMAAQAAAP//AAACoAQAAQAAAAABAAADoAQAAQAAAAABAAAAAAAA;" vertex="1" parent="SjB44mdSJOXD2yQ44_Wg-23">
          <mxGeometry x="522.9399999999999" y="111.94" width="25.06" height="25.06" as="geometry" />
        </mxCell>
        <mxCell id="IqXkSeY8LU8EEEE8MS7V-103" value="&lt;div align=&quot;center&quot; style=&quot;font-size: 6px;&quot;&gt;&lt;font style=&quot;font-size: 6px;&quot;&gt;Running on Uvicorn&lt;/font&gt;&lt;br style=&quot;font-size: 6px;&quot;&gt;&lt;/div&gt;" style="text;html=1;align=center;verticalAlign=middle;whiteSpace=wrap;rounded=0;fontSize=6;" vertex="1" parent="SjB44mdSJOXD2yQ44_Wg-23">
          <mxGeometry x="246.52" y="135" width="60" height="14" as="geometry" />
        </mxCell>
        <mxCell id="IqXkSeY8LU8EEEE8MS7V-105" value="Celery &amp;amp; Beats" style="text;html=1;align=center;verticalAlign=middle;whiteSpace=wrap;rounded=0;fontSize=6;" vertex="1" parent="SjB44mdSJOXD2yQ44_Wg-23">
          <mxGeometry x="368.5210000000001" y="135.00100000000015" width="60" height="14" as="geometry" />
        </mxCell>
        <object label="&lt;font color=&quot;#4d4d4d&quot;&gt;Static Content&lt;/font&gt;" logo="" id="IqXkSeY8LU8EEEE8MS7V-3">
          <mxCell style="rounded=0;fillColor=none;noLabel=0;verticalAlign=middle;align=center;spacingLeft=0;fontColor=#232F3E;dashed=0;comic=0;fixedWidth=0;part=0;textDirection=ltr;horizontal=1;whiteSpace=wrap;html=1;spacing=1.9685;strokeColor=#4D4D4D;" vertex="1" parent="SjB44mdSJOXD2yQ44_Wg-22">
            <mxGeometry x="91.25999999999999" y="209" width="124" height="39" as="geometry" />
          </mxCell>
        </object>
        <mxCell id="IqXkSeY8LU8EEEE8MS7V-24" style="edgeStyle=orthogonalEdgeStyle;rounded=0;orthogonalLoop=1;jettySize=auto;html=1;flowAnimation=1;endArrow=blockThin;endFill=0;strokeColor=#4D4D4D;" edge="1" parent="SjB44mdSJOXD2yQ44_Wg-22" source="IqXkSeY8LU8EEEE8MS7V-3" target="ZdfeFCO9iQw0SIt7HIkc-2">
          <mxGeometry relative="1" as="geometry" />
        </mxCell>
        <mxCell id="SjB44mdSJOXD2yQ44_Wg-24" value="Private subnet" style="points=[[0,0],[0.25,0],[0.5,0],[0.75,0],[1,0],[1,0.25],[1,0.5],[1,0.75],[1,1],[0.75,1],[0.5,1],[0.25,1],[0,1],[0,0.75],[0,0.5],[0,0.25]];outlineConnect=0;gradientColor=none;html=1;whiteSpace=wrap;fontSize=12;fontStyle=0;container=1;pointerEvents=0;collapsible=0;recursiveResize=0;shape=mxgraph.aws4.group;grIcon=mxgraph.aws4.group_security_group;grStroke=0;strokeColor=#00A4A6;fillColor=#E6F6F7;verticalAlign=top;align=left;spacingLeft=30;fontColor=#147EBA;dashed=0;" parent="1" vertex="1">
          <mxGeometry x="628.74" y="728.88" width="384.015" height="236.22" as="geometry" />
        </mxCell>
        <mxCell id="SjB44mdSJOXD2yQ44_Wg-33" value="Security group" style="fillColor=none;strokeColor=#DD3522;verticalAlign=top;fontStyle=0;fontColor=#DD3522;whiteSpace=wrap;html=1;" parent="SjB44mdSJOXD2yQ44_Wg-24" vertex="1">
          <mxGeometry x="81.69" y="28.11" width="220.63" height="180" as="geometry" />
        </mxCell>
        <mxCell id="SjB44mdSJOXD2yQ44_Wg-25" value="" style="outlineConnect=0;dashed=0;verticalLabelPosition=bottom;verticalAlign=top;align=center;html=1;shape=mxgraph.aws3.rds;fillColor=#2E73B8;gradientColor=none;" parent="SjB44mdSJOXD2yQ44_Wg-24" vertex="1">
          <mxGeometry x="156.01" y="77.61000000000001" width="72" height="81" as="geometry" />
        </mxCell>
        <mxCell id="SjB44mdSJOXD2yQ44_Wg-34" value="&lt;div style=&quot;font-size: 12px;&quot;&gt;AWS RDS Postgres 16.4 Instance t4.g&lt;/div&gt;" style="text;html=1;align=center;verticalAlign=middle;whiteSpace=wrap;rounded=0;fontSize=12;" parent="SjB44mdSJOXD2yQ44_Wg-24" vertex="1">
          <mxGeometry x="92.57999999999998" y="164.12" width="194.74" height="37.11" as="geometry" />
        </mxCell>
        <mxCell id="IqXkSeY8LU8EEEE8MS7V-76" value="" style="edgeStyle=orthogonalEdgeStyle;rounded=0;orthogonalLoop=1;jettySize=auto;html=1;flowAnimation=1;strokeColor=#4D4D4D;endArrow=blockThin;endFill=0;" edge="1" parent="1" source="SjB44mdSJOXD2yQ44_Wg-29">
          <mxGeometry relative="1" as="geometry">
            <mxPoint x="667" y="555.88" as="targetPoint" />
            <Array as="points">
              <mxPoint x="515" y="555.88" />
              <mxPoint x="667" y="555.88" />
            </Array>
          </mxGeometry>
        </mxCell>
        <mxCell id="IqXkSeY8LU8EEEE8MS7V-77" value="" style="edgeStyle=orthogonalEdgeStyle;rounded=0;orthogonalLoop=1;jettySize=auto;html=1;flowAnimation=1;endArrow=blockThin;endFill=0;strokeColor=#4D4D4D;entryX=0.988;entryY=0.534;entryDx=0;entryDy=0;entryPerimeter=0;" edge="1" parent="1" source="SjB44mdSJOXD2yQ44_Wg-29" target="IqXkSeY8LU8EEEE8MS7V-80">
          <mxGeometry relative="1" as="geometry">
            <mxPoint x="345" y="703" as="targetPoint" />
            <Array as="points">
              <mxPoint x="410" y="703" />
            </Array>
          </mxGeometry>
        </mxCell>
        <mxCell id="SjB44mdSJOXD2yQ44_Wg-29" value="" style="outlineConnect=0;dashed=0;verticalLabelPosition=bottom;verticalAlign=top;align=center;html=1;shape=mxgraph.aws3.internet_gateway;fillColor=#F58534;gradientColor=none;aspect=fixed;" parent="1" vertex="1">
          <mxGeometry x="487" y="693.88" width="45.04" height="47" as="geometry" />
        </mxCell>
        <mxCell id="SjB44mdSJOXD2yQ44_Wg-39" value="" style="edgeStyle=orthogonalEdgeStyle;rounded=0;orthogonalLoop=1;jettySize=auto;html=1;flowAnimation=1;strokeColor=#4D4D4D;endArrow=blockThin;endFill=0;entryX=0.998;entryY=0.613;entryDx=0;entryDy=0;entryPerimeter=0;" parent="1" source="SjB44mdSJOXD2yQ44_Wg-23" target="SjB44mdSJOXD2yQ44_Wg-25" edge="1">
          <mxGeometry relative="1" as="geometry">
            <Array as="points">
              <mxPoint x="1024" y="722" />
              <mxPoint x="894" y="722" />
              <mxPoint x="894" y="856" />
            </Array>
          </mxGeometry>
        </mxCell>
        <mxCell id="SjB44mdSJOXD2yQ44_Wg-37" value="" style="edgeStyle=orthogonalEdgeStyle;rounded=0;orthogonalLoop=1;jettySize=auto;html=1;endArrow=blockThin;endFill=0;flowAnimation=1;strokeColor=#4D4D4D;" parent="1" source="SjB44mdSJOXD2yQ44_Wg-25" target="SjB44mdSJOXD2yQ44_Wg-23" edge="1">
          <mxGeometry relative="1" as="geometry">
            <mxPoint x="838.0050000000001" y="736.5500000000001" as="sourcePoint" />
            <mxPoint x="838.0050000000001" y="650.875" as="targetPoint" />
            <Array as="points">
              <mxPoint x="876" y="845" />
              <mxPoint x="876" y="706" />
              <mxPoint x="1003" y="706" />
            </Array>
          </mxGeometry>
        </mxCell>
        <mxCell id="IqXkSeY8LU8EEEE8MS7V-73" value="Internet Gateway" style="text;html=1;align=center;verticalAlign=middle;whiteSpace=wrap;rounded=0;" vertex="1" parent="1">
          <mxGeometry x="477" y="750.88" width="60" height="30" as="geometry" />
        </mxCell>
        <mxCell id="IqXkSeY8LU8EEEE8MS7V-75" value="" style="edgeStyle=orthogonalEdgeStyle;rounded=0;orthogonalLoop=1;jettySize=auto;html=1;flowAnimation=1;strokeColor=#4D4D4D;endArrow=blockThin;endFill=0;" edge="1" parent="1" source="SjB44mdSJOXD2yQ44_Wg-26">
          <mxGeometry relative="1" as="geometry">
            <mxPoint x="500" y="696.88" as="targetPoint" />
            <Array as="points">
              <mxPoint x="500" y="542.88" />
            </Array>
          </mxGeometry>
        </mxCell>
        <mxCell id="IqXkSeY8LU8EEEE8MS7V-80" value="" style="shape=image;verticalLabelPosition=bottom;labelBackgroundColor=default;verticalAlign=top;aspect=fixed;imageAspect=0;image=data:image/png,iVBORw0KGgoAAAANSUhEUgAACgAAAANOCAYAAADdnlUXAAAABGdBTUEAALGPC/xhBQAAACBjSFJNAAB6JgAAgIQAAPoAAACA6AAAdTAAAOpgAAA6mAAAF3CculE8AAAABmJLR0QA/wD/AP+gvaeTAAAAB3RJTUUH6AcBCBYZSr/ElQAAgABJREFUeNrs3XmYZGdd9//Pfaq6e9bsCdm7exKSkElCIGENZEF2CVtCAEVUloiPiogLKlvNBBFE8REfFURccPsZkrAKCgoJBFkTFMzCkj2QfZvunq276/79MaBAFmbpparr9bquXJnp6TlV9T7V51R1f+c+JQAAAAAAAAAsCXe+Zc3u7c3dA9KUfUvt7ldSdqulrCy1rkzNHqXUlbWWlaVkdU12K6kra8qKmuxRkuVJlv2Im2gnWf3dX08nmUyytSZTJdmSlI0l2VxLd1Nq2VSSzTXZWGu2lJTJ0nTvSJrbu93u7WnKHem27miGZu5YMb3qjtK5bKs9CACwY4oEAAAAAAAAAL2r1pRNv3PwgTMzw+Ol1AOS7J909y1pDkzqfkn2S3Jgkn3zowf4etlEkjuSentKuT213lZrrmua5obU7g3dWq/blNXX79e5bNKzAgBgGwOAAAAAAAAAAIvszres2X14c3e8KXW8m6wpacZr6pok49/9b0Sl/82V5IYk15dar6tNuaEm1zdprto4MnTlvq/5+oREAMCgMAAIAAAAAAAAsEA2dcbGuqWurSnHJOXYpHtkUsaT7K3OXKk3puTKUnNFN+WKpF5ZarliVefam7UBAJYaA4AAAAAAAAAAc2zDmw/au0y3j0uaY1LrMSk5tiRrk+ymzqK5qyZXlpTLk3w9tXxlZmTmkj1+6/q7pAEA+pUBQAAAAAAAAIBdMNE5bL+mdB/Vrd1HlqY8MjXHJdlfmf5Qkqtq8uWkXFLT/fL0SOvSvX7z6nuUAQD65LUMAAAAAAAAANujvuPwkU13Tz+8W8sjkzwqyaOTjCuztHZzkm8muSSlfrl2my9vyopL9+tcNikNANBrDAACAAAAAAAA3I9NnTWHzjb15FK7j6wpj0pyfJJhZQZNnUnKV5Ly6ZJcND08e7FLBwMAvcAAIAAAAAAAAMB3Tbz58H0zPXtqqfVxKeWkpJ6gCvelJlen5t9KUz7bdFufXNH51o2qAAALzQAgAAAAAAAAMLDufMua3Uc211NqqU9I8oQkx8TPUdlxNcnlpZaLuqV+ug5N/9tuv/3tO2QBAOabF64AAAAAAADAwKidtCfL6ONLLU9OyROSnJCkpQxzbLYmX2xK+Wgy+7EVr7/+0lJSZQEA5poBQAAAAAAAAGBJq2970MqNG1c8oab7vKQ8I8meqrDAbivJhbWUj8wMzX54j9+6/i5JAIC5YAAQAAAAAAAAWHI2nTM63q3Nk2q6p6eWJycZVoUeMZuU/6ypH2lK98NWBwQAdoUBQAAAAAAAAKDv1XPT2njlocd3a3N6SXlGUk9QhT5xXWo+2E3zvtVvvPqzhgEBgB1hABAAAAAAAADoW1PrDz2hdpsXp+SsJPsrQp8zDAgA7BADgAAAAAAAAEBfmVh/6NrU5nlN8qKaHKYIS5RhQADgRzIACAAAAAAAAPS8DeeMH9nq1hfU5AVJjlKEQVKSq2rN+2paf7+6c9V/KwIAfN/rBAAAAAAAAIDes/FNBx/U7Q69MLW+MMnDFYEkqV+uJX81O1T/cY/fuv4uPQBgsBkABAAAAAAAAHpG7aSZyponlNI9u6Y+JyltVeA+bSnJh5LytyvqNR8rncxIAgCDxwAgAAAAAAAAsOg2vumwQ7qzsz+R5P8kOVQR2CHfSfK3s03znt1ff/U35QCAwWEAEAAAAAAAAFgU9R2Hj0zdNfPclLwsNafFzy9hl7+sklyckr9c2d16bul8Z6MkALC0eQENAAAAAAAALKiJ9YeuLbV5eZIXJdlbEZgXd6bWv2y18qfLX3/dNXIAwNJkABAAAAAAAACYd7WTZiprnpBm9pdTy4/HzyphoXRT6idLbd6x4g3XfKSUVEkAYOnwohoAAAAAAACYN7d21q5a2Wz8iVrrq5I8RBFYVN9M8p7pmnft2bn2bjkAoP8ZAAQAAAAAAADm3FTnkAO7pXV2SX4pyV6KQE+ZqDX/mHT/aHXn+svlAID+ZQAQAAAAAAAAmDMb1h96UivlVbWW5yRpKQI9rZuUj3VL3rrbG675jBwA0H8MAAIAAAAAAAC7pHbSTJax55XkV5M8QhHoPyX14tT87oo3XvexUlIVAYB+OYcDAAAAAAAA7IRtg3/jZ5TU9UmOUgSWhK+llN9f2b3mH0onM3IAQG8zAAgAAAAAAADskPquE4ambrnzhan1dUkerAgsSdck+aOVNe8qnWs3ywEAvckAIAAAAAAAALBdamft8MZm48/UbYN/hygCA+GWmrxzeqT5w71+8+p75ACA3mIAEAAAAAAAAHhA9W0PWjm1cdkrkvJrSfZXBAbySHB7Un5/Zd36x6XznY16AEBvMAAIAAAAAAAA3Kdtg3/LX5nkV5LsqwiQ5KZa6ptWdVf9RelctlUOAFhcBgABAAAAAACAH1A7aW9sxl9Sa+0kOUAR4D5cX0r5nRVHXfOeclZm5QCAxWEAEAAAAAAAAPgfU+vGT6+pv5/kCDWA7XBFTXnjqjdcc14pqXIAwMIyAAgAAAAAAABkQ2f0sa2St9aUx6kB7IQvlZRzVr7xmg9LAQALxwAgAAAAAAAADLDJ9eMPTepbUvNUNYBdVvLJ0m1es7Jz9ZfFAICFOPUCAAAAAAAAA2fjmw47ZHZm9nWl5KVJWooAc6iW5LzSav3qitdddYMcADB/DAACAAAAAADAAKlve9DKqY3LX5vk1UlGFAHm0USS31m5Z/v/lld+a4scADD3DAACAAAAAADAgJhaN356Tf3jJKNqAAvohpTyulVvuOa9UgDA3DIACAAAAAAAAEvchs7YUU2TP0rNk9UAFtGnUsurVnWu+aoUADA3DAACAAAAAADAEnVXZ2yPoWRdSv0/SWkrAvSAblL/vtb2r63uXHWrHACwawwAAgAAAAAAwBJTO2k2NuMvqbW+Ocm+igA96M5S8toV3Wv/vHTSlQMAdo4BQAAAAAAAAFhCNq4fe1S35o+TPEINoNeVlM92y+zPrX7D9ZepAQA7cy4FAAAAAAAA+l7tHLhiqgy/IcmvJWkpAvSR6SRvX1nTKZ1rN8sBANvPACAAAAAAAAD0ucnO2FNT8s4ko2oA/aokV9WUn1/1xms+oQYAbPf5EwAAAAAAAOhHd3XG9mgnby0lL4+f/QFLREneN1uH/89unW/crgYA/MjzJgAAAAAAANBvptaNn15T35nkQDWAJejOUspvrXj9Ne8uJVUOALhvBgABAAAAAACgj2x808EHdWfbf5bkdDWAAfCvrdqcvbxz9fVSAMC9NRIAAAAAAABA76s1ZXL9+Iu7s+2vxvAfMDieMlu6X5taP362FABwb1YABAAAAAAAgB63sXP4wd0y+9dJ/TE1gEFVSi7ottuvWP3b37pNDQD47vlRAgAAAAAAAOhdE53xM0up70yytxoAubUkZ69847UflAIADAACAAAAAABAT7qjc/huw5l5Wylx2UuAH1KS922tOXvPzrV3qwHAgJ8TAQAAAAAAgF6ycf3oY2otf1uTw9QAuF/X1ZqfWd259kIpABhUBgABAAAAAACgR9RO2pNl7HUleV2SliIAP/rQWWvevSpbf6V0vrNRDgAGjQFAAAAAAAAA6AET54w+pHTL3yV5uBoAO+zyWrpnrX7D9ZdJAcAgaSQAAAAAAACAxTWxfvwXS7dcEsN/ADvr6FKbz02sH3uBFAAMEisAAgAAAAAAwCK57a1Hrl6+ecu7kzxfDYC5Uv92ZZ1+hUsCAzAIDAACAAAAAADAIvjuJX/PS3K0GgBzziWBARgILgEMAAAAAAAAC2xy/fiLS7d8OYb/AObL0U0tn59cN/qTUgCwlFkBEAAAAAAAABZI7Ywtm0rempJXqgGwYEdflwQGYMkyAAgAAAAAAAAL4J5z1jy41e2+L8lD1QBYcF/tNuWs3V5/zdelAGApcQlgAAAAAAAAmGdT68ae1ep2vxjDfwCL5bimW7801Rl7thQALCVWAAQAAAAAAIB5UjtpT2XsbSn55fjZHEAv6JZSX7/i9df9bimpcgDQ77zJAAAAAAAAgHlw9+8eumd7upybWp6oBkBvKcn7VqzY9LPl12+ZUgOAPj+nAQAAAAAAAHPpns5hh7fK7IeTHKUGQM/6aqupz17++uuukQKAftVIAAAAAAAAAHNnsjP+5FaZ/VIM/wH0uuNmu+VLE53RJ0gBQL8yAAgAAAAAAABzZGr9+Nkp9SNJ9lADoC/sXUr+dXLd2GukAKAfuQQwAAAAAAAA7KLaSXtjGf+/NfUX1ADo02N56rtX1VW/WDqXbVUDgH5hABAAAAAAAAB2wYbOEfs0Zev5SU5WA6DvXTQz3H3OHr91/V1SANAPDAACAAAAAADATproHHZMKbMfSjKuBsCScVmrNk9f3rn6eikA6HUGAAEAAAAAAGAnTHTGTi0lH0iyuxoAS85NpdZnrOxcd6kUAPSyRgIAAAAAAADYMRvXjT6nlHwshv8AlqoDUnLRVGf06VIA0MsMAAIAAAAAAMAOmFg//ovdlPOSLFMDYOmqKatqyQen1o+frQYAvcoAIAAAAAAAAGyHWlMm1o11Sq1/HD9nAxgQpV1rfdfkurG3aAFAT56pJAAAAAAAAIAHVs9Na/KK0T8rKS9XA2BQTwb565UH7H12+blLpsUAoFcYAAQAAAAAAIAHUN/2oJVTG5e/L8nT1AAYeB9buWLT88qv3zIlBQC9wAAgAAAAAAAA3I97Ogfv1ZT2h0vyWDUASJKSevGWkdYz9vrNq+9RA4DFPy8BAAAAAAAA97KpMzY2W/KvSY5QA4AfVL/cHZp56m6//e07tABgMRkABAAAAAAAgB/y3eG/TyYZVwOA+3FFqbNPXNm54TtSALBYGgkAAAAAAADgf204Z/zI2ZKLY/gPgAf2kFpaF286Z9T5AoBFYwVAAAAAAAAA+K4NnbGjmpJ/T3KgGgBsp+tnm+aJu7/+6m9KAcBCMwAIAAAAAAAASSY7Y8en5ONJ9lUDgB10c0rz5FVvuPprUgCwkFwCGAAAAAAAgIE31Rl9eEr+LYb/ANg5+6d2L9zYGX+kFAAsJAOAAAAAAAAADLSN60cfU0v5ZJK91QBgF+zVLfVfN64fe5QUACwUlwAGAAAAAABgYG3orHlcU7r/nGQ3NQCYI/eU2jxxZefqL0sBwHwzAAgAAAAAAMBAmlg3elpJ+XCSlWoAMMfuSGlOW/WGq78mBQDzyQAgAAAAAAAAA2fj+rFH1Vr/raasUgOAeXJbrd1TV3euv1wKAOaLAUAAAAAAAAAGymRn/LiU+qkke6kBwDy7pVtz6m6da6+UAoD50EgAAAAAAADAoLjnnDUPTqn/GsN/ACyMBzWlfmLTOaPjUgAwH6wACAAAAAAAwEDY1Flz6GzpfjrJqBoALLDrW61y8vLXXXOdFADMJQOAAAAAAAAALHlTnUMO7JbWZ0qyRg0AFsk3S7uesvK1190kBQBzxSWAAQAAAAAAWNIm3nz4vrW0PmH4D4BF9uA6Uz6xoXPEPlIAMFcMAAIAAAAAALBk3dE5fLcyPfuxJEerAUAPWNuULR+7tbN2lRQAzAUDgAAAAAAAACxJtXPgipEy8+GknqAGAL2jnLiimfqn2klbCwB2lQFAAAAAAAAAlpx6blqTZfgfkpysBgC9d6LK06cy+le1pogBwK4wAAgAAAAAAMCSs/GK8T8qybOUAKBnlfKiyfWj64QAYFcYAAQAAAAAAGBJmVo/+ts19ReUAKDXlZTXT6wf/0UlANj5cwkAAAAAAAAsERPrxp5fkn+Mn4MB0D9ma61nre5cd4EUAOwob3wAAAAAAABYEiY64yeXUj+eZEQNAPrMpm5tnrxb5+qLpQBgRxgABAAAAAAAoO9NdA49upTm4iR7qgFAn7qjW/O43TrXXikFANvLACAAAAAAAAB9bep3Rg+oM+VzSUbVAKDPXVtr61GrO1fdKgUA26ORAAAAAAAAgH5VOweuqDPlAzH8B8DSMJYy+/76jsNdzh6A7WIAEAAAAAAAgL5Uz01rqgyfl+SRagCwVJTksVN3zvypEgBsDwOAAAAAAAAA9KWpK8bfmuRpSgCw5JS8ZHLd2C8LAcCPPmUAAAAAAABAn5lcP/oTqeXvlQBgCZsttT5zZee6j0oBwP0xAAgAAAAAAEBfmeyMHZ+SzyZZoQYAS9yGWruPWd25/nIpALgvLgEMAAAAAABA39jw5oP2TskFMfwHwGDYrZTmgrs6Y3tIAcB9MQAIAAAAAABAX6idtJvpofclGVcDgAFy5FDJubWTthQA/DADgAAAAAAAAPSFjRn9wySnKQHAAHrSVBn7PRkA+GFFAgAAAAAAAHrd5Pqxn0nNXykBwGArL171xmv+VgcA/ufMIAEAAAAAAAC9bKoz+vBaysVJlqsBwKCfFmvpPmr1G66/TAoAEpcABgAAAAAAoIdN/s74g2opH4rhPwBIkpWlNu+7tbN2lRQAJAYAAQAAAAAA6FG1kyYz9W+THKQGAPyPh6woU38hAwCJAUAAAAAAAAB61MYy/tokT1ICAO7l+VPrxn5OBgCKBAAAAAAAAPSaDevHH9/U7ieT0lYDAO7TllK6J618w/WXSAEwuAwAAgAAAAAA0FPu6Ry8V6u0v5LkUDUA4AFdN1tnHr5758Y7pQAYTC4BDAAAAAAAQM+oNaVp2n8Vw38AsD1GW6X917VaAApgUBkABAAAAAAAoGdMrR//tVLzTCUAYLudPrV+7FUyAAwmE+AAAAAAAAD0hI2dsUd3Sz6dZEgNANgh003J41e84dovSAEwWAwAAgAAAAAAsOju6oztMVRyaZJxNQBgx9Xk6s3LRo7f9zVfn1ADYHC4BDAAAAAAAACLbrjJe2L4DwB2WknWLNu85W1KAAzc8R8AAAAAAAAWz9S6sZ+ryTuVAIBdV1KeufKN13xYCYBBOe4DAAAAAADAItnUGRubLflqktVqAMCcuC3tcuyq115zixQAS59LAAMAAAAAALAoaifNbJO/iuE/AJhL+9aZ+i4ZAAaDAUAAAAAAAAAWxVQZ++XUnKoEAMytkjxrat3oS5UAGIhjPgAAAAAAACysDeeMH9l061eSLFcDAObF1GzTPGz311/9TSkAli4rAAIAAAAAALCgaiftplv/Job/AGA+rWy63b+u56YlBcDSZQAQAAAAAACABbWxGf2NJI9SAgDmV0keu/GK0d9UAmBJH+sBAAAAAABgYUyuH39oav1ikmE1AGBBbK2l+/DVb7j+MikAlh4rAAIAAAAAALAgamftcGp9bwz/AcBCGi61eY9LAQMsTQYAAQAAAAAAWBCTZeMbkhynBAAsuEdNXjn+8zIALD0uAQwAAAAAAMC8m1h/6NpSm68kGVIDABbndNy0WmtXvO6qG6QAWDqsAAgAAAAAAMC8qjWlqa13xfAfACym1d3u7DtlAFhaDAACAAAAAAAwrzaeM/7ymnqSEgCwyGqePrFu7PlCACwdLgEMAAAAAADAvNnQOWKfpmy5Iin7qAEAvaDe3q0jD9mt843btQDof1YABAAAAAAAYN40Zfr/Gv4DgF5S9mnK1t/TAWCJHNUlAAAAAAAAYD5MdMZOLSWfjJ9JAUCvqUl5yqo3XvMJKQD6mzdbAAAAAAAAzLnaGVs2VfLVJA9WAwB6T0muWrF65tjy6hs3qQHQv1wCGAAAAAAAgDk3Wepvx/AfAPSsmhy2cbL960oA9DcrAAIAAAAAADCnNnTWHNGU7leTjKgBAD1tU6tVHrL8dddcJwVAf7ICIAAAAAAAAHOqabrviuE/AOgHy2dn61tlAOjj918SAAAAAAAAMFcmOuNnpuZUJQCgbzx/ojPm3A3QpwwAAgAAAAAAMCdqZ+1wU7q/qwQA9JdS8v9qJ20lAPqPAUAAAAAAAADmxFQz9aqacrgSANB31k6WsZfLANB/igQAAAAAAADsqok3H75vmZ75ZpLd1QCAvnRnd2j6iN1++9t3SAHQP6wACAAAAAAAwK6bnjknhv8AoJ/t1dra7sgA0F+sAAgAAAAAAMAumegcenQp5b+S0lYDAPrabGp5+KrONV+VAqA/WAEQAAAAAACAXVKa5g8N/wHAktBKU/9QBoD+YQAQAAAAAACAnTa1bvTHU/NkJQBgiah5wtS60acJAdAfDAACAAAAAACwU2on7ZryViUAYImd41PeUjtmSgD6gYM1AAAAAAAAO2WyGX9FkrVKAMCSc9xUGXu+DAC9r0gAAAAAAADAjqpve9DKqY3Lr0ryIDUAYEm6ZmVdeVTpXLZVCoDeZQVAAAAAAAAAdtjUxuWvjOE/AFjKxifL1EtlAOhtVgAEAAAAAABgh9z5ljW7D2/pXp1kLzUAYEm7aeWKTQ8uv37LlBQAvckKgAAAAAAAAOyQoS3dX4nhPwAYBAd8d9VfAHqUFQABAAAAAADYbnd1xvYYKrkmyR5qAMBAuHu2zhy2e+fGO6UA6D1WAAQAAAAAAGC7DSWvieE/ABgke7RK+zdkAOhNVgAEAAAAAABgu0x0DtuvlNmrk6xUAwAGysZSZx+8snPDd6QA6C1WAAQAAAAAAGC7lMz+Vgz/AcAgWlFLyyqAAD35Pg0AAAAAAAB+hKnfGT2gzpSrkixXAwAG0sZaW+OrO1fdKgVA77ACIAAAAAAAAD/aTHl9DP8BwCBbUcrsq2QA6C1WAAQAAAAAAOABbXzTYYd0Z2e/lWRYDQAYaPdM14zt2bn2bikAeoMVAAEAAAAAAHhA3dnZX4nhPwAg2X241F+QAaB3WAEQAAAAAACA+3X37x66Z3trc12S1WoAAEnu2FhXju3XuWxSCoDFZwVAAAAAAAAA7tfQdOsXYvgPAPhfe68oUy+XAaA3WAEQAAAAAACA+1Q7Y8umSq5Jsr8aAMD3uXllzXjpXLtZCoDFZQVAAAAAAAAA7tNkyc/G8B8AcG/7b2zKi2UAWHwGAAEAAAAAALiXem5aJfkVJQCA+9Kt9TW1k7YSAIvLgRgAAAAAAOgptbN2eCLTuw1n826zTfb83sdnu2WkSWvF/3xe051u0p2s3Wa2ne6GJNk8krt2P+z6DeWszCq5ayavGH9uSX2wEgDAfSnJmqky+vzkur9XA2BRj8cAAAAAAAAL447O4bsty/Th3ZLxkmZNrXVNabImNYcm2TPJbkmWz8FN3ZXk9prcUVLuSK131FKva0pzfa31htrU61etnL22vPrGTfbKfZtcN/qlpJyoBADwAL606o3XPlIGgMVjABAAAAAAAJhz9dy0Ji8/9Mg0rWPSzUPT1GNKzbFJxnvsrt6a5Ipac0VKubxk9vLSLpevfO11Nw3y/pvojD6hlPLvnskAwI/SlPrYFW+47nNKACwOlwAGAAAAAAB22YY3H7R3a7r96G7No0tpHjN1RX1kKVmdWrctR1B79q7vl2S/UnLKtjvZpM4kk+vG7kzypVrrl5o0X8pQ90uDNBRYSvkNz2oAYHt0u+WVSQwAAizW+zcJAAAAAACAHXXbW49cvWLT1tNSuk+sKU9MclSW/M8d6o2l5PPdmgtT66dWd66/fCk+yonOoUeX0vx3/BwJANg+001rZnzF6278thQAC88KgAAAAAAAwHaZ6ow+PE15Rmp9Ut28+dG1lPZgzYiVg2vNmSU5M6Vkct3YzUk+VVI+1dT6ieWda69dCo+ySfn5avgPANh+Q7MzrVckeb0UAIvwTlUCAAAAAADgvtRz05q4fM1jmtJ9RpLnJnmwKg/QK7m61HwkaT68MldfWDqZ6bfHcGtn7aoVZerbSXazRwGAHXDbyppDS+fazVIALCwDgAAAAAAAwP+onTSTGTu5JD+Vkmcn2UuVnXJraj5SSj1vRb3uE/0yDDi1buznavJOuw8A2GElP7vqDdf+tRAAC334BQAAAAAABt7EOaMPSbc8P8lPlWSNInPqrqR+JLX13pW5+pOlk26v3tHJdWP/leQ4uwwA2An/ueqN1z5MBoCFZQAQAAAAAAAGVO0cuGJjGXphTV6RlBMVWRDXJ/nH2aZ5z+6vv/qbvXTHNqw/9KSmNhfbRQDAzuqWcvJub7jmM0oALBwDgAAAAAAAMGA2dNYc0ZTuS5K8LMneiiyWckkp+fMVq6b/trz6xk2LfW8m1439Q5IX2i8AwE6/uknet/KN156lBMCCHnsBAAAAAIClrtaUjetHn1pL+bXUnBY/I+gltyX1r9u1vnNZ5/qrF+MOTHQO26+U2euTjNgdAMAuvOqcKbU7urJzw3e0AFgYjQQAAAAAALB01U6aqXXjp0+tH/tCTfloap4Qw3+9Zt+k/PpMab45uX70wxvWH3rSQt+Bppl5WQz/AQC7rLRr03qxDgALeOSVAAAAAAAAlp7aGVs22eTsUvPqJKOK9JeS8tlu7b59Va77QOmkO6/PlXPTmrpi7CrPEwBgjnxj5RuuPaqUVCkAFuL9IwAAAAAAsGTUztrhyWbyZaWW305ykCJ975sp5U0rj7rm78tZmZ2PG5haN356Tf2Q1ADAXOnW5vG7da6+WAmA+ecSwAAAAAAAsATUTtpT60ZfOlWmvlFq+ZMY/lsqHpxa/2bqirHLJ9ePv6iem9acP3dSXy4zADCXmtJ9iQoAC8MKgAAAAAAA0Oem1o09qya/l+QINZa8r6fU9Su71/1/c3Fp4Ik3H75vmZ75dpIhaQGAuVJSJ6fqqgP261w2qQbA/LICIAAAAAAA9KmJc0YfMrlu7KM1+UAM/w2KI1PL30+Vsa9NrRt92i5vbWbmhTH8BwDMsZqyamUzeZYSAPPPACAAAAAAAPSZyd8Zf9BEZ/TdpVu+luRpigyko2vKRyfWj31wwznjR+7sRkrNi6QEAOZFbVwGGGABuAQwAAAAAAD0idpJs7EZf1mt9S1J9lSE75ouqe+cqbOd3Ts33rm9f2ninNGHlG65XD4AYL5evnab8pDdXn/N16UAmD9WAAQAAAAAgD4wuX7NsZNl7DO11nfF8B8/aKim/FKrtL81tX787Fq3bwGI0i0/JR0AMI9KM1t/RgaAeT7YSgAAAAAAAL2rvv3g5VMT7TcmeXWSIUXYDhfVpv786tdfd8X9Pq86aabK2DVJDpULAJhH31lZrx0tncxIATA/rAAIAAAAAAA9aqqz5sSpifYlSV4Tw39sv1NKt/znxLrxN9W3H7z8vj5hsoyeEsN/AMD8O3BjGX2SDADzxwAgAAAAAAD0mNpJe3Ld2Gtq6X42yUMUYScMl9TXTk60/3vD+vHH//AfllpeLBEAsCCvbWs5SwWA+eMSwAAAAAAA0EMmOoceXUrrvUk9QQ3myGyS31tZV3ZK57KttXPgiqkyfFOS3aQBABbA3SvrygeVzmVbpQCYewYAAQAAAACgR0yuH39xav3TJCvVYB5cVmp9cW1yVGr5ezkAgIVSanP6ys7VH1ECYO61JQAAAAAAgMV1a2ftqhWZ/LPU+iI1mEdraymfS81NUgAAC6mm+7wkBgAB5oEVAAEAAAAAYBFtu+Rv+aekHKMGAABL1IaVNQ8qnWs3SwEwtxoJAAAAAABgcUyuG/3JUpovG/4DAGCJ221jypNlAJh7BgABAAAAAGCB1XPTmlw39pak/F2S5YoAALDkXwNvuwwwAHPMJYABAAAAAGAB3dE5fLeRMvN3SU5XAwCAATKxcvXMg8qrb9wkBcDcsQIgAAAAAAAskA2dNUeMlJkvx/AfAACDZ/XGDe2nyAAwtwwAAgAAAADAAti4fuxRTelenOTBagAAMIhqyVkqAMwtlwAGAAAAAIB5NtUZe3Yt+Ycky9UAAGBQldTJFbXsWzrXblYDYG5YARAAAAAAAObR1Prxl9VS3xfDfwAADLiasmqq5BQlAOaOAUAAAAAAAJgnE+vGOrXWdyelrQYAACSpeboIAHPHACAAAAAAAMyDiXWj60vyRiUAAOB/1ZJnqAAwd4oEAAAAAAAwd2pNmVo39vaUvEoNAAC4t25tjtytc/U3lADYdVYABAAAAACAOVI7aSbXjf654T8AALh/Ten+uAoAc3RMlQAAAAAAAHZdrSmTGfuTUsrL1AAAgAdQ6tNFAJijQ6oEAAAAAACw6yY7o29LKb+mBAAA/EhbNy0b2Wff13x9QgqAXWMFQAAAAAAA2EWT68bebPgPAAC22/CKTVt+TAaAXWcAEAAAAAAAdsHU+rE3JPktJQAAYPt1U39cBYBdZwAQAAAAAAB20tS68ZfXmnVKAADAjiml/HitKUoA7BoDgAAAAAAAsBOm1o3+eE33T5UAAICdcsDUurGHygCwawwAAgAAAADADprqrDmxpvxTUtpqAADATirlSSIA7BoDgAAAAAAAsAPuPueQw2rp/nOSlWoAAMAuOUUCgF1jABAAAAAAALbTbW89cnW72/pgkv3UAACAXVUfV89NSweAnWcAEAAAAAAAtkPtpFm+ecvfJ1mrBgAAzIndN14++lAZAHaeAUAAAAAAANgOk2V8fZLTlQAAgLlTS3EZYIBdYAAQAAAAAAB+hInO6HNL6m8rAQAAc6smBgABdkGRAAAAAAAA7t+GzthRrVK/VFNWqQEAAHPurpX12n1KJ10pAHacFQABAAAAAOB+1M7YsqbkHw3/AQDAvNlzqhk/VgaAnWMAEAAAAAAA7sdkqe9IcrwSAAAwf2qqywAD7CQDgAAAAAAAcB8m1o+fVVJergQAAMyvJjEACLDzx1AAAAAAAOD7be4cuqbU+m4lAABg/tVaT641RQmAHWcAEAAAAAAAvk/tpJkt5W+S7KYGAAAshLLP1n95wwt0ANhxBgABAAAAAOD7TJXxX60pj1MCAAAWzuwNl/5D7c5+udZ6dq11lSIA28fyqQAAAAAA8F0T6w9dW2rz5STL1AAAgIW17GfPS+uQE5JkIsk/JnlXKeVSZQDunxUAAQAAAAAgSX3XCUOlNu+N4T8AAFgcm+7+3q9WJzk7ySW1VqsCAjwAA4AAAAAAAJBk4y23/3qShysBAACLo+xz2H19+IQk70rynVrru2qtXrMDfP+xUwIAAAAAAAbdps7Y2GzJfydZqQYAACy8Zq+xLP/FT23vp385yZ8n+cdSyqR6wEAfPyUAAAAAAGDQzZa8M4b/AABg0bSOfNKOfPqJ2TYAaFVAYOAZAAQAAAAAYKBNrB97QZKnKAEAAIundciJO/PXVic5O8kltdYv11rPrrWuUhMYJC4BDAAAAADAwLrzLWt2H97SvTLJ/moAAMBiKVnxyotS9jhkLjY2keQfk7yrlHLp9/9BPffUVdOtvKyk+7iasvtO3dNap1LK1v/ZZnJPkm5NuSvJ5qZ0N9Va7kqyqZt6T6tb7uqW5s6Zoa13rdjSvauc9blN9jcwt0dQAAAAAAAYUJPrxn8/qb+qBAAALJ7W2KOz7MX/OB+bviTbLhX8D1svOO2pTer/rclBi/xwN5Xkjpr67ZJyS01urik3lVpv6SY3Nk1z/dDw9PXlGRff5ZkBbA8DgAAAAAAADKTNnUPXzJTm8iQjagAAwOIZefbb0z7uOfOz8drN7Ff/39buVRcM91mWiSTX19RrS22uTVO/0ZR8c2a6fHNk31xbTrtwxjMHSAwAAgAAAAAwoCbWjV1QkucoAQAAi6eMrM6KV38hGVo+9xuf3ZrZL65L96bPLrVs00muKcmV3eSy1HytNM3lQzO3XlHOumyrZxUM2HFUAgAAAAAABs2G9Yee1NTmM/F9cgAAWFTtE34yIz/+prnf8OyWzHz+dam3fGmQcs4k+VaS/yw1l6Y2l7aXT1/qcsKwtPnGBgAAAAAAA6XWlKn1o19MyolqAADA4lr+0g+kOeihc77d2a/8QbrXfFjgba4uyaWp+VxN89mhveslLiEMS4cBQAAAAAAABsrGdaPP6aZcoAQAACyuZr8jsvwV/zr3G67dTH/0jGSLhe/u721RUr9S01xca/3syLLZi60SCP2rLQEAAAAAAINi2+p/5Y1KAADA4ms/7Pnz87r/risN/z2wFUk5qaSeVEoyvaU1u/WCU76emotT6mdna/ui5Wd88jqZoD9YARAAAAAAgIExsW7s+SX5/5QAAIBF1hrKil/5fMqKveZ807OX/2W6V75X413zjdT8S0nz0fZEvaj87IWbJYHeZAAQAAAAAICBUM9Na+qKsa8leYgaAACwuNpHPy0jZ/7pvGx75pNnp979DZHnzqYkny2l/lu323xw5MwLr5QEeocBQAAAAAAABsLk+tGfSC1/rwQAACy+ZT/xV2kdfurcb3jzHZn+6JlJqsjz5+ok/9at+cjIihUfL0//2BZJYPG0JQAAAAAAYCDU8msiAADA4iur90/rsMfPy7a7N38+hv/m3ZokZzclZ09v2jgxff4p/9ZNPW94tvlQOevCSXlgYRkABAAAAABgyZtaN/q0mjxMCQAAWHzt489MSmtetl1v/oLAC2t1TZ5TUp4z3aqbt5x3yr+Vpr5vaKa5wDAgLAyXAAYAAAAAYMmbXDf2ySSnKQEAAIutZPkvfirNXqNzv+nuTKb/+VnJ9JTMi29Trfn3NHnv8MztHyxnXbZVEpivoyoAAAAAACxhU+vXPKLW7heVAACAxdcae0yWvfgf5mXb9dZLM3Pxq0XuPXcn+XC35n0jd0z+S/m5S6YlgbnTSAAAAAAAwFJWu10/AQQAgB7RPv5587bt7i0u/9uj9kjyU03Jh6b3WXXj1vNP/f3N5552pCwwN6wACAAAAADAkjXZGds/JdclGVYDAAAWVxlZnRWv/kIytHxetj/ziZ9KnbhB6P5xSZI/Hxqe/Lty+iUb5YCdYwVAAAAAAACWrFLqS2P4DwAAekLrmGfO2/BfnbrJ8F//OSHJu6a3rvr21vNPedeW8x5/nCSw46wACAAAAADAklQ7aabK2FVJxtQAAIDFt/xlH0xz4PzMeHWvuiCz//UOkfvftlUBp0b+vrz441NywI9mBUAAAAAAAJakjRl/Rgz/AQBAT2j2O2Lehv+SpHvz50VeGratCrhyyw1bLzj1/25+/xMOkwR+xPFVAgAAAAAAlqJacrYKAADQG9oPe/78bXxmc+rt/yny0rJnav3lpjv7jS3nnfLh6fed/FhJ4L65BDAAAAAAAEvOROew/UqZvTHJkBoAALDIWkNZ8SufT1mx17xsvnvTf2T2c7+t85JXP1tL+aPhmf0uKGe9b1YP2MYKgAAAAAAALDmlzL4whv8AAKAntI984rwN/yVJdfnfQXmnd1KpOXe6devXt5538i/Xcx+zXBMwAAgAAAAAwJJUfkoDAADoDe3jz5rX7ddbviDyYDkspfzf6dbwtVvOP7VTL/ixvSVhkBkABAAAAABgSdnQGTsqqScoAQAAi6+s3j+twx4/b9uvG65O3XiL0INpv5L6xuk6c93W80/+w/rBH3uQJAwiA4AAAAAAACwppZQXqQAAAL2hffyZSWnN2/brTS7/S1Ym5VXTMzNXbz3vlD8yCMigMQAIAAAAAMCSUlLPVAEAAHrj1Xn7ofP78rx7iwFA/seKlLxyembmW1vOP/Ut9f2n7iEJg8AAIAAAAAAAS8bEOaMPSXKkEgAAsPhaY49Os9fo/N3A9ETqHZcJzQ9bVVJfM92tV205/9RO/btH7SYJS5kBQAAAAAAAlozSLc9WAQAAekP7YWfN6/a7t3wpqbNCc3/2KqlvnF6+7KrpC05+TT33McslYSkyAAgAAAAAwFLyLAkAAGDxlZHVaR/1lHm9jXqzy/+yXfaptbxlpjX8za3nn/xz9VOntiVhKTEACAAAAADAkjDVOeTAJI9UAgAAFl/rmGcmQ/O44FrtblsBELb3KZMclJR3Tt9Zvzbz/lOepghLhQFAAAAAAACWhtI8LUkRAgAAFt/QPF/+t951ZbLlLqHZGUd1u/nolvNO+fDm9z/hMDnodwYAAQAAAABYEmrKk1QAAIDF1+x3RJoDj5vX2+i6/C+7qJQ8o+nOXrH1vFP+qP7do3ZThL495koAAAAAAEC/q500SZ6gBAAALL72w54//+8BDAAyN4ZS8sqty5ddufX8U87+7ntL6CuetAAAAAAA9L2NGT0+yb5KAADAImsNpX3ss+f3NjbfkXr3N7VmzpTkgCTvmn7Ec66dufRtL621mqmib3iyAgAAAADQ92px+V8AAOgF7SOflLJir3m9je7NX0hSxWbubb7zkO41//wXs186Z2OduuVfaq0/Lwo9f9yVAAAAAACAvlfyBD//AwCAxdc+/nnzfhsu/8s8P8PSveHfR7o3f/EprYe8+Pgkf6YJvaxIAAAAAABAP6udNFNl7K4ku6kBAACLp6zePytedXFSWvN3I92ZTP/zs5LpKcFZmPecyb9003rF8jM+eZ0a9CKXAAYAAAAAoK9NZfyYGP4DAIBF1z7+zPkd/ktSb/+q4T8WVEme2srs5dMXnPyaeu7zWorQawwAAgAAAADQ10qTR6sAAACL/sp82wDgPOve4vK/LIoVtZa3TLdu/cyW805bKwe9xAAgAAAAAAB9rXbrY1QAAIDF1Rp7dJo9R+f/9f/NnxObxfSYUrpf2XL+qW+pH33aiBz0AgOAAAAAAAD0txIDgAAAsMjaDztr3m+jTn0ndeIGsVlsQyX1NdObNl6y9bzTHiUHi80AIAAAAAAAfevWztpVSY5QAgAAFk8ZWZ32UU+Z99upN7v8Lz1lbUr34i3nn9qp5z6vJQeLxQAgAAAAAAB9a1UzeWySogQAACye1jHPTIaWz/vtdF3+l97TLqlvnG7devHm9z/hMDlYDAYAAQAAAADoWzXNsSoAAMDiGlqAy/9mZnPq7f8lNr3q0c3s7KVbzjv1RVKw0AwAAgAAAADQv7pdA4AAALCImv2OSHPgcfP/0v+2S5PZrYLTu0p2K6X+7fT5p5xbP/K4PQVhwY7DEgAAAAAA0K9qKcepAAAAi6f9sOcvzGv/mz8vNv3xPjV53vSW1lem33fK49VgIRgABAAAAACgn62VAAAAFklrKO1jn7MgN1Vv+YLe9JPR2uSTW84/9S31XScMycF8MgAIAAAAAEBfuqsztkeSvZUAAIDF0T7ySSkr5v9Kp3XD1akbbxGcvvsSKamvmd5n5ac2nvuEg+RgvhgABAAAAACgLw033cNUAACAxdM+/qwFuZ16k8v/0s/KSe3W7Fem33faj2nBfDAACAAAAABAX+rW1hoVAABgcZTV+6d12OMW5rX/LQYA6Xv71qb7L9MXnPwaKZhrBgABAAAAAOhLJdUAIAAALJL28WcmpTX/NzQ9kXrHZYKzJL5sai1v2Xr+Kf9Y3/vklXIwVwwAAgAAAADQl2oyrgIAACyGsm0AcAF0b/lSUmclZyl5wfTKLV/ecsHJD5GCuWAAEAAAAACAvlRKRlUAAICF1xp7dJo9F+bleL3Z5X9Zko4q3fL5Leef8hwp2FUGAAEAAAAA6E81B4gAAAALr/2wsxboNX932wqAsBSV7FaS87ecf+pbascMFzvPkwcAAAAAgH71IAkAAGBhlZHVaR/1lAW5rXrXlcmWu0RnSX9JldTXbD325A/VD560Wg52hgFAAAAAAAD6zrbVEeo+SgAAwMJqH/usZGj5gtxW1+V/GRAl5cenZ9r/sencxx2qBjvKACAAAAAAAH1ncvjwvZPSVgIAABZW+/izFuy2qgFABssxTav1+a3nP/7hUrAjDAACAAAAANB/tlaX/wUAgAXW7HdEmgOPXZgb23xH6t3fFJ2BUpIDkuaimQtOfYYabPexWQIAAAAAAPpPdy8NAABgYbUf9vyFe8V/8+eTVNEZRKu6tX5g6/mn/B8p2B4GAAEAAAAA6DtNuqtUAACABdQaSvvYZy/YzdWbv6A5A/0Vl+RPtp53yh/VjvkuHpgnCAAAAAAAfadbymoVAABg4bSPfFLKigVaiLs7k+5tl4gOJa+cOfbkc+u5j1kuBvfHACAAAAAAAH2nSbUCIAAALKD28Wct2G3V27+aTE+JDklqyhnTreFP1gseu58a3BcDgAAAAAAA9J2aYgAQAAAWSFm9f1qHPW7Bbq97y+dFhx/06OkMfXrj+aceLAU/zAAgAAAAAAB9p1gBEAAAFkz7+DOT0lqw26s3f050uNcXRo5sp168+dxTDxeD72cAEAAAAACAPlTaGgAAwIK89t42ALhA6tR3UidukB3u22irVT+1+dzTjpSC7zEACAAAAABA3+lW398GAICF0HrwaWn2HF2w26vfvkh0eKCvkeTgptX99NYLTnuoGiQGAAEAAAAA6EelFhEAAGD+DT36JQt6e90bPyU6/Gj7pXYvnL7glMdIgQFAAAAAAAD6UOP72wAAMN+vuvc7Mq3xxy7Y7dXJb6fe/Q3hYfvsUWs+Mf2+035MigE/VksAAAAAAEDfqbECIAAAzLOhx7w8WcCX3vWGT4gOO2Zlbbofmj7vtKdIMbgMAAIAAAAAAAAA8APKqv3SPub0Bb3N7k3/ITzsuBW1dD+45bxTny3FYDIACAAAAABA32lKNqsAAADzZ+jRL01awwt3g1vuTr3nW8LDzhkppZ67+bxTTpdi8BgABAAAAACg79SSTSoAAMD8KMv3SPvEn1zQ2+ze8qWkdsWHnTfUlJw38/5TnibFYDEACAAAAABA36m1awAQAADmydCjXpIyvHJhX+Pf+kXhYdcNd7s5b/r8k0+WYnAYAAQAAAAAoO80VgAEAIB5UUZWpf3IFy/47dbbviI+zI0VNeVDW8879UQpBoMBQAAAAAAA+k6txQAgAADMg/YjfyZl2e4L+/p+062pm24XH+bO7in1E1vPO/lhUix9BgABAAAAAOg7pTYTKgAAwBy/zl62e4Ye87IFv9165xXiw9zbI6X8y5bzTj1KiqXNACAAAAAAAH2nNLN3qAAAAHNr6KRXLPjqf0lS77xcfJgf+zWlfmLTuSePS7F0GQAEAAAAAKDvTJeW64MBAMAcKqv2y9Ajf3pRbrve/Q07AObr6ys5uNUqH5/64EkHqrE0GQAEAAAAAKD/zG61AiAAAMyhoZN/KRlavii3XSeutwNgfh0+NNP+eH3/qXtIsfQYAAQAAAAAoO/slhvvTjKrBAAA7Lpmr9EMPfwFi3Pj01PJZv++BxbA2ulu9wP1o08bkWKJHcMlAAAAAACg35ROuknuVAIAAHbd8BN/O2nai3LbdfIGOwAW7t30KdObN/5VrSlaLB0GAAEAAAAA6FfflgAAAHZNa+wxaR315EW7/Tp5o50AC/pFlxfOnH/K64VYOgwAAgAAAADQl2rJ9SoAAMAuKE2Gn/Rbi3sfNt1qP8DCv5/ubL3g5BcrsTQYAAQAAAAAoC813WoAEAAAdkH7+OelOeDYRb0PdfNddgQsvJJa/mL6faf9mBT9zwAgAAAAAAB9qTblBhUAAGDnlOV7ZPgJv774d2TLnXYGLI6hWroXbPnAycdK0d8MAAIAAAAA0JdqXAIYAAB21vATfzNl5d6L/7reCoCweEp2K7PlQ/WDP/YgMfqXAUAAAAAAAPpSK7lGBQAA2HHNISekffzzeuPOzEzZIbC4xqZnZj5UP3zCCin69JguAQAAAAAA/WhLN19XAQAAdlDTysjT1ielR0ZGZrfaJ7D4Hjm9ddV7ZOjTw7oEAAAAAAD0oz07196d5CYlAABg+w09+mVp9j+6d+5Q1wAg9IgXbL3glF+Rof8YAAQAAAAAoJ9dKQEAAGyfZu81GT71Vb11p6wACL2j5vemLzjtFCH67NguAQAAAAAA/arUcoUKAACwPS+emwyf/takvayn7latXfsGeke71u4/bTz3CQdJ0T8MAAIAAAAA0Le6TQwAAgDAdhh61EvSOvTEnrtfpWnbOdBbHtRuzZxfP/q0ESn6gwFAAAAAAAD6VzdfFQEAAB5Ys9dohk97dY/euWE7CHpOedT0po1/qEOfHOMlAAAAAACgX23KikuTzCoBAAD3o2ll5NlvT4aW9+j9swIg9Kif33reyS+RoQ8O8xIAAAAAANCv9utcNpnk60oAAMB9Gz75lWkOfnjv3sHWMjsJelUpf7L1/Mc/XIjeZgAQAAAAAID+VvNlEQAA4N5ah5yYocf/Qm/fyZHd7SjoXcuS5v313MfvK0XvMgAIAAAAAEBfq6UYAAQAgB9SRlZn5DlvT0qrx+/nnnYW9LZDtzbN39SaIkVvciF1AAAAAAD6yq2dtatWZGrVbKtZ3a4zu9Vafa8bAAB+yPAz3pyyxyG9f0eXGQCEXldKnjZ9/imvSC76MzV6j2+KAAAAAACwqO7+3UP3bE3nwNJtHZRSDyilHpSa/bulHJKaB5Vk9ySrk6xKsmcylSRpdbupLnQDAAD3MvSIF6e99hl9cV+tAAh9ouQPtpz7+ItGzvrM5WL0FgOAAAAAAADMu42dww+ezfQRKeXIkhyZkiNLrYfXlIOyNcuTJKUmSWot3/9bAABgBzQHHpfhJ7+2f+7wigPsNOgPy0ur+af6V6c+ovzshZvl6B0GAAEAAAAAmDNTvzN6QGaaE1Pqw2rNUUmOLKlHdDOzqqT87yfWpH7/7wEAgF1Wlu2eZWf+SdIa7p/7vOpgOw76xzHTu9ffSfKrUvTQcVQCAAAAAAB2xoY3H7R3s3XoEaUpJ3ZrPbEkJyY5SBkAAFgEpcmyF/xFWg8+rb/ud3c60x98SlK79iH0h9rU+oz2mZ/+qBQ9cviXAAAAAACA7TFxzuhDUnNaqeXkJI9MMq4KAAD0huEfe02GTnpFX973mX95furGW+xE6BM1uWl4uBxXTr/wdjUWn0sAAwAAAABwn6Y6hxzYLe2TUusTS8lT082hqgAAQO9pH/30DJ30c317/8vuhxsAhH76mk0O2LqlvrfW/HgpqYos8jlAAgAAAAAAkuSezsF7tUrraanlySk5rSaHlFTXkgEAgB7WHHhcRp79B+nnF+5lz6OSmz5rZ0I/fd2WPG36gpPPTj79LjUWeV9IAAAAAAAwuDZ1xsZmS56Vkmem1pOT4h+OAwBAnyir98/yl70/ZfX+ff046i1fzMxnf8MOhf6zsVvr8cvO/PQ3pVg8vpEDAAAAADBgJtYfurbU5hkl5fTZ1Mcm+e4Fe/ybcQAA6BdleGWWvfA9fT/8l3x3BcCUxJVEod+saEreXWtOcyngxWMAEAAAAABgAEx2xo9Luj+VUp6fmkOSpPrePAAA9KemlZHn/Wma/Y9eGo9neLeU1YekTlxv30LfKadMv/+UlyUXvVuLRdoDEgAAAAAALE1TnUMOrKX1vKT8VFJPUAQAAJaG4aefk6ETX7SkHtPsf70j3asusHOhH9VsmOm2jl5x1ie/LcbCswIgAAAAAMAScmtn7aoVzcbnptYX1eQJSVouowUAAEvH0MmvXHLDf0lS9jsxMQAIffoFnN1azew7k5wuxmLkBwAAAACg702tP/SEWptfSHJWkpWKAADA0jP0yJ/O8FM7S/PBzWzM9EeemXRn7GjoU7U2Z46c+anzlVhYBgABAAAAAPpU7awdniwbn1VK9+zU8kRFAABg6Wof++yMPPsPktIs2cc485lXp952qZ0NfaomNw+PzB5dnnHxXWos4PlBAgAAAACA/jLVOeTAbmmdPZWpny/Jfqn+rTcAACxlrSOfmJFnvW1JD/8lSXPwqZk1AAh9qyT7T29pvy3Jy9RY0O4AAAAAAPSDic7YqWnyy6Xm9CQtRQAAYOlrHXZylj3/z5P2yNJ/sFvvyfQ/Pzeps3Y89K9aSp4y9NyLPiHFwjAACAAAAADQw2pN2bh+/Bnd1N8qyWMUAQCAwdFa87gse8G7k/aygXnMMxe/OvVWqwBCn7t2aGrkmPLij09JMf8aCQAAAAAAek/tpJlaN3761PrxL9XUDxn+AwCAwTKIw39J0hzyJDsf+t/Y1lVbf0uGhWEFQAAAAACAHlLfcfjIxrtnfzq1/kZNDlMEAAAGT2vNSVn2gr8YuOG/JMnslkx/9IxketITAfrblu5sOWbZWRd+S4r5ZQVAAAAAAIAeUDtrhyfWj71y6q6Zq2ut7zL8BwAAg6l1xI9l2QveM5jDf0nSGklzyBM9EaD/jbRa9XdlmH8GAAEAAAAAFlGtKRPrxp+3sUxdXmr+KMmBqgAAwGBqrz09y856Z9IeGegOzfjpngywBNTkzOkLTnFd73nmEsAAAAAAAItksrPmiSnd30vyMDUAAGCwtU/4iYw8/ZykWMspSWY+/cupt/+XEND//mtodr8Tylnvm5Vins4fEgAAAAAALKyNnbFHd0veknRPUQMAABh63C9k+Am/Gus4/a/WkT+RGQOAsBQ8dLp928uTvFOK+eHMAQAAAACwQO7pHHZ4u5l9a615Tnx/FgAAKK2MPH1d2if8pBb3YeaTZ6fe/Q0hoP/dOVTaR5Tn/vsdUsw968YCAAAAAMyz+vaDl0+sG+u0yuzXas1zY/gPAAAYWp5lz3+X4b8H0BzxAhFgadhruk6/Tob54ZtMAAAAAADzaKoz9uxa8odJxtQAAACSpKzYK8te+J40Bx0vxgOp3cz8+8tSN1ytBfS/6VrqQ0ee++krpJhbVgAEAAAAAJgHd59zyGGT68Y/UkveH8N/AADAdzX7HZnlL/uA4b/tUZq0jjlbB1gahkot75BhHg6VEgAAAAAAzJ369oOXT060X1OS1yRZpggAAPA9rQeflpHnviNlZJUYO2DmM69Ove1SIWAJKCVPHnruRZ9QYu5YARAAAAAAYI5MrBs9bWqifVlJ3hjDfwAAwP8oGXr8L2bZC/7C8N9OaB37iqQYcYGloNZ6jgpzfYYBAAAAAGCX3NpZu2pl2fiWmvp/4vuuAADA9ynDKzP8zN9L++ini7ELZr/y9nSv+ZAQsAQ0pZzefu6FH1FijnpKAAAAAACw8zZ01jxuRZm6tKb+Qgz/AQAA36fZe02WvfQCw39zoHXMz6Us20cIWAK63frm2jG3NmfnGgkAAAAAAHZc7Ry4YnLd2Fua0r0oyYMVAQAAvl/7mGdm2cs/nGbfI8SYC0Mr0xz3f3SApaDk2K3HnvpcIeYqJwAAAAAAO2SiM3ZqSt5TkjVqAAAAP6C9LMNPfm2GTnyRFvNg9vOvS/c7FwsB/a7k8qGZ/Y4rZ71vVoxdYwVAAAAAAIDtVDtpT6wb65SSfzf8BwAA/LBm3wdn+Uvfb/hvHrUe8bqUvR4iBPS7mqO3Nre9UIhdZwVAAAAAAIDtsKmz5tBuqf9QU09SAwAA+EEl7Ye/ICNPeX0ytFyO+bbl7sxc9Aupk9/WAvrbt4Zunzy6/Nwl01LsPCsAAgAAAAD8CBOd0efOlu5/Gv4DAAB+WFn9oCz7ib/MyDPebPhvoYzskdZjfjcZ2UML6G+HT++z+qdl2MXzkAQAAAAAAPetdsaWTSVvTckr1QAAAH5Y++inZ/jH35SyfE8xFuM92z1XZeYzv5Js3SAG9K/rh5avOKI8/WNbpNg5VgAEAAAAALgPG84ZP3Kq5HOG/wAAgB9WVu6TZWe9MyNn/onhv8XcD7sflvZJv5cMrRQD+teh0xs3vkSGXTgWSgAAAAAA8IMm1o2e0SR/XVNWqQEAAPyvkvZDz8jwk1+bsnwPOXpEvfPyzHz2Ncn0hBjQn741NLvfUeWs981KseOsAAgAAAAA8F21pkyuG3tNSTnX8B8AAPD9mr1Gs+xFf5uRZ73N8F+PKXsdnfYpf5yybB8xoD8dvrW5/dky7OQxUAIAAAAAgOTWztpVy8vUe0vyHDUAAID/0bQz9JiXZfjUX0law3r0sDp5Y2Yv/rXUjTeLAf3n88NnXPQYGXacAUAAAAAAYODdfc4hh7W7zQeScowaAADA97SOeEKGn/KGNHuOitEvtt6Tmc+9LvWOr2kBfaZ0c/LQ8y76jBI7xiWAAQAAAICBNrF+7JR2t/U5w38AAMD3NHuPZ9kL/zLLXvAew3/9Znj3tB//9jSHPEkL6LuDb35NhB1nBUAAAAAAYGBNrh97VWp+P0lLDQAAoCzfI0Mn/1KGHvHipGkL0tdqule8N7NX/k1Su3JAf+jWWtaOnHnhlVJsPysAAgAAAAADp9aUyc7YW1PzhzH8BwAADC3P0EmvyPJfuihDj3qJ4b8loaR5yE+n/bg/SEb2lAP6Q1NSXy3Djh7tAAAAAAAGSO2sHZ4qU3+d5IVqAADAgCtN2sc+K8M/9pqU1Q/SY6m+D9x0W2a/uC71jv8WA3rf5qF2e6w8699vkWL7+JetAAAAAMDAuPMta3bvzm79SJLT1QAAgAHWtNI+9jkZed6fZOhhz08ZWaXJElaGVqYZfWrK8OrU277iksDQ29qz3dnNbzr3uk9JsZ3HOAkAAAAAgEEw9TujB9SZ8tEkx6sBAAADqjRpP+SpGTrtV9PsvUaPAVTv+VZmv/Tm1A1XiwG9646hqZHR8uKPT0mxHac2CQAAAACApW6ic+jRpTQfS3KoGgAAMIDaI2kf95wMnfSKNHuO6jHoujPpXv2BzF7+nmRmkx7Qi0rOHn7uRe8WYntSAQAAAAAsYRvXjz2qW/PRJHupAQAAg6Us3zPtE38yQ4/86ZSV+wjCD6hT38nsf/5R6i1fEAN6z5eHz7joETJsx7lOAgAAAABgqdrQGX1sU8rHkuymBgAADI5m7/G0H/kzGTr+zGRohSA8oHrrJZn92p+m3nOVGNBTuicMn/GZS3V4YAYAAQAAAIAlaUNnzeOa0v1oktVqAADAAChNWuOPydAjfzatI54QIxHskNpN99p/TveKv0ndfLse0BNfl/Wdw2d++ueF+BGnPwkAAAAAgKVmojN2ain5SJKVagAAwNJWVj8o7YeemaETfiJl9wMFYdd0p9O98ZPbBgGnvqMHLK6JofbMQeVZn52Q4gHOgxIAAAAAAEvJRGf85KZ0/7mmrFIDAACWqNZwWoc9Lu3jzkj7qCcnTVsT5lZ3Ot3r/zXdb52XuuFaPWDR1JcNn/Hp9+hw/wwAAgAAAABLxmRn/Mkp9QNJlqsBAABLTGnSOuThaR3zzLSPeWbKst01YQHU1Fsvyey3zku95YtJ7UoCC/s1+IXhMz79aB0e4PQoAQAAAACwFEyuG3tKkg8kWaYGAAAsFSXNQQ9Ne+0z0j76x1N2218SFk3ddHvqDR9P99qPpk7eKAgslKY8bPg5F/6nEPd3pgQAAAAA6HMbOqOPbUr5eJKVagAAQJ9r2mmNPiqtI5+Y9hFPTNnjYE3oMTX1jv9O98YLU7/zmdRNt0oC8/olV/5k+MwLf1GI+2YAEAAAAADoa5Od8eNS6oVJ9lQDAAD6U1mxV1prHp/WkU9M67CTU5btJgp9oqbedWW6N/1H6q1fTr3r6y4TDHPvnqHhyQPL6ZdslOI+zqESAAAAAAD96u5zDjms3W19JskBagAAQB9pL0vr0BPSGn9cWmtOSrP/2qQ0utD/pifSve0rqbd/NfWuK1Pv/kYyu1UX2GXlZ4fPuPCvdbiPMhIAAAAAAP1oqnPIgbW0Lk4yrgYAAPS2snzPNIc8LK1DTkxzyCPSOvDYpD0iDEtfdyb1nqu2/TdxXeqGa5PJ61M33ZZ0Z/SB7ffJ4TMu+jEZ7uMcKwEAAAAA0G82vPmgvZvpoYuSrFUDAAB6zNCKNPs/JK0DjklzwDFpDnxomn0PjxEF+D61m7r5zmTjzalb7ky2TiQzm5KZjakzG5PpqWR6atuvZzYm09v+X6cnt/3e8CCDZ3ZothxczrrwZil+UFsCAAAAAKCf3NpZu6qZnvrnGP4DAIDF1bTT7DWaZt8Hp+xzeJp9H5zmQUel2eewpLT0gQdSmpTl+yTL99n50djZLanTE8nWyWR6Ipndmjq7Zduvt05sGxac3Zp892N168S2P/vux+vslmTLXUnt2h/0g9Z0qz4vyR9L8YMMAAIAAAAAfaN20kyVqX9I8ig1AABgF5RWysiqe3+8NZQMr/jBTx1ZlbLHIWn2OCRlz0PS7HFwyp6HptlzdNvnA4ujNZLSGkmW7fO/X687s53vDRLObt323/cPC353gLBOT25bpfB7f9b93mDh5A9+Lsyr+vwYALz3KV0CAAAAAKBfTHbG/yClvloJAIAB1B5JaS+7z49n6Ac/XtojyX18bmmPJEMjO7bt+93Osu3bTnskZWgHt30/96Xs6H3/4S5Dy5PWsOcSMH+2Z1XC7xsgtCohO6jOpjW+/IxPXifF953yJQAAAAAA+sHU+tGX1Gr4DwDoYTswiJXs4JDafA6ofe/j2zmkNp8Dasm21eZcPhagT1mVkPlV2pk5M8kfSPF9L6kkAAAAAAB63URn/ORa658pAQBz4H5WKNvlAbX72/b3tr+9Q2pzMKD2QPd9h4bU7q+LVdQAYH59b5Dw+8+/O7Od2a3JzFTqzKZtqwxOT6XObExmNiabbk/31i+n3nppkqp5n6gpz48BwF3/2gAAAAAAWCh3n3PIYe1u8/mk7KMGwICwitocraK2OimN5xMAwAOoE9el+81z073+40l3WpA+0G1ahy97zievUuK7r/slAAAAAAB61T2dg/dqlfbnkzxYDaBXleEVybLdk9bQD368aSXDq+79F9rD9z0gNrQ85b5WFBtemTT3vqhTWXZfw10lZdlu995G09p2Sc0f1hpOhpbfe9vtZduGyu7rsbbu4wJTI7ullB/6sVMpyX3el3bK8EpPHAAAesvmOzJ7zYdSb/li6oZrk5lNmvTqe7DktUNnXPRmJf6nBwAAAABA76mdtKfK2MeTnKYG0FOGVqR93HPSPvrpaQ56qGE2AABYYurEDZn59CuTLXeJ0Zu+OnzGRQ+VYRsDgAAAAABAT5pcN/p7Sfl1JYBe0lrzuIw8820pu+0vBgAALGHdG/4ts196kxA9qs52146c9ZnLlUgaCQAAAACAXjO1buxZSfk1JYBe0j7uuVn2E39l+A8AAAZAc9ApSWtFV4ke3T+t5tkqfLeFBAAAAABAL9n0pvHRmvxlXMEE6CGt8ZMy8sy3Jk1bDAAAGATNUMqKfaeF6E01eZoK332qSgAAAAAA9IraGVs2O1vfn2QvNYBeUZbvmZHn/pHhPwAAGDTTky0Retaj60cet6cMBgABAAAAgB4ymfrHSR6mBNBLhp/82ykr9xYCAAAGSL3nqtTNd/hXQL2rvXVL82QZDAACAAAAAD1ict3oT5ZSXqYE0EuaBx2V9nHPFQIAAAZJnc3sV/9Yhx5XUp6uggFAAAAAAKAHTKw/dG1S3q0E0FPaIxl+6rqk+HEKAAAMktlL3pJ6238K0fueUjvm37xjBQAAAAAWVe2sHS61+dsky9UAesnIs/8wrdFHCgEAAAOk3vG1dK//hBD94UHTx5z68EGPYAAQAAAAAFhUU2Wqk+RhSgC9pDn4YWkf/TQhAABgkNRuZr/6Jzr0kZI68JcBNgAIAAAAACyaDesPPSnJbygB9Jr2YaeIAAAAA6Z71QWpd10pRB+pxQCgAUAAAAAAYFHc2lm7qlWbv0nSUgPoOSMrNQAAgAFS77w8s//9LiH6TnlEveCx+w1yAQOAAAAAAMCiWF4m316Tw5QAelH3tm+JAAAAA6Lec1VmPvfapDstRv9ptnaHnzzQATwHAAAAAICFNrVu/PSS8nIlgF41e8W/pG68SwgAAFjiutd9LDOffmWyxev/flVKHegBwLanAAAAAACwkDa8+aC963R9txJAL6ub78mWD/xKlp31rqQ9IggAACwVM5tSJ29Mvf2/0r32n1M3XKNJ/3v8ID/4Yv8DAAAAAAtpsjP2Vyn5GSWAflBGVqfZ78i0jjk9Q8efmQytEAUAABZadyaZ2Zg6PZnMbEpmNm4b5JvZmGyd+J+P1e/92fTk//56ZlMyPfW/f9dlfpekmZRDVpxx4Y0D+b7V7gcAAAAAFsrEutHTSsq/x/cmgT5Ulu+Z9iNelKFH/HTKyr0FAQCAH2V2S+r0RLJ1Mulu3fb7rRPJ9MS2wb3u1tTZrdt+PT2x7c+++3mZntz2+9mt2z4fHkAt5YUjz73w/xvI96p2PwAAAACwEOo7Dh+Zumvmv5IcqQbQ19rL0n7waWn2P/q+BwGbdjK88l4fLu2RpL3s3h8fXpG02vfezshuKeWHfpRTmmTZ6vu4zaFt2wEAgF1laI++VP/f8Bmf/qWBfItq5wMAAAAAC2HyzpnfLsXwH7AEzGzOzBUfS674WH/d7/ZIyn0MIKY9kgz94Mfvd1ixPZIMjezYtu93O8u2extlaAe3fb/bGdnpJklShlduG/AEAOg1hvYYeOXxA/vI7XwAAAAAYL5t6Kw5oind/0qyTA0AlhzDlYYrAWBnzNnQ3mSSqieDrjvUlL3Lcy68e+Dejtj3AAAAAMB8qjVl6pzun6Ua/gNgiZrZkjqzZfvOi2rtGMOVhisB+vKN8Gzq5HeSqRtTp25K3Xhz8t3/1023JdNTSXdaJ5hbzWzqY5J8bNAeuFd6AAAAAMC82rh+9CVJnqAEALDDDFfOraHlKa3he3985L6HBMuy3e/9uU2TMrLq3h9v3c/Q49Dy5D5us4ysSprWdt5m635uc3jb9n94G0PLktbI/dxms5232d7W5Yc/935uExhUNXXyO6l3fyN14tpkw3WpE9emTn7bgB8sgtluHhcDgAAAAAAAc+fOt6zZvW7p/q4SAAA9YHpT6vSme3988z33+emGKnfA/Q5X7uig472HDu9/uHJF0hq697Z3dbhyeGXK7gem2e3AlNX7WUESvv+4uPGW1Du+tm3g7+5vpN79zW2r+QE9oSSPG8TH7UwNAAAAAMyb4S2zr03KvkoAALCkLdXhytKk7H5Qmv0enGafB6fZ74g0BxyTZp/Dk9LY7yxttZt6z1XbBv7u+O/UO76auul2XaC3PbJ+9Gkj5ekf2zJID7rY7wAAAADAfNh0zuj4bLdckWREDQAAWDrKyKo0Bx6X5uCHpzX2mLQOPfE+L/UM/aZOfSf11i+n3nppurddmmzdIAr02zkqzeOGzvjUZwfpMVsBEAAAAACYF7Oz5S0phv8AAGCpqVsmM3vNf2T2mv/I9Gf+XzK0PK3RR6Z12ClpH/WUlN0PFIn+0J1Ovf2/0r3ps6k3fyF16juaQL+fo+rsiUkGagDQCoAAAAAAwJzb0Bl9bFPKxfE9SAAAGDAlzYHHpH3UU9M+5pkpexwsCb1lejLdmz6XevN/pHvzF5OZKU1gaZ2G/nL4uRe9dLAeMgAAAADAHKo1ZXL92MUleawaAAAw2JoDjs3QCS9M65hnpQyvEITFMbsl3VsvSf32hel++9PJ7GZNYOm6ZPiMi04cpAdsABAAAAAAmFOT60Z/Mil/pwQAAPA9ZXhlWsc8M0OPfmmafQ4ThPnXnUn3li+kXv/xdG/+fDK7RRMYDJuH9iqry2kXzgzMOdY+BwAAAADmSn3H4SNTd818PcmoGgAAwL2UJq0jn5jhx/5cmoMfrgdz/7504rp0r/vXdK/7WLLlLkFgEI8Ds921I2d95vJBebxtuxwAAAAAmCuTd8++vBj+AwAA7k/tZvbKj2fTlR9P65ATM3Tqq9IaP0kXds3s5nRv+Pd0r/lw6l1X6gGDrlWOTzIwA4BWAAQAAAAA5kTtjC2bKvWbSTlYDQAAYHu1xk/K8BN/M80Bx4jBjr0Pnfx2utf+c7rXfiTZukEQYNuxIeWtI2dc+JuD8nitAAgAAAAAzInJprys1Bj+AwAAdsjsNZ/Npnc/M+2jn5bhJ/5Wyh7eVvBAauotX87st85NveXLSaokwA8fJx46SI/WCoAAAAAAwC7btvpfvpXkIDUAAICdNrQ8w4//xQw99uyksaYR36c7k+5NF6f7jf/PZX6BB1STm0bOuOjAQXm8BgABAAAAgF02sW78l0rqO5QAAADmQrP3eIaffk5a4yeJMehmNqd7zYfS/db7UjfdpgewXYbK9IPKc//j1kF4rAYAAQAAAIBdYvU/AABgfpQMPeKnMvzE30yGlssxaGY2p3vtRzL7jX9MNt+hB7CDZ5DypKEzLvy3QXis1ssFAAAAAHbJZJOzSzX8BwAAzLWa6S+9NzPfujAjz/qDtA49UZJBMLMp3aven9lv/lOy9R49gJ3UfWiSgRgAbOxsAAAAAGBn1c7a4VLzG0oAAADz9r7jruuz+b0vyPTFf5KkCrJUdWfSvebDmf74T2b2sj83/Afs2rmjliMH5bFaARAAAAAA2GlTZeqFcelfAABgvnVns/WTv5/ZGy7JyLPfnrJ8D02WjJruty9K97K/SJ28UQ5gbjR58OA8VAAAAACAnffLEgAAAAtl9pufyqY/f0a6N31NjCWg3vHfmfnUz2f2Cx3Df8CcKnVwBgCL3Q0AAAAA7IyJdaOnlZRPKgEAACy49khGnvW2tNeerkUfqptvT/e//zzd6z8Rl3UG5utQMzQ1srq8+ONTS/6UaF8DAAAAADujpPyKCgAAwKKY2ZIt5/9yurdfleFTXqVHv5jdku43/ymz3/iHZGazHsB8KtOrpg9P8l9L/YEaAAQAAAAAdtg956x5cLrdH1cCAABYPDXTF/1RsvGuDD/1jUlpJOnlvXXrlzP7n3+YOvltMYCFOe50YwAQAAAAAOC+tGfrq2qJn64BAACLbvpL703ddE9Gnv37SWMMouds3ZDZy96d7jUficv9AgupKbNjg/A4nfkAAAAAgB1y9+8eume2dl+cFDEAAICeMPPfH0zdOpllz/vTpDUsSE+o6V77scz+9zuTrRvkABbhKFRGB+Fx+he6AAAAAMAOaU+3XlpTVikBAAD0ktlv/Hs2n/cLSXdGjMW2+Y7Mfu61mb309wz/AYum1HroIDxOA4AAAAAAwI6p9SUiAAAAvWj26/+WLef/kiHARdT99oWZ/refTfem/xADWFRWAAQAAAAA+CEbOmsel+QhSgAAAL1q5op/yZYP/UaSKsZC2nxnZv7jNzP7hY5V/4DeUGIAEAAAAADg+zWl+zIVAACAXjfz1fdn6yd/X4gFUm/+fKb//aWpN39eDKCX7Fk/eNLqpf4g2/YzAAAAALA9bu2s/f/Zu/P4uOp6/+Pvz5ls3VgLiMiOIiAKVsXSJvM9k7RQtBe3iIriAqJsLvd61etad/2574AL1ysuWBcUpbQ0mZO0pbhUNkFQdgWxG0sKbZKZ8/n90YrQpm3SJunMOa/n49GHmKaZfN+f7znzPTOf+Z7JpnUvdxlhAAAAAKh5g0u/IZuynxqffwZhjJV0UNVbLlH61x9LnpIHgJrTX7X9JfVleYzsAAgAAAAAAABgWCbZY6922WSSAAAAAFAvBq76qKp3syvdWPC+v6lSfqvSv/yQ5j8ANavg0VOyPkYaAAEAAAAAAAAMi8u5/S8AAACAOruQqWrg1/8jVfrJYhSl9y9VJXmr/OE7CANAbZ+vXDQAAgAAAAAAAEDfvMOfJekFJAEAAACg3qRr79bA0m8QxGjwqqp/uljVaz8oDT5KHgBqnkVGAyAAAAAAAAAAmFXfRAoAAAAA6tXgsm8qXX07QewEX79alZ63bbzlr5xAANTHuYsdAAEAAAAAAADknc9TJOk0kgAAAABQt6qDGrjqI+Swo9eFa29RpfwW+dqbCQNAXTHTflkfIw2AAAAAAAAAALapLzp0hqSnkgQAAACAela9c6mqd/QSxAilf+9WZck7pQ1rCANA3bHU9876GGkABAAAAAAAALBNUeqvIAUAAAAAWTCw+FOSpwQxLK7qn/9X1d99VKr2EweA+jyTRbZX1sdIAyAAAAAAAACArXKXyfxlJAEAAAAgC9J/3qrKjb8giO2pblD12g8q/fP/kgWA+uaiARAAAAAAAABAfvV97KATJXsaSQAAAADIioHer0hphSC2GtAjqiz9b6X3LyULAHXPRQMgAAAAAAAAgByLPOokBQAAAABZ4g/eq8qfryKIobJ59H5VkvPka24iDACZYDQAAgAAAAAAAMgrd5mkl5IEAAAAgKwZXPoNSU4QT7wGfPDPqiTnytf9jTAAZEmzXzFtYpYHSAMgAAAAAAAAgCGt/8ghJ0g6iCQAAAAAZE36zz+rensvQWziq29QZcm7pP6HCANABk/6e0zJ8vBoAAQAAAAAAAAwpNT0ElIAAAAAkFWDf/g/QpDkD1yryrJ3S5VHCQNAJvWnPjnL46MBEAAAAAAAAMDWnEwEAAAAALKq+tdE/vB9uc4g/Xu3Ktd+QKr2MyEAZJZVBydleXw0AAIAAAAAAADYwrp5hzxF0rNJAgAAAEBmearB6+fndvjpvYtU/f3HpbTCXACQaZEbOwACAAAAAAAAyBnTSZKMIAAAAABkWeWPl0lezd240793q7riM5KnTAIA2VcwdgAEAAAAAAAAkDsnEQEAAACArPO+B1S953e5GnN679Ubd/7LYeMjgHxKXewACAAAAAAAACA/fJ4iSR0kAQAAACAPqrdcmZuxpn+7WtUVn2LnPwD54mrJ8vBoAAQAAAAAAADwJI9Fh02TtA9JAAAAAMiDyi1XSmkl8+NM/7FM1T98muY/ALljpoYsj48GQAAAAAAAAACbcW7/CwAAACA/V0CPrVX13t9ne4yrrlP1dx/htr8Acnqi98YsD48GQAAAAAAAAABP5ikNgAAAAABypXp7kt1LvAf/rMry90vVAQoNIJ9MNAACAAAAAAAAyAefd0iLy15AEgAAAADypHrnsmxe4z1ytyrL3iNVHqPIAHLMmrI8OhoAAQAAAAAAADyuT9HzJDWRBAAAAIA8SR+4Rf7ommwNasNaVa95jzTwCAUGkG+mhiwPjwZAAAAAAAAAAI+LzKeTAgAAAID8cVXvytAugJX1qlzzXvlj/6S0AODmWR4eDYAAAAAAAAAAHufmJ5ICAAAAgDxK/7YiIxd2qaq//7j8ob9QVADYaF2WB0cDIAAAAAAAAIDHmeuFpAAAAAAgj6r335CNcdzwFaX/WEZBAWATNxoAAQAAAAAAAOTAQx878HBJTyEJAAAAAHmUPvBnqTpY32O485dK77ycYgLAExTYARAAAAAAAABAHjSkDdz+FwAAAEB+VQeUrrytbn99X/MnVW/8GnUEgM3Pj1UaAAEAAAAAAADkALf/BQAAAJB36cpb6/L39sf+qcq1H5TSQYoIAJufI7kFMAAAAAAAAIA8cPPppAAAAAAgz9I1d9XfL13tV/XaD0j9D1JAABiCcwtgAAAAAAAAAFnn89Qg6WiSAAAAAJDra6O19dcAWL3+S/KH/krxAGBr50l2AAQAAAAAAACQdet00DMkNZMEAAAAgDxL19xdX7/vPQuU3rOAwgHANkyoNvRleXw0AAIAAAAAAACQLDqWEAAAAADknT94b/38ro/cqer1X6ZoALBtg+pc/EiWB0gDIAAAAAAAAABJRgMgAAAAgNzzgUelwfW1/4sOPqrqtR+WqhsoGgBs67wurTGTZ3mMNAACAAAAAAAAkMxpAAQAAAAASf7Y2pr/Has3fFm+7m8UCwC2w1yrsj5GGgABAAAAAAAAyFw0AAIAAACAJH90TU3/ful9vUrvXUShAGA4Iq3J/hABAAAAAAAA5NrKecdMlnQISQAAAABAbe8A6OtXqXrd5ygSAAyTuVZnfYw0AAIAAAAAAAA5N1mPPkuSkQQAAAAASKr01+bv5amqf/ikNPAINQKA4Z463WkABAAAAAAAAJBtbn4MKQAAAADApmuk6kBN/l7p7fPlq66jQAAwknO62dqsj5EGQAAAAAAAACDnUkWHkgIAAAAAbFIdrLlfyfv+puot36U2ADBCZtwCGAAAAAAAAEDGmXQIKQAAAADAJrXWAOipqn/8f1K1n9oAwIhPoX5f1sdIAyAAAAAAAACQczQAAgAAAMATRIWa+nXS2+fL19xEXQBgR07pVqABEAAAAAAAAEC2ufwQUgAAAACATRqaa+d67dH7Vb3lEmoCADuoErEDIAAAAAAAAIAM83nHNEnanyQAAAAAYCNraKmZ36V6w1ek6gaKAgA7Jm0ZXHV/1gdJAyAAAAAAAACQY49ow0HidUIAAAAA+Lca2QEwvS+RP3At9QCAHbfKXnnzQNYHyQt7AAAAAAAAQI4VuP0vAAAAADyJtey263+JymNKb/waxQCAnfP3PAySBkAAAAAAAAAgxyyiARAAAAAAnnSdNHmfXf47VG/5rnz9aooBADtzPnenARAAAAAAAABAtqWpH0gKAAAAAPBvNnGvXfr43neP0jt+QSEAYGfPp2b35WGcNAACAAAAAAAA+bYvEQAAAADARtY8WWqcsEt/h+qNX5O8SjEAYGfP6dI9eRgnDYAAAAAAAABAjpm0FykAAAAAwKZrpClP2aWP7w8sl//z9xQCAEZB6tEdeRgnDYAAAAAAAABAnkWaSggAAAAAsJFNPWzXPbhXVf3TRRQBAEbrnF5wGgABAAAAAAAAZJxrb0IAAAAAgI2ivXddA2B65+XyR+6mCAAwShqjQRoAAQAAAAAAAGQeOwACAAAAwCa7rAGwsl7VWy+lAAAwelbaqcv6cvHcRa0BAAAAAACAXNuTCAAAAABgo2jq4bvkcdO//kTqf5ACAMDouT03z13UGgAAAAAAAMgnn/fUiZImkgQAAAAASIoaFD3l6PF/3ME+VW//KfkDwOi6Iy8DpQEQAAAAAAAAyKn1DRP2JgUAAAAA2Cja7yipoWXcH7d666XSYB8FAIBRZHIaAAEAAAAAAABkW5qme5ECAAAAAGxUOOA54/+gG9YqvfNywgeAUZZKf83LWGkABAAAAAAAAHIqUsrtfwEAAADgX9dIBxw37o9Z/etlUrWf8AFgtLn/KTfPX1QbAAAAAAAAyKeqrIkUAAAAAGCjwiHTx/cBBx5RetcVBA8Ao6/SNHHybXkZLA2AAAAAAAAAQE6Z0wAIAAAAAJIU7fMM2e5PHdfHrN4+X6o8RvgAMPput1MW5GZ7VRoAAQAAAAAAgJwyt2ZSAAAAAACpcHjb+D7g4KNK7/gFwQPAGDD5zXkaLw2AAAAAAAAAQE6ZVRtJAQAAAACkwuGt4/p46V2/lAbXETwAjMU51owGQAAAAAAAAADZVzV2AAQAAAAAa9lNhUNeOH4PmFaU3nE5wQPA2PlTngZLAyAAAAAAAACQUyZrIgUAAAAAeVd45slSYfwuj9L7Evn6lQQPAGOlkrIDIAAAAAAAAIDsM4kGQAAAAAC513DMi8f18dLbf0roADB2+psefOyveRowDYAAAAAAAABATqVKaQAEAAAAkGs2cU8VDp0+bo/na26SP3grwQPA2LnR3rJiME8DpgEQAAAAAAAAyC1rIAMAAAAAeVZ4ekmKxu/SKP17N6EDwNj6Q94GTAMgAAAAAAAAkFPmKpACAAAAgDwrHDZzXB/P19xM6AAwtmfaFXkbMQ2AAAAAAAAAQF6Z0QAIAAAAIM8XRSocOmP8Hq7aL3/kTmIHgLEURTQAAgAAAAAAAMgJdxoAAQAAAORW9JSjZZP3Gb9LsAdvldIKwQPA2NnQuLIvd1ut0gAIAAAAAAAA5JQZDYAAAAAA8mvcb/+7ltv/AsAYu9HesmIwb4OmARAAAAAAAADIK49oAAQAAACQW4XDWsf3EmwNDYAAMMb+kMdB0wAIAAAAAAAA5FQqdgAEAAAAkFMNLSocNG18r8Ee/DO5A8BYcl+Rx2HTAAgAAAAAAADkVGQ+QAoAAAAA8qhwyAlSQ8u4PZ4/er+0YS3BA8BYnmsVXZPHcdMACAAAAAAAAORUqugRUgAAAACQR4XDZo7r4/labv8LAGNsddPLk9vyOHAaAAEAAAAAAICcMtfDpAAAAAAgjwqHtY3r4/naWwgdAMaQuS8zk+dx7DQAAgAAAAAAADlFAyAAAACAXF4LTd5H0b5PH9fH9DXsAAgAY3x2X5bXkdMACAAAAAAAAORUKucWwAAAAAByp3B4myQbvwes9ssfuZPgAWAsRVqa36EDAAAAAAAAyKUocnYABAAAAJA7hcNmjuvj+YO3SmmF4AFg7PQ3tEz8Y14HTwMgAAAAAAAAkFOFlAZAAAAAAHljKhw6Y1wf0ddy+18AGGO/tVMW9Od18DQAAgAAAAAAADnVPKn/n6QAAAAAIE+ipxwtm7zPuD6mr72F4AFgLM+z5tfk+rmNKQAAAAAAAADkk/33Px+VtIokAAAAAORF4fDWcX/MlAZAABhTkaw73+MHAAAAAAAAkGd3EwEAAACAvCgcNnNcH88fvV/asJbgAWDs9DdUBpbmOQAaAAEAAAAAAIAcMxoAAQAAAORFQ4sKB04b14f0tTeTOwCMrWX2yuXr8xwADYAAAAAAAABAjrn8blIAAAAAkAeFQ06QGlrG95prDbf/BYCxZFJX3jOgARAAAAAAAADIMZfuIQUAAAAAeTDet/+V2AEQAMb8POsRDYBMAwAAAAAAACC/ItddpAAAAAAgDwqHtY7vA1b75Y/cSfAAMHYebkyn/iHvIdAACAAAAAAAAORYVNCfSQEAAABA1tnkfRTt+4xxfUx/8FYprRA+AIzVuV0q2yvnV/OeAw2AAAAAAAAAQI61fOCeuyWtJQkAAAAAWVY4vE2Sjetj+pqbCB4AxvI8656QAg2AAAAAAAAAQK6ZySW7jiQAAAAAZFnhsJnj+4Ab1qr6158QPACMJYseJgQaAAEAAAAAAAAo/SMZAAAAAMguU+HQGeN7lfXANdLAI0QPAGPITRtIgQZAAAAAAAAAAOwACAAAACDDoqccLZu8z/g+6OCjBA8AY8wr+gMp0AAIAAAAAAAA5F7qogEQAAAAQGYVDm8d98e0PZ9J8AAwtnpbXpncTgw0AAIAAAAAAAC5N0V3/8Xk60gCAAAAQBYVDp057o9pU58t2+towgeAsTEgj95NDBvRAAgAAAAAAADknM1T6opuIwkAAAAAWRTtd+SuuNJS4YR5skn7UwAAGF397nZm0yvKvyWKjRqIAAAAAAAAAIDL/2DSNJIAAAAAkCXW0LzeJu31UUm+kz9qgqSWET32hH3V0PaV5sof/1/RV91wjNKBJioCADulW27vaX5F8gei+DcaAAEAAAAAAABIbj+U+VsIAgAAAECmLnUq/RebFT69y3+P/5s9aXCiP8OjwkFSSiMgRi5qiKx5rwmj/nMbJzer0Nw42j/WmnabNOq/a6GpSVFj4+hnMGnyVv+usmF9+rerr2cC7uJzqHt/WtB1E1/S+zfSGOJ4IwIAAAAAAAAAkrTuI4dcJekkkgAAAACQEf80rz530ry/3U8UAICsiogAAAAAAAAAgCSZV98k6T6SAAAAAJABD6UevYLmPwBA1tEACAAAAAAAAECSNGne3+6vRlEs6VbSAAAAAFDHlqSRvXC3eXcuJQoAQNZxC2AAAAAAAAAAT+JfeNqEx9Y1/pe7nyPpqSQCAAAAoA48ItevJfve5Hl3LSIOAEBe0AAIAAAAAAAAYEg+T9Fj0cHPSWVHRrLdSAQAAABATV2zuPfJ9WC1EN2xW/XOO2yeUlIBAAAAAAAAAAAAAAAAAAAAAAAAAAAAAAAAAAAAAAAAAAAAAAAAAAAAAAAAAAAAAAAAAAAAAAAAAAAAAAAAAAAAAAAAAAAAAAAAAAAAAAAAAAAAAAAAAAAAAAAAAAAAAAAAAAAAAAAAAAAAAAAAAAAAAAAAAAAAAAAAAAAAAAAAAAAAAAAAAAAAAAAAAAAAAAAAAAAAAAAAAAAAAAAAAAAAAAAAAAAAAAAAAAAAAAAAAAAAAAAAAAAAAAAAAAAAAAAAAAAAAAAAAAAAAAAAAAAAAAAAAAAAAAAAAAAAAAAAAAAAAAAAAAAAAAAAAAAAAAAAAAAAAAAAAAAAAAAAAAAAAAAAAAAAAAAAAAAAAAAAAAAAAAAAAAAAAAAAAAAAAAAAAAAAAAAAAAAAAAAAAAAAAAAAAAAAAAAAAAAAAAAAAAAAAAAAAAAAAAAAAAAAAAAAAAAAAAAAAAAAAAAAAAAAAAAAAAAAAAAAAAAAAAAAAAAAAAAAAAAAAAAAAAAAAAAAAAAAAAAAAAAAAAAAAAAAAAAAAAAAAAAAAAAAAAAAAAAAAAAAAAAAAAAAAAAAAAAAAAAAAAAAAAAAAAAAAAAAAAAAAAAAAAAAAAAAAAAAAAAAAAAAAAAAAAAAAAAAAAAAAAAAAAAAAAAAAAAAAAAAAAAAAAAAAAAAAAAAAAAAAAAAAAAAAAAAAAAAAAAAAAAAAAAAAAAAAAAAAAAAAAAAAAAAAAAAAAAAAAAAAAAAAAAAAAAAAAAAAAAAAAAAAAAAAAAAAAAAAAAAAAAAAAAAAAAAAAAAAAAAAAAAAAAAAAAAAAAAAAAAAAAAAAAAAAAAAAAAAAAAAAAAAAAAAAAAAAAAAAAAAAAAAAAAAAAAAAAAAAAAAAAAAAAAAAAAAAAAAAAAAAAAAAAAAAAAAAAAAAAAAAAAAAAAAAAAAAAAAAAAAAAAAAAAAAAAAAAAAAAAAAAAAAAAAAAAAAAAAAAAAAAAAAAAAAAAAAAAAAAAAAAAAAAAAAAAAAAAAAAAAAAAAAAAAAAAAAAAAAAAAAAAAAAAAAAAAAAAAAAAAAAAAAAAAAAAAAAAAAAAAAAAAAAAAAAAAAAAAAAAAAAAAAAAAAAAAAAAAAAAAAAAAAAAAAAAAAAAAAAAAAAAAAAAAAAAAAAAAAAAAAAAAAAAAAAAAAAAAAAAAAAAAAAAAAAAAAAAAAAAAAAAAAAAAAAAAAAAAAAAAAAAAAAAAAAAAAAAAAAAAAAAAAAAAAAAAAAAAAAAAAAAAAAAAAAAAAAAAAAAAAAAAAAAAAAAAAAAAAAAAAAAAAAAAAAAAAAAAAAAAAAAAAAAAAAAAAAAAAAAAAAAAAAAAAAAAAAAAAAAAAAAAAAAAAAAAAAAAAAAAAAAAAAAAAAAAAAAAAAAAAAAAAAAAAAAAAAAAAAAAAAAAAAAAAAAAAAAAAAAAAAAAAAAAAAAAAAAAAAAAAAAAAAAAAAAAAAAAAAAAAAAAAAAAAAAAAAAAAAAAAAAAAAAAAAAAAAAAAAAAAAAAAAAAAAAAAAAAAAAAAAAAAAAAAAAAAAAAAAAAAAAAAAAAAAAAAAAAAAAAAAAAAAAAAAAAAAAAAAAAAAAAAAAAAAAAAAAAAAAAAAAAAAAAAAAAAAAAAAAAAAAAAAAAAAAAAAAAAAAAAAAAAAAAAAAAAAAAAAAAAAAAAAAkBtGBAAAIE/a29v3rlR0mFn1YEn7SZoqaaqZ7e3uU91tdzMVJJvo7s1mapJk7uqXJDP1Sar86+e5q1HS5M0eZp2ZBiV/TLJ+SWskX2VmqyStlvSAmf09TdM7kyRZTVUAAAAAAAAAAAAAADuCBkAAAJBB86IQksMkHWdmz05THWOmw9x1mJl2q7Ff9mF33WFmd0rprWZ2vZld393dfackp5YAAAAAAAAAAAAAgK2hAbAGhBBaGhsb93L3lmq1uqeZNadpOlEbdxNat9Xime2WplaQpCjyR919wMzWS9oQRVGfpDVdXV1rSBgAkIPn0qeY2Qx3a5X8BEnP0pa78tUVdz1iphsl/4OkHklL2S0QAAAAAAAAeRBCeKakp2V1fH19fT0rVqwYpNIAAAAYDTQAjrl5UQjJQZKOcI+eLvkRkp5m5vtLto+7njqWOxG5KzXTGklrJP1d0j3uukeyu6PI7xwcHLxl6dKlD1InAEA9CSFMNbPZ7jZL0gzJn56DYbukW8zU6+7dEyZMWLRgwYJHmA0AAAAAAADIGAsh/rOkI7M7RH9VkiSXUWoAAACMygKaCEZPR0fH7pVK5Xh3Oz6KdLy7HSf5MyQ11/iv/g9Jt7jrZjP/Y5qmv+vtLd0mzUupKgCgVtYscRw/193mSOkpkr1AUiHnmQxK6nXXb9yrv+7t7f0r0wQAAAAAAAD1rlQqzU5TX5jxYS5NknIr1QYAAMBooAFwJ3R0dBxUrVZDmqooaaaZnp6hTB+W9HszLU/TqGxWXZ4kyQaqjq0JIb5Q0uFZHJu7/tjTU34PVQbGXxzHz3G3V0t+mqRDSGSbbjbTD939h0mS3E0c2MoxdYa7XpfV8U2Y0PLiBQsW9FPp7Wtvbz+6Wk2/nN0R+keSJFlKpUf9HPJddx1IEiO/vjZTKklpKpf0kJmtl9I+M+uT9JC7P7zpv9dUq9X7J02atJLzGer4XHGMu75EEhhvZrqrXC6fTRI7dNz+xF17ZnReXF0ul/8fVQbqSwilKyR/cfZH6scnSXI9FcdYKxZLnWbOOmn8TZBsN8mnSNpd0h7arJfAXQNmetRdD5rZo+7eZ6Z/uOs+M7/fPbq/UNAdZnZbV1fXGiLFyJ5Pw2mSnUUS2JWq1cprlixZsipv4542bVrj7rvv/vw0TY91t2eY6QDJJkneItlDkj8q2e3uus29cm1vb+/fdvYxG5huwzdjxowpjY2NJ5nZKe6KK5XqIZteRMii3SV1uKvDLP2gZOtDiK8xU7e7X8kFCYZwgqTjsjgwM3fKC4yfUql0sLu/3t1e5e5HbbzzLYbhGHd9QrKPhxBfI/mPmpubf7Rw4cK1RIN/cbfDJO/I6vgaGhoKVHl4KhXtbqbMzgUz+yZVHotziKZLeiZJ7FB2evLrBy7J9O8rjX//dxQVtH79BoUQPyjZA5KvNNO97nanmd/p7nc2NjbeefXVV99PsqhRe0jZfY5BTa91byKFHX6eapO0XxbHlqbi+RKoMx0dHYcNDlZPsRxsYeJuF0g6k6pjHGbbIazRd1n22/xbMzVJajLTnpI//rrBxv81mbnSdOPPCSFe467bokg3S/qDu/9O0p+SJKmQM7aCYx+7nJm15GWs06dPn9DS0vLSTZvbxGnqkzaeyzd/Tvj3/5pJZgWFEN/url81NETf6+rqunFHHp8GwO1oa2s7tFAozHX3F7tbUVJTTluBJkhqd1e7ZJ8IIb7bXb8qFOyXaZr2srAAAOyMEEKDmb0oTXV2teonmymi8W/H19KSZkg2o79/4HMhxJeZ6Zvlcvm3RAMAQF3ZU/I9JR218XUI39QkaBocrCiEeIOk29x1s5ndJKV/0sYX/u8mOgAAANSrwcHqeRtfG8w+M726vb393ezqBWCY9jbTie46UdKbN20muL5YjK8zs3IUqTtN02u4qx8AjK8QwlQze5u7zt+4u/4Ovcd9hJn+s1pN/7NYjK+JIn2iXC4v0Ah+GA2AQ2htbd2nUGg8TUpfI9kL3WVP7sqEpEPM9LY09bdJtiqE+CdRZD/s7u5eLjo2AADD1N7evl+lkp4r6Ux3HcBz7ahrkfR6d70+hNJ17vqmWfp9XgAAACAzz/PPMdNz/rWjoCQVi/EjZrpOsmul9NpqtfrbJUuW/IO4AAAAUOtmz549aWBg8I05GvKENE3PlMStygHs8HnETCdKfmKa6v2b7uq3TLLfRJF+0d3dfQ8RAcDY6OzsLKxevfo8d33UXbuP1s/d1Oz9m2Ix7o0inVsul28ezr+jAXCTOXPmNK9fv/6l7vY6M82WvOFfL55ju/aRdF6a+nnFYnynpEsbGwvfWbx48b1EAwAYSltb29OjqPBf1Wr6ejO1kMh48OPNdLFkHwuh9KWGhuibixcvfphcAADIFjPtJqkoeVEyFQoNKhbje820XLIkTStdvb29fyUpAAAA1JrBwcHTJe2ZpzG769zOzs7Pz58/v8oMADAKJkjqkLwjTfXFEOIVkv+iUCjM7+rq+gvxAMDoaGtrO3TlytU/NtMLxuoxzNTmrutCKH0oSbo/o+1sxtZAUdoOjaKGtzz22IY3mtm+7Dy00xPwMEkfqlSq7w8hXGlmF5bLxaukeSnpAABCCM+T7L3ueqmUj1t51KD9JP9UpVJ9bxzH32hsbPzSokWLVhILAACZvlY/SNJBkp8WRQUVi/G9UaQud++qVquLlixZsoqUAAAAsKu52/k5vMnUwatWrZor6XJmAIAxME2yadVq+vFiMb5Gsv9tbIx+wuYAALDjQggnS/YjSXts51sfddcyM7/RzO5y9zXu0b96p6ZGkR/qrue76wVmmriVn9Eo+aeKxbi1Uhl41bJly/q29mB5bQC0EMJJkt7mbidJHtH4N+oKks1119wQeu6WwpckfSdJknVEAwD5E8fxMe7+McleIsl43q0Ju7vrfwYGBt8WQvjihAkTPrtgwYJHiAUAgOwz00HueqNkbywUGqohhGsk/TKKosu7u7vvICEAAACMtxBCkPzYPI7d3S4QDYAAxv61gBMlP7FSqX65WIznR5G+Ui6XV5AMAIxozXq6ZJdIatzKt1TN9HNJ33vkkUcWrVixYnB7P3P69OkTWlpaTnHXWZJO0hC3qzXTKY2NTeXZs2efsrWNXXLVANjZ2VlYtWpVp2TvkXTcppAw9g6R7EuSPhzH8YXu/pUkSR4gFgDIvo6OjsOq1eq8NNXpZsaOf7VpkmQfWL9+w1uLxfiTEye2fGPBggX9xAIAQG4UJGuV1Jqm/rkQSje5+y+iSD8sl8u3EQ8AAADGh52f25Gb4jiOjymXyzczDwCMgwlmOsNdZ4QQL3O3L5ulv0iSpEI0ALB1cRy/Mk31f2ZD3+XOTD8ysw+O9APWy5cvXy/pZ5J+1t7e/uxqNf2CpPYhvnXawMDgoo6OjuJQO7nm4o34zs7OphBKb121avVtm7ZhPI6puUvs6a7/keyuYjH+cgjhKUQCANnU0dGxewjhi5VK9VZ3vW5rCyHUlKlm+sL69Rtui+P4lcQBAEBe+bFm+pC7bi0W498Wi6ULZs+evS+5AAAAYKy0tbUdKOnUHEdgks5jJgDYBWaY+U8k+0sI4axp06Y1EgkAbCmO42Ka6vtbec/7H+7R7HK5/JqdvbtKV1fXjUlS7nC3N0l6dIhveU6lUr08hLDFhn8ZfzN+XhTH8RkbG//8m5IOZ1rWhBYzvc3d7gghfLa1tXUfIgGAzLAQwhsqleptkr1DW9/+GLXrYHddFkK8OITwTOIAACDHCzvTC8z8KwMDg/eFULoijuMXSfP4YAcAAABGVaFQOEc5u2vZ5tz1uo6Ojt2ZDQB2kUMl+9aUKbv9pVgsvbmzs7OJSABgo/b29v3c9SMzDXVu/G1TU+NxPT1dV4/mY/b0dF9iphMk/W2Ivw7u9onNv5jZF23jOD41hJ4b3fU9SYcwJWuPmSZK9q5CoeGOEML7p0+fPoFUAKCun3unhRBfI9klkvYjkfpfz7rbDSGUPj179uxJxAEAQK41SP5id/06hJ7b4zh+dwhhKrEAAABgZ4UQWtx1FklocqWSvpEYAOxih5j5xatWrb4ljuOXEwcASNWqf1vS/lv+jZebmhrbFy1atHIsHrdcLt+cptUZku7a/O/M9N/FYnv8xK9lrgGwra3t+BDipe66XNIxTMW6MEWyjzc1tdwax/FrtHGrcwBAnQghtBSL8Wfc9VtJLySR7Nj4SRZ/z8DA4J9KpVKJRAAAgKRD3fUZyf4WQumSOI557QUAAAA741WSuFOUJMnPY8dtADXicHf9NITQG0J4HnEAyKtisfRSyV+8xarN9cfBwcFTFy1a9OhYPn5vb+/fCoXoZHet3eyvTEq/9sRbt2dmO+2ZM2fu2dDQ+DFJb5VUYBrWHzMd5K4fhBBfIPk5SZJcTyoAUNtKpdKJaerfMRO3is22Q9LUF4cQvt7U1PTesV7MAgCAutAi+RvSVGeEEF9hpk+Vy+XfEgsAAABGxs4ng8cdEcc9J5fLupIoANTIObrVXb8NIb6kubnp3QsXLlxLJgDyIoTQIPlnh/irB8385cuWLet7wvc+raGhYcS3T0/TtL+7u/u+bX1PV1fXX0IIZ0r2cz1hQzUzHT1lypSzJX1dysYOgBZCOLOhofE2SeeJ5r8seKFkvw+h9DluOQgAtWn69OkTQghfrFZ9iUTzX16u9CU7f2Bg8IZGcMk+AABxO0lEQVRisb2VOAAAgCSZKZJ0qruuLRbjrs1vPQEAAABsTalUOlHSNJL4N3enIRJALV73n9nfP3BLsVh6NYkAyJFXSTp8iPPiO5IkufvJazj7TaVSvWOkf9LU/14sxv8MIXx29uzZ+27tF0mS5HLJfrDl2tHe/a9dAOu6AbCtre3QEEKXZN8W24NnTYPk/zUwMHhzHMenEAcA1NTz71FNTS3XSvaOTRd+yJfDzdJyCOHD3JIEAAA8kZlKZml3CPFVbW1tx5MIAAAAtoVmt6EysZPa2tqeThIAatB+Zv7DEMKVbW1tBxIHgOyztw/xxWXlcvn7o/oopn0le9fAwOD1IYQXbu37GhsL73HXY5v924OmTJnyMql+GwAtjuOzo6hwo2R8sjzbDnbXb+I4/snMmTP3JA4A2LXiOD4jigq/N9OzSSPXCpLNCyFZ3Nrauj9xAACAzZwURYUVcRz/hDcvAQAAMJTW1tb901QvJ4knM1MURQ3nkQSAGj5TzYmiwk0hhNPJAkBWtbe3Hy3peZt/PYrso5J8jB52f8mu7OjoOGyov7z66qvvN9MlQ5yXXyfVYQPgxl3/4m53XSRpMtMuH9zV2dDQ+Mc4joukAQDjb8aMGVNCiC911/ckcXt2/GtBGRcKDStCCIEsAADA5gsFd3VGUeHmEMJnQwi8hgMAAIDHFQqNbzFTE0kMxd/A+hlAjdtdsktDKF0yY8aMKcQBIGuq1WrnEF++tbu7e9EYP/Seg4PVz259DR19Y4gvn9TR0bF7XTUAFoulzigqXCcpMN1y6ZA0VXexGH8mhNBAHAAwPjo6Og5rbGy6RhKf5sJQ9pdscQjh7UQBAACG0CjZuyS7NYRwGnEAAACgs7OzSfKzSWKrdjezM4gBQO3zNzQ2Nv2xvb2du0YByNbZza20+dfMNNJb//ZJenAbf7bmJaVS6YCh/qKrq+sWyW7a7MsNg4NpW100UYUQWiR9UfK3Ms3yzUyRpHdLNiOE8KokSf5OKgAwduI4bq9UqpdJ2ps0sA0Fyb5ULMZHr1v3yPkrVqwYJBIAALCZAyT7cbEYnx1FOrdcLt9GJAAAAPm0evXqV0janyS2Lk11nqRvauxuMQcAo+WIajW9plgsvbmnp/tHxAGg3k2bNq3RTCds/nUzu2okP8dMc8rl8rKt/X17e/veaZp+0V2v2+zfRe7+Qkk/G+rfufvVZjr2iV+LIm+t+R0AQwjPdLffSkbzH55ohmTXhRBOJgoAGBvFYukCd10lmv8w/IXs2VOmTFl40kkn7UUaAABgK+uFkruui+P4P6V5EYkAAADkj7ufTwrbXTcfHcdxiSQA1IlJZv7DOI6/wJ38ANS7KVOmHC6pebMv93V3t10/mo/T1dW1ZurUqWe5697N/y5NbRvvtdq1W66v7aiafqE1hPBid/utmdgyFkOZ6m6/ieP4fZKMOABgtMyLisX462b+FUlcqGGELO7vH/htqVQ6nCwAAMBWTHDX50Po6QkhHEEcAAAA+RHH8TTJppPE9rnrAlIAUGfnrXdK9usZM2ZMIQ0A9Xsui54+xJdvk+alo/1Y8+fPH5B0/eZfN0vXb/33q9y+5df8GbXaAGghlN7rbr80025ML2x1opgid30ihNIPp0+fPoFEAGDnzJkzpzmE3svMdC5pYCcckaa+pL29nQ9xAACAbZkp2fXFYukcogAAAMgHmtpG5MUhhEOIAUCdOamxsbln1qxZTyUKAPXILN1riDXsvWP3eBZt+XiF27b2/VEU/WPLn6G9aq4BcPr06RPiOP6B5J8yE7eCwXAvGV/V3NyyJITwNLIAgB0zZ86c3davX79A8leQBkbB/tVqmpRKpROJAgAAbMMkM/9GHMc/mTNnDh8CBQAAyLDW1tZ9JJ1GEsNWMDM+qA2gDvnxAwOV5e3t7UeTBYD6E22xi6mZ+kb7UebOnTuxra3tKMmfv9lf/amnp+sPW/t3lUqlf4uzrmu3mmqwCyFMbWpqSdz1aiYUdsA0yZaHEJ5FFAAwMrNnz953/fr+RLKYNDCK9kxTXxRCOJkoAADAtrirc/36DSva2tqOJw0AAIBsiqKGsyS1kMTwpanO5A5YAOqRmQ6qVNJyR0fHYaQBoM5WYL75V9xlo/kIcRxP6+tb92gUFW6RtN8TH8pM50vyrf3bhoaGwpBr7VqJr1QqHSzZUjO9gMmEnfA0yZaUSqU2ogCA4Wlvb9+vv3+wLDlvtmIsTHK3X8ZxfApRAACA7TgiigrXFIulNxMFAABAtoQQGsx0DkmMjJn2am5ufg1JAKjTc9i+lUr1ypNOOmkv0gBQR9ZteT7zKeN03vxauVzu2db3NDQ07DbEv+trqJFF/7PS1K+SdADzCKNgjzT1hXEcv7ZcLv+MOABg69rb2/erVNJuM7ENO8Zysdrkrp+FEOYmSbKYRAAAwDa0mPnFIZSO2Wefvf9r/vz5VSIBAACof2Z2qrsOJIkdSu8CSd8hBwB16sj+/v7L58yZM2vBggX9xAGgDqwZYj120A78nNNDCDO38ndb9Me568p99pn6zu390MFBP9hsi3+7ZpfvABjH8QzJekXzH0ZXi7suKxZLryMKABgazX8Y/+dm+2Ucx0WiAAAA2+dvX7ly9a/mzJmzG1kAAABkYHXnOp8UdthzisX2VmIAUL+sdf36DV8nBwD1oFAo/GWILx/Z2dlZGOH69xzJPj3UH3ddsNn3XmPmpw3nw9Bm1aO3/Jr+uksbAIvF9lZ3XSVpT6YQxuK4lPx/QwhnEgUAPFl7e/ve1WraRfMfxvUS3zTRXb8ulUonkgYAABjG2uGU9es3LCuVSgeTBgAAQP1qa2s7VlIgiZ2R0kAJoN6dGcfxm4gBQK2rVqt3Stqw2Zcnr1y59rlj84j++8bGwilJkqwb1ne7tQ3x1T/vsgbAUqnUZpZeKWky0wdjxUyRZN8KofRW0gCAjebOnTuxWq1eIekY0sAuMDlN/VdxHB9JFAAAYBielaa+tK2t7SiiAAAAqE9mBZrXdjpDvbRUKnE3NQB1zV1fCyEcRxIAalmSJBXJl2+5HqueMsKz3pxKZXCvJ/4x09u3/L7otsWLFz88nJ/Y2dnZJKljy9/NluySBsBSqdSWpv4b0fyHcboukvwbfKIAAKQQQkNf36OXSTadNLAL7Z2murK9vX0/ogAAAMPwtCgq9MRxPI0oAAAA6svMmTP3lPRakthpjWmastkFgHo3QYp+Mnfu3IlEAaC2Rd1bfs1eK8mG+xPMrG/p0qUPPvFPuVz+qrs2+9n+2jiO/2M4P3PVqlWnmGmvzb5cGRwcHP8GwDiOZ6Sps/Mfxpu56+JisdRJFADyfC6U7ELJX0wU2OWT0XRYtVq9Yvbs2ZNIAwAADMM+aaruUqnURhQAAAD1o6Gh4U1motFjFLjb2XPmzGkmCQB1fjZ7el9f32fIAUAtKxTsJ0N8+YgQwot2eknn1bMkrXvyF3XhSSedtNcw1oPvHOKrVy9duvTBcW0AbG9vPzpN9StJvNGLXXKMSn5pCOFkogCQRyGED0k6kyRQO+z5AwMDP5LmRWQBAAC2u3Iw7Vat+oI4joukAQAAUA/mRe52LjmM2np438ce638lSQDIwBntvDiO28kBQK3q6ur6i6Rrhzh/fXhn39fs7e29y93evdmX9x8YGPjStv5dCKHDTG1brhHtUkkatzdbQwhPq1bTq4bYihAYz4ujJnf7WRzHJ5AGgDyJ4/hlGxckQM09O88Nofej5AAAAIZ5XT/RXVdwXQ8AAFD7isXeF5npMJIYTX4+GQDIwuW9u74TQuCukQBq90Rl+uIQX35eHPectbM/u6en+8LNbwXsrtcVi6W5Q31/Z2dnkxR9ZYi/+tvUqVN/Ko1TA+DMmTP3lOwqSQcyRVADB+nENNWv2traDiUNAHnQ1tZ2rLu+J8lIA7XJ3xfH8ankAAAAhmmKuxaEEI4jCgAAgFpGs9poM9ML+DAMgIw4WNL7iQFArZo6derPJN22xQrX9bn29vZn7OxC2czP1Ga3Ajbzi4a6FfDq1as/LflRQ6wNPzd//vwBaRwaADs7O5sKhcbLJR3D9EANXSDtG0UNvwkh7EEaALKsvb19b7PC5ZL4FBVq+qk5TfV/cRwfSRQAAGCY9pRs0Si82AYAAIAxEEJ4pplmkcToczcaKwFk5Xz2n1zXA6hV8+fPr7rbO4f4qynVavqzjZvh7bgkSe4ezq2A4zh+jbveMcSPuHXq1KkX/uv/jHkD4OrVq7821D2IgRpYUhzlbj+bNm1aI1kAyKZ5UbWa/pjbbKAemGm3NNXP2fIfAACMwD7VavqbEMJUogAAAKg554k7kowR72xvb9+PHADUOzM1Vavpl0kCQK3q6eleIOlnQ/zVsxoaGq/o6OjYXZKiSD9z18VP/GNmDwzj51/ork8+8d+lqdbPmjXrqZJULJbmpqkuGWJd7ZJf8K/d/ySpYSyDCCGc5643MyVQw4uK0pQpu39WGrJbFgDqWgjJ/0jWQRKoo+flo93ty5LOJA0AADBMR0j2izlz5nQsWLCgnzgAAAB2vTlz5uy2fv2G15PEmGmuVNKzJX2MKABkwMlxHLeXy+UuogBQiwqF6C2VSvp8Mx202V/NqFSqSVtb23+Uy+WP7uCP956e8pC3Qy8WS282829oyN4++0KSlBc/8StjtgNgsdgeS/ZFpgJqn789hHA6OQDIklKpdKJk80gC9cZMbwohvIIkAADACMzcsGHDUJ+EBQAAwC6wfn3/GZKmkMTYMdNbuMMVgKxwdxqaAdSsrq6uNWZ+mqT1Q/z1cVFUuC6E8JLRerwQwh7FYvw9M79YQzb/+ZJ99tn7fZt/dUwaADs6Og4yS38iiYUn6mRRYRfHcfwckgCQBSGEPdLUf6Ax3ukXGMPn5YtCCE8jCQAAMPz1g14dQngfSQAAAOxyJvn5xDDmDpgyZcrLiAFARp46psdx/CJyAFCrkiS51kyvklQZ4q/3luwXIYRftbW1Hbujj9HZ2dkUx/HZ7nabmc7Yyrf9qVKpnPrEW//+y6g3AIYQGiqV6g8kTWUKoG6WFKaJ7vrpjBkz+EQagAyc0+xiSYeQBOr4eXkvd/ueNC8iDQAAMIJVxEfiOG4nBwAAgF2nVCrNknQkSYzL+pdGSwCZ4a55pACglpXL5V+Z6TRJG7ayNpsbRYUbisX4N8ViqXP27NmThvNz29vbnxFCad6qVatvd9dFZtp3Kz//OslnLV269MGh/nYsdgb6sKSZlB516IiGhqavSXo9UQCoVyGE09zVSRKod2YqhZCckyT6OmkAAIBhKrjrB7NmzXru1VdffT9xAAAAjL801QWkMG5mtrW1Hd/b23sdUQDIgOfFcVwsl8s9RAGgVpXL5Z/HcXyyu+ZL2meIbzEznSL5Kf39gwMhxL8z003u9hcp7TOz9ZImp6kOMNORkl5YraYHD+Ohr5owofm0BQsWPLK1bxjVXVVKpVLJ3bjdCuqWmc6I4/g1JAGgHrW2tu4j2VdJAlnhbp/kVsAAAGCE9hscrFwWQmggCgAAgPHV0dFxmLufQhLjx6zALoAAMsNd7yQFALWuXC73RJEdL6ln2+s0NUma6a5zJP+iZN921w827fL3IUmnSdpe89+gZP+TJMUXbav5TxrFBsAQwtQ09UvNxK3aUO8Li2+0tbUdShIA6k2h0PBVDf1JA6AumWk3yb5GEgAAYIRmutsHiQEAAGB8VSrpubxPOL7M9Or29va9SQJAFrhrbltb29NJAkCt6+7uvi9JyrGZzpS0eozOid1mOj5Juj8tzUu39/2juAiPvippf8qMDNg9igrflWREAaBeFIull2rjpwQwuvol/UGySyX7vLv+U/LXSh6b6XlRZCe522skP99MH5b8a+7qlrSG6EbNqXEcv5wYAADASJjpfSGE55EEAADA+Jg9e/Ykyd9EEuNuQpqmZxIDgIxcy0dRFJ1NEgDqhJfL5e8ODg4cJtn/SPrnKP3cHjOd3NNTbi+XyzcP9x+Nyu1QNjYd+KuoLTIkFIult/b0dH+TKADU/AkrhMmSc+vf0bm8/LOZJ+6+Ik3TPz766KN/WrFixeCO/KRZs2Y9tVKpHCvpOe4qSSpKaiHjkUtTfSWEsDBJknWkAQAAhqnB3b4XQpiWJMkG4gAAABhbg4ODp0vakyTGn7vO7ezs/Pz8+fOrpAGg/tnpIYT/SZKkQhYA6sGyZcv6JH26s7PzC6tXr56TpnqNmdolDXuXZnfdIunyKNIPR9L090Q73QDY3t6+d7WafoOSInNLC/PPlEqlK7u7u+8hDQC1fb6y97nrAJLYIYOSeiX7dRTpiu7u7jtG6wdfffXV90u6X9JCSf9v7ty5E9etWxfcfY67nWKmw4h/uHNcT5Wi90r6AGkAAIARrCGOlvQxSf9NGgAAAGPL3c6XnCB2jYNXrVo1V9LlRAEgA/Y3s9mSriQKbEePNr7Ph5peI3puPpg7f/78AUm/3PhnXhTHPcemqT3bTEdK2s/Md3e3RjNfn6Z6UNLdUaTboij6bVdX107vHrjTDYDVavplSU9h2iKDpqSpXyTpZKIAUKtCCEdsvC0tRugGyS5saIh+tHjx4ofH4wGvuOKKxzZdsF4p6YI4jmekqc42U6ekCZRku5cI/9nR0XHx4sWL7yULAAAwfPbOOI5/XC6XV5AFAADA2AghBMmPJYldx90uEA2AADIiTfV60QCI7T/7vSJJktXkgNo0Ly2XdYOkG8brEaOd+cfFYvssSadTOGTYScViqZMYANSwL0hqJoZh6Zfs0iiyGUlSPi5Jui8cr+a/oZTL5WU9PeXXS/5Ud3ubpJsp0TZNqFarnyYGAAAwQgV3fV2aFxEFAADAWLHzyWAXV8AUx3F8DEkAyMg57ZQQQgtJAMDw7fAOgJ2dnU2rVq3+ChGODXfdb6abJPuHu98fRfpnmto/osjXSmpIU9stinxPSXu46yDJD5PsUEmHikaQUV5g+Odnz5595aJFix4lDQC1JI7jk9w1lyS2q99MF7v7J5Ok/ECt/XJJkjwk6auSvlYsll5hpo9IfhRlG3J99KoQwleSJLmWNAAAo/Ts8iozu31sriXNoyh6aMOGDQ8uXbr0IUne2dlZ+Mc//rHbxIkTG6vV6lR3n1qtaj8zHS7pSMmfKekYSVOozag6IYTkTUmibxMFRuG88S4zS8ih9kSRrScFABh/bW1tB0o6lSR2OZN0nqRziQJABkw2s3ZJvyEKABieHW4AXLly9dvN9Ewi3HnuekRSEkVaIWlFpVL545IlS/6xIz9r2rRpjVOmTDnGPXp+FPnz3W0mTQQ77cD+/sH3SXo/UQCoIeZun5KcJLauaqb/M7OPdHd331MPS4Kenu75nZ2dP1+9evXp7pqnjY39eMK8l+zjkjqIAgAwGtI0vaW3t/em8Xq8+fPnVyU9uOn/rhzqezo7Owtr1649plr1EyXNkPxkSVOp1k4vIz7V3t7+i66urjVkgZ10B7eUBgDg3wqFwjnuO/5+I0aPu14XQnjfpg8cA0BdS1P9h2gABIBh26EF+axZs546OFj5IPHt1CL8Tkm/NvMr9t13n9758+cPjMbPXbFixaCk6zf9+ZYklUqlg9M0PVmyOZJOksR2uSNkpv8KIVySJMntpAGgFhSLpVdIfjxJbNViyS8ol5Nb6+0X39QY8H/Tpk370ZQpU97mbh8100RK+rj2YrG9taenawlRAACyaNNa4MZNfy7s7OwsrFmz5oQ0TedKdpr4gMCOmpqm6YclvY0oAAAARkcIocVdZ5FEzZgsRW+Q9CWiQJ64q9dMAzXy65ikPTb950TJ95S0j6QClRqxFxMBAAzfDjUAViqVT4vb0eyIhyT7XppWvjOeOwxs2vXoIkkXdXR07F6pVF4h2evc1WqmiLIMS7O7fULSaUQBYFfr7OwsrFq15iMksbXnWn9XkiTfVZ1vj7ipqf/zIYRfSvZtSUXK+y/pPEnt5AAAyINNDYHXbPrzvjiO29ztDZJ3SppEQiNYQaR6S1tb2xd7e3vvIg0AAIBR8SptbGxBzfDzpHlfkealZIG8aG5u7Fy0aNHKGv4VrbW1dWoUNR0SRenTJT3TXc+VdILY8X/roZme2t7e/oyurq6/kAYAbN+IGwDb2tqOTVOdbkZ4I/AHyS+cMmXKj6644orHduUvsnjx4oclfUfSd0ql0uHVqr/NTG+SNJkybXeR0RlC+GySJH8gDQC70qpVq14rGbd334y7ftXU1HDO1VdffX+WxrVp99m4WCy91cw/Iz6EITOV2AUQAJDXJU+5XO6R1HPSSSf9V39//zmSXSBpP6IZ1hqiKYoKH5F0BmkAAACMygrrfDKoOUfEcc/J5bKuJAqgdq7llyxZskrSKkm/f+JfxHF8pLufLNmL3dVmpibi+rdqtdomiQZAABiGEe/+FkXRJ9g1bpjP5K5eyVuTpPz8JEm+s6ub/zbX3d19R09P+e2VyuBBkr9306ID27iSlexTxABgV+rs7CxI9kGSeJJ+M72lp6d8ataa/564rOjp6f5mQ0PhOHfdSMklsyrHAQAg1xYuXLg2SZJPTJjQcrCZzpP0AKlsX5rq9BDCs0gCAABg5xSL7dMlTSOJ2uPuNGYCdaJcLt+WJMmXk6Q8y8wPkOyd7rqFZDYyszZSAIDhGVEjX6lUOlGyucS2XSskn9PTUy4mSbK01n/ZpUuXPpgkyWcGBwcOd9dHJa2jhFvVEULoIAYAu8rKlWteJulwknjcfZKHcrl8cR4Gu3jx4jubmxtPlOynlN5mtbe3P5scAAB5t2DBgv5yufyNpqbGI9z1IUl9pLKNFYQpkqKPkQQAAMDOiaL0AlKoTe52Ultb29NJAqgvSZKsTpLuL/X0lJ/lbv8haQXnM53IzACAYa7PR/LNaeqfJLJtus/dXrlpx7+r6u2XX7ZsWV9PT/nDTU2Nh5vpW5Kckg7pQ0QAYBde7ryLDB7PYkmhEE1LkuTaPI160aJFjyZJ9ysl/4C70jzPgEolfTvHAQAA/14j9PSUP9bY2PBMd/2cRLaxinT/j7a2tqNIAgAAYMe0trbun6Z6OUnUJjNFUdRwHkkA9XvZ2tPTfUWSlJ8v+WvdtTLHWRw2Y8aMKUwJANi+YTcAhhCCpCKRDf0kLNm3JX9WT0/3fNV549yiRYtWlsvls92joqRbKe8Wl06tpVKJ7YYBjLs4jotmegFJSO76YV9fX3tXV9c/8xpBkiSfiCK9TFJ/bp+RTa+ZPXv2vhwRAAD829VXX31/T0/55WZ6iaT7SGTINURkVuCDNQAAADuoUGh8i5maSKKW+RtCCJPJAajvAzlJkh+0tDQdZab5eb2Eb25uPpapAADbN4IdAO09xDWku8w0K0m635wkyUNZGlhPT9eSCRNajpPsE5KqlPrfqlV/PykAGPcrPTfepNzoOz09xdetWLFiMO9BlMvlX7rbSyVtyGkELYODg2/lkAAAYOh1QqEQPcddvyKNLZnp9FmzZj2VJAAAAEams7OzSfKzSaLm7W5mZxADUP8WLly4tlwunybZfyuH79mnqZ7NLACA7RtWA2Acx8+RdBJxbc5+LPmzy+VyV1ZHuGDBgv4k6f6AezTLXfdT802VN80uFtufTxIAxktHR8dh7n4K5199NUnKb5bmpcyKjXp6uhds2uEnl02A7nprCKGBmQAAwJa6urrW9PSUX2KmtyvHuwZvRXOlUnkHMQAAAIzMypVrXi5pf5KofWmq8yQZSQCZ4EnS/TnJT5dUydXA3Y+i/ACwfcNqAExTvZsF4pNUJH9XknS/OkmSdXkYcE9PVzlNK8dJWkj5Nx08UfpOUgAwXqrV6llmI9m5N4vs8+Vy+W2SnBnxZOVyeWEU2amS1udw+PubGR9UAQBg67xcLn9F8g5Jq4nj39JUZ4YQWkgCAABg+MzSC0ihXmqlo0MI7SQBZEeSJJe52xnK0fskZnYQlQeA7dtuI0EI4RAzvZKoHrcqiuykJEk+n7eBL1myZNU++0x9keRfYxpI7noFtwsCMB6mTZvW6K435vyc+8Mk6f5vZsPWdXd3LzLTq9yV5nB+vJEZAADAtiVJsrShoXCCZH8mjY3MtJekl5MEAADA8MRxPE2y6SRRV6ve88kAyJaenu4fSfbJHA35YKoOANs3jJ2EordK4rZqG90u+Qu6u7u78xrA/Pnzq0mSXLDp9kHVnM+Hxkql8lYOCwBjbcqUKadKekqer2cnTmx5k9j5b7vK5fKvokgfzNu43TU3hDCVGQAAwLYtXrz4zkplYIak35LGv9ibyQAAAGB43MXuf/XnxSGEQ4gByJYkafuQpCQfzz1OAyAADMM2GwDnzJnTLPmbiEly1y3VaqUtSZK7SUMql8tfMdNpkgZzPi/O3nicAMBYnmty/abkrZXK4EsXLFjQz0wY9nP0pyT7cZ7GbKYmM3sN1QcAYPuWLl364IQJLbMlLSUNSVJbHMdHEgMAAMC2tba27iPpNJKoOwUzO5cYgKyZl6Zp9Vzl4L16M+3V2dnZRM0BYNu22QC4YcOGl0vah5h0fZpWwpIlS/5BFP9WLpd/ZqZOdw3kOIb91q9f/1JmA4CxEkJ4ipnaczr8hxsaCi9aunTpg8yEEfH+/vVvkrQiV4N2vZrSAwAwPAsWLHikqanxZHf1kobM3d5IDAAAANsWRQ1nSWohifqTpjpz+vTpE0gCyJbe3t4/S/71PIz1gQce2J2KA8B21uvb+kt35/am0h8qlcHSkiVLVhHFlsrl8i8le0W+mwDt9cwEAGPFPeqUVMjl2dV07uLFi+9kFozc8uXL1zc0FF7mrkdyNOwTQghPo/oAAAzPokWLHjXzUyW7iTT8NElGDgAAAEMLITSY6RySqE9m2qu5uZm7ZwAZ1NDQ8EVJleyfx2wPqg0A27bVBsD29vajJWvNeT53NTU1svPQdvT0dF8RRXqjJM9pBLNKpdIBzAQAY3NR46flc9z6frlc/iEzYMctXrz4Xsneladp4x6xKy8AACOQJMlDUaQ57ro351EcUiqVns+MAAAAGJqZnSrpwIwPM+PvcdkFzGQgeza9D3B59p+HGveg2gCwbVttAKxU0tPzHIy71kp+yqJFi1YyTbavXC7/0F3vz+nwC2mq1zELAIy2tra2AyWdmMPn4DtbWlrOZwbsvJ6e7m9LfnVexmvmL6PqAACMTHd3931m/iJJj+Y5hzTVK5kNAAAAQ3NX1l+r65P8yxkf43OKxfZWZjOQPWY+PwfD5Bb0ALAd0VafJ0yvznEu/YWCvTRJkluZIsPX01P+lJm+ldPhn8EMADDaCoVCp/J3KzI389cvWLDgEWbA6OQZRdGbJfXlZLyts2fP3peyAwAwMkmS/Mnd3pzrRZN7HtfeAAAA29XW1naspJDx1eAP0jT9gqRqtseZ8qFrIJvXs4skDZIEAOTbkA2ApVJpuqRD8/skaed0d3f3Mj1GburUqee763c5nDVHxXF8DDMAwOg+H2lu/kZtP0iSZCnVHz3d3d33mOm9ORluob+/chJVBwBg5Hp6un9kpq/mdfxmOiiO4+cyEwAAADZfJxXOz/4Y7cLe3t6/Sfp1xte8Ly2VSgcwq4FsSZLkIcmvz/b5q+pUGgC2bcgGwDT11+T4UuanPT3dlzA1dsz8+fMHGhsLnZLW5G3s7v4KZgCA0TJnzpzdJM3I2bDXNTYW3kP1R9/UqVMvkpSLnY3NvJ2KAwCww2uGd7nrxryOP001m1kAAADwbyGEPcx0epbH6K5ryuXyDZv+34UZL2ljmqZvZWYDWWS3ZHp0ZjQAAsB2DNEAOC+SlNdGprsbGqKzmBY7Z/Hixfea6U2ScvZEHL2c6gMYLRs2bOiQ1JizC9RPXH311fdT/dE3f/78quTzcjLcDioOAMAOrxkGCgV7o3J66yAzsZMwAADAk50paVLGV4GPN/0lSVjkrjuzPFp3O3vOnDnNTG0gc9ezmW4AdPd+qgwA27ZFA2AIyQsk7ZfDLKqSv27x4sUPMy12Xrlc/pVk38vXqP3Y9vb2Z1B9AKNzMaNTcjbeOydMaP4ilR87SZL8RLLrcjDUA9rb24+m4gAA7Jju7u4/uutTOR3+iTNmzJjCLAAAAJCkeZG7nZvxQa4xS+c/YcypmV+c5QGbad/HHut/JfMbyJY0tVXZHl9KDwcAbMcQOwBGL85nFP7ZJEmWMiVGT3Nz439JeiBPY65U0hdReQCj5OQ8DdbMPrtgwQI+wTXGix0z/0AeBpqmKbsAAgCwEyZObPmkpDtyOPTGpqamEjMAAABAKhZ7X2Smw7I9Sr8kSZINT/xKtVr9rqSMv07p5zPDgWyJIn8ky+NraWmhARAAtvdcMMSiL48NgH9vamr6ONNhdC1cuHCt5Bfkacxmmk3lAeysEMIRkg7I0ZD/2d+//ntUfuyVy+UrJf0hB0OdSbUBANhxGz+Y4e/K49jTVG3MAAAAACkHTWIu6aLNv7hkyZJV7vpZlgduphfEcXwCcxzIlPVZHlyhUKABEAC240kNgG1tbQdKenbeQjDTexYtWvQo02H0JUnyU8mvztGQiyGEFioPYCfNyNdw/avLly9fT9nHLe+LMj9C1wuoMwAAO309f7m7uvM2bjOdSPUBAEDexXF8pJlmZXuUvjhJktuH/rvowqzX2N3YBRDIlskZHtuD3EEKALbvSQ2AhUJhjiTLWQZLy+Xyj5gKY+rd7kpzMtYJURSxWwCAnWJmeWoA7KtUKt+g6uOnqanpR5Ky/mm5g0MIT6HaAADsrOi9ORz08XywDwAA5J27n6+Mv19oZltt8uvp6Voi6U8Zr3Jne3v7fsx2IDPn7T0zPLx7qTAAbF/DE/9Pmqpo+Wr/8yiyt2vjNt8YI0mSXB/H8Q/c9bqcLLA6JC2i8gB2VJpqRn6ej/0HS5cufZCqj59FixY9GkJ8qaTzsjxOMztB0i+pOAAAO66np+v3xWK8yEyzczTs5iiKnivpGmYAAADIozlz5uy2fv2G12d8mPe5+6+2/S1+oWRfy/K6t1JJz5b0MWY9UP/c7RlZfV/JXfdQYQzNVoUQE8OuOzobkySpkEPteNIOgGbK2c5l/uvu7u4/Mg3G4dRr9kFJg/lYYPlMKg5gR5100kl7memoHA35B1R9/BUK0cVZH2OachtgAABGR/TxvI04TdPp1B0AAOTV+vX9Z0iaku1R2re394b1hAkTvi9pXaZTML1l2rRpjcx6IBOOy+rAoogGQAAY1vnyX//R0dFxmKSn5Wz8/48pMD66u7vvMdOP8zFaey63CwKwowYGBo5Xxm+v8QT3JEmyjKqPv66urhsluynjwzyOSgMAsPM23v7Ml+dr1BHrCAAAkFcm+fkZH2NFSr+9vW9asGDBI+76YcazOGDKlCkvY9oD9W369OkTzLL7gXh3v40qA8D2Pd4AODiYFnM29t8mSbKUKTB+qtXqZ5WP2y03S3oeFQewgxcyx+VlrGb6YU6eF2rVlRkf3zMpMQAAo7VGjb6VsyEfQ9UBAEAexXE8W9KRGV/dXpEkyd+H851RpG9kv+p2PjMfqG9NTRNOljQ5s2cps+upMgAMY+367xOnz8jTwM30Sco/vnp7e29y19U5Ge4MKg5gB5+an5WXkbr7D6n3LpxpUeYbAA+ZPn36BCoNAMDO2223SZdJejg/I/ajOjs7C1QeAADkjbufl/UxRlF04XC/t1wu3yDptxmPZGZbW9vxzH6gfpn56Vl+aioUCn+iygCwfQ1PeGp4bo424bmrXC5fQfl3yQLk1Eqlkvk34/fcc89+qg1gh65k3J9tlodx6t6enoSLtl0oTdNrJHtI0h7ZXHMoam5uPlLS9VQbAICdc8UVVzwWx/EP3XVOTobcsnbt2sMl/YXqY4iV5vdDiAfJYVyvH8s9PeWXkwQAjK2Ojo7DBgerL8r4a5O3d3d3j3CjCr9QshMyvbqxwvmSzuQoAOpPCOEISS/J8BDvWbx48cNUGgC2r0GS5syZ0/zYYxuOyUPDwaalLLcc3EWSJNkgaQNJAMCQF2oNko7Ow1ijSD1UfJc/J1dCiBdKOi3Dw3ymaAAEAGBUpGk03yw9Jz/jTZ8lGgAxtMlEQOYAkEWVSnqu2b/vHJZF7rpYI3x/sL+//7KmppbPm2mvrOZiple3t7e/u6uraw1HAlBvovdLnuEd7O1aagwAw3xG2LR4PcZMTXkZdKFg3HIQAFB7T8pRdLCkljyM1d1pAKyFS2dTb8aHeDhVBgBgdOy77169klblZbxpyjoCAADkx9y5cydK/qaMD3ODmV8y0n+0fPny9ZL+N+PZTKhWq2dxJAD1JYQwU/LXZ3yYvJcEAMMUSVKapsfnaMzXd3V13ULpAQC1xt0Pyc0CJIoSKl4Tbsj4+J5GiQEAGB3z58+vSvpVXsZrpoOpOgAAyIt169a9VtKeGV/fzU+SZPWO/NsoGvnOgXWY0DmdnZ0FjgagPsyePXuSFF0sKdP3eEzTCg2AADDcNeum/z0uLwN2F7v/AQBq9DnKD83JUP/e3d19BxXf9QYGBm50V5rhpS4NgAAAjOp61RbmZ7RGAyAAAMjTOu/8zK/uzC7c0X9bLpdvk9Sd8YgOXrVq1VyOBqA+DA4OfkvyozI+zAd6e3tvpdoAMDzRpoX9M/JzEVP9NWUHANTo0/Ih+Xgu1o3UujYsW7asz0x3ZniIB1BlAABGT0OD9SrzO588jgZAAACQCyGEIPmxWR6ju27s7u6+Zid/yoVZnwvudgFHBFD7isX4g+56ddbHaaYFys9rEACw0/61A+ARORnvP+kSBwDUqrzsAGjmf6HaNSXDtwF2dgAEAGAUdXV1/VPSbTlZnR9ExQEAQD5kf/c/yXa6ea+vr++Xkv6R6ZRMcRzHx3BMALUrhNK7zPTRnAz3l1QcAIYvmjZtWqOZcvGippny9El1AED9yUWzkpn9lVLXDvdMv4k/NYTQQJUBABjVtcM1ORnq7nPnzp1IxQEAQJa1tbUdKOnUjA+zr1Lpv3Rnf8iKFSsGzfTtjGdl7n4+RwZQi+ZFIZQ+Lfln8zBadz02efLkq6k7AAxfNGnSpEMk5eWN0YSSAwBqlZn2zseFGzsA1ta885VZHl5zc/NuVBkAgNFcO9hNeRlrX1/fXlQcAABkWaFQOEeZf4/Qf7Bs2bK+0fhJ1Wr1W5KqGV/xvzaEsAdHB1A7Ojo6di8We+ZL/p68jNnMF15xxRWPUX0AGL4oiqLDczTeHkoOAKhhU3Oy+GAHwJq6kLZVWR7f+vXrd6fKAACMpvRPeRlpoVCgARAAAGRWCKHFXWdlfZxmO3/733/p7e39m6RfZzyyyVL0Bo4QoDbEcdxeqVRvMtPLcjb0/6P6ADAykaQDcjLW/qlTp95KyQEANcok5eINxubm5gcod+1I0yjTDYCFQoEdAAEAGF25aQCsVqs0AAIAgCx7laR9sjxAd11TLpdvGN2faRdlf2r4edK8iEME2HXa2toODCG+1F1XSzowT2N318q+vr7fMAsAYGQiM9svJ08Ud8yfP79KyQEAtSiEsLukxhwMdXDBggX9VLx2mFVXZXt8xg6AAACMoiRJ/ilpQz7WSUYDIAAAyPJq5/wcjPHC0f6JPT1tC911Z8aDOyKOe07mGAHGXwjhaSGEz5oVbpV0ujZuHpE3l65YsWKQ2QAAIxOlqXLRAGhmf6HcAIBalabpnnkYp7v6qHbNeSjbc86nUGIAAEb76VX352ONzgcJAABANhWL7dMlTcv4MNeYpfNH/8fOS8384hws+s/nSAHGy7yoWGyPQyh9X7I7JXuXmSbmNAx3r36bOQEAI9dglpcGQP8r5QYA1LCWnIxzHaWuscVgQ0NUqWR3k+Q0NW5XAgDAKDPT/ZIOy8E4m6k2AADIoihKL3DP+ij9kiRJxmTn6mq1+t1CoeEjUnbXi+52Ultb29N7e3t5fxUYA3Pnzp24bt261jTVbLOeTuXsNr/bOPtc1dvb+2dyAICRa5CUk1sAOzsAAgBqVqFQaMr+i26SaACsOdVqNdO3no4ipwEQAIBR5q6VloObEJl5E9UGAABZ09raun+a6uUZX8+5pIvG6ocvWbJkVbEY/8xMr8nuWliRWcN5kt7BUQPsuGnTpjXuueee+1er1QPd/SjJjpN0XF/fuudJajYjo818gQgAYMc0SNozJ2N9gHIDAGqVmTV7DjoAzTRItWuLuzdKluXx8RIKAACjv6Zbn491ktEACAAAMqdQKJwtKePrHF+cJMntY/sY0YVS+pqM5/iGEMIHkiThQ93AMIVQepfkZ7mr0Uy7u2vPSqW66UPqvFS9HTckSbKYGABgB1enkuXi/vFm1ke5AQC1Kk3TvLy5OJlq19zcy/QOgO4Rr6oAADDqLBcNgOwACAAAsmbatGmNkr056+N0j7451o/R09O1RLKbMh7l7mZ2BkcOMCJPk3SkmQ6TtLeZuEPN8M/eHycDANhxDZJPyMlY+XQKAKBmRVHUlKbZ3wHQXVOodo0tBhsaGrM897gFMAAAo8/M1+dg82p2AAQAAJkzefLur5D8gIwP8z6z9IpxeqyLJX01y2Gmqc6T9E1tvK0yUJMGBgbaQggP1chRcxA7/e2QFUmS/IwYAGDHNUialIeBRlHEDoAAgJqVpmmak4tCdgCsvbk3MeNzj9tOAwAwyty9MQ9rV3evUm0AAJAlZv62HKxWv5UkSWU8HmlwsP97jY1Nn5Sy+6FnMx0dx3GpXC53cQShhmfqfDKo+3PN+0WjMQDslEhSLnYAjKKIHQABADV8cWOD+RinJnR2dhaoeE3NvYlZHp+7D1BlAABGfQWRi9eSzFhHAACA7IjjeJqkF2Z8mBVJ3xmvB1u2bFmfu36U9bnjrgs4ggCM4VmmXC6XF5IDAOycyF25uJ3Jhg0b2P0FAFCz8tIAKMnWrl27BxWvHWlqmd4N2r3QT5UBABjt59d8fJjU3WgABAAAWVrbnJ+DUV6RJMnfxzfX6oU5mD4vDiEcwlEEYAwMmhlNxgAwCiJt/DRM5hUKhUmUGwBQqyqVSm4a1d39cCpeO8zSTK+RCgWnARAAgFFfP2j3PIwzisQ6AgAAZEJra+s+kr8q++u3aNyb8Xp7e6+T9NuMR1sws3M5kgCMPvtKuVy+mRwAYBTWwmbKRcNBmqZTKDcAoGafkKMoNw2AaZo+nYrXlIzvAEgDIAAAo8+emodRunMLYAAAkA1R1HCWpJaMD/P27u7uq3fRyjHzuwCmqc6cPn36BI4mAKN3za37Bwf7P0ISADBKa34pHw2AZo2TKTcAoIaty89FnT2DctfSGskyvYNPFEV9VBkAgFFf0eWiAdDMHqPWAACg3oUQGsx0TuZXqK6LJfmueOz+/v7L3LU222tj7dXc3PwajigAoyWKdPayZct4/R4ARuu8qpw0ABYKzg6AAICaNWHChLV5GWsUiR0Aa0ia6uCMD3ENVQYAYPRs2vVjrzyM1d3XUnEAAFDvzOxUSQdmfJgbzPySXfXgy5cvXx9F+l4OZtMFHFEARul88u1yufwbcgCA0RNJysVt0apV7U65AQC1asGCBX3KSVO+uz2TiteUQ7K8BOzqan2QEgMAMHoaGxufKcnyMNYoimgABAAAdc9d52d9jGaanyTJ6l38a1ykXbQD4Th6TrHY3spRBWAn3TU42P+fxAAAoyuS9FAeBmqmwyk3AKCGubty0qjkz54zZ85ulLxW1kh2aIaH96A0L6XKAACM5tqh4Vl5GWuapjQAAgCAutbW1naspJD9NapduKt/h3K5fJuk7qxnHUUpuwAC2GHuGnCPTufWvwAwBus0d+XkxUw/gnIDAGqZWV6ek1XYsGHDTCpeC+ZFkh+U4aNqFTUGAGB0RZEfm5exViqVNVQcAADUs0KhkPlmLXfd2N3dfU1t/C52UQ7yfmkI4WkcXQB2hJn9V09P13KSAIDRF5lZXpoNjqTcAIBa5q6VORpuoOI1UISQPFVSc4aPqpVUGQCA0ZWmmpaToVb233//R6g4AACoVzNnztwzTXV69ke663f/+5d16x6+XNI/Mh54g6S3cIQBGPHZ2vSjJOn+GkkAwNiI3D0vDYBPp9wAgJp+Uo50T17GmqYqUvGacFzGx3c3JQYAYPR0dnY2SXphToZ73/z586tUHQAA1KuGhoY3mWlixofZV6n0X1orv8yKFSsGzfTtrM8tdzt7zpw5zRxlAEZyimxsbHwzMQDA2InMctMAuN/MmTP3pOQAgFrl7rlpADTTc3lergknZPyouosS50tfX19ECpCkNDUnBWD0rVmz5nk5eBN509o8Px/OAQAAWTQvcrdzc7Bq+8GyZcv6auk3qlar35KU6Q+SmGnfxx7rfyXHGYBhukvyFy9atOhRogCAsRNJ+nteBtvY2HgiJQcA1LA8vcnY0NDQ8HJKvstlvAGQHQCHUMn4+FooMSTJLB0kBWD0uXvIz3nE7qXiAACgXoWQnGKmw3KwZruw1n6n3t7ev7nrNzm47r6AIw3A9rhrreSnJEnyAGkAwNiKlKNmgzy9UA0AqMMn5SjK25uMr6Hqu9K8SLIXZPyYYgfALWS7KSpN0wnUGJJkZjQAAmPA3V+So+GyAyAAAKjjdZtdkP0x6ppyuXxDjV6VXpj9WWbPj+P4BI42ANvQJ0UvTpLkVqIAgLEXpWmapxc0i5QcAFDD7sjTYN2tGEJ4GmXfNdrblzxT0u5ZHmOapndS6S2wAyAkSQ0Nepi5DmAkOjo6DpLseflZq9IACAAA6lMcx0eaaVb2R1q7TXY9PW0L3ZX516Xc7XyOOABbsc5Mc3p6upYTBQCMj2jChAk5ekHTjp8zZ85ulB0AUIu6u9vuctdjuXlWNkVS9Coqv2tUq17K+BAfTJLk71R6C5luimpsbGQHwOH7Z7afY9gBEBj1J5BK5aWSLD9r1fTPVB0AANQjdz8/B+u2NWbp/Nr99ealZn5xDmZbZ3t7+34cdQA286h7dEq5XF5GFAAwfqKFCxeuldSXk/E2PPZYP7sAAgBq1LzUzG/O04jd/Y3K0RvJNZb+qdmeW7qJGm8p601R7j6ZKg9PV1fXWkmZnQ/VKg2AwOiLXp+n0VYqlZupOQAAqDczZsyY4m5nZH+kfkmSJBtq+Tdsamq6RFJ/xgvRXKmkZ3PkAXiC1ZJ39PR0LSEKABhf0aaFcm7uu26mV1J2AEDtPk/Zn/I1Xh1dLJZeTOXHVwhhD0nFbM8tv5FKb8ndM/3Cc5qmT6XKI5kOWpXVwRUK3k+JgVFdOzxP8uPzc4LU/UuXLn2QygMAgHrT2Nj8ejNl/U5YLumiWv8lFy1atNJdP8vBtHvrtGnTGjn6AEi620wzkyS5ligAYPxFUt6aDfwls2fPnkTpAQA16k95G7CZv4eyj3fmdoqkTL8w5x7RADh0Lo9k/PLmaVR5JOeC7O4AWKlU+qgwMKprh7PzNV5n9z8AAFCXyxjJz8/+MH1xkiS318fvGl2Y/bWznjplypSXcfgBubeiWq2cWC6XbyMKANhFK89N/5unZoPJ/f2V/6D0AIAadUMOxzwjjuMZlH78pKlOzfoYC4VcHkvbX/xHnvEGQNEAODJNWR1YS0vLw5QXGB0hhKnuek3Ohk0DIAAAqDulUmmWpCOzPk4zq5umuk23wMzB2tLO5wgE8stM3+/v39C6ZMmSf5AGAOw6OdwBUDLL3QvXAIA60dLS8ntJ1byN251dAMdLR0fH7mZ6UcaHuaG5uZkGwCGkadZ3AHQaAEcmszuBDgwMPEJ5gVHzdkm5upOCmf2esgMAgPq75k/z0IR1n7v/qs5WlxfmoC4z29rajucoBHKnIvk7yuXyGcuXL19PHACwazVI0uDg4E2FQkOOhu0nlUqlA7q7u+9jCgAAasmCBQseKRbjm8307HyN3OaGEEKSJAmzYGxVq9XXK+Nv4rvrdwsWLOin2luKovQR90wP8XCqPKJjpcksk+Ma6OlJNlBhYOd1dHTsXqlUc7ebR7VaXU71AQBAna3bDhscrL4oi9d4m13vrTGLPh5CqW5+ZzPfLeOvxWwaZ+F8SWdyNAK5cYd79Lqeni6un7ELn3v0MXd/lCR2jSQJqZQQRA1pkKQlS5b8I4T4PkkH5GTcjWmavkPSfzMFAAA1uGBdLuWtAVByty93dnY+d/78+VVmwdhNL3edk4NxLqXUWzvO/GEp0+8GPCuE0JAkSYVqb9vs2bMnDQwMTsno8yi3/wVGSaWSvlPSHjkb9gO9vb13UX0AAFBn67ZzzTbe9SvLNn5o2uvqddM8NP9tqs2r29vb393V1bWGIxLIvO8MDg68c9myZX1EgV37HOtfSZJkNUnsKgkR1JgnXAzY8nydDOzsEMIeTAEAQA0+S+XyE1Nmevbq1avfQv3HThzHJUnPzPwCN9Iyqr1VWb8YbknT9CjKvH0bNmw4TBntBnXXg1QY2HmlUukAyd+Vw1XptVQfAADUk7lz506U/E0kgV1sQrVaPYsYgEz7u5lOTZLyWTT/AUDtefy+v2a+3F2vyMvAzbSbu50j6VNMg7EVx3HRPRftvw8kSfEAaV5K1QHsjCiKlqap53Ls7vpoe3v7ZXxSdGykqc7N+q1gJFXd/RqqPbQkSTaEED8oac+sjrFQKBwv6Saqvd3nmszeLtlM/6DCwGisy/xTkiblcNysIwAAQF1Zt27da7N8nY+6uiI/p7Oz83Pc4QXInIqZvuruHyqXk3XEAQC16fEdANM0yt1uQ2Z62/Tp0ycwDcaWu96bkxl1Fc1/AEZDd3f3HZLuyOnw965W0y8zC0ZfW1vbsZJekoOh/j5Jkoeo+DbXLA9keXRpqmnUeFiXgkdkeI7TAAjspGKxfbq7XpvLs2OkbmYAAACoJ+52PimgRhy8atWqucQAZOpZpiz588vl8n8mCc1/AFDLHt8BcOLEpj+uX7+hX1Jzjsb/lObmCf8l6eNMhbHR1tZ2vKST83GRrSupOIBRPKcsNNO5OR3+6SGEq5IkuZSZMHqiKPqEnvDhj6wy0wKqvT3pA5IdleE50E6Nh+WE7M4BpwEQ2AnTp0+fYJZeoozeJnw7VpXLxeukMhMB21prfN/dbyaJ8byWsbtIAQCGFkIIkh9LEqgV7naBpMtJAqj7K5/rzPx/yuVkIVkAQH14vAFwwYIF/SGEaySLc7YUfW8I4X+TJPk702H0RVHDh6Rc3MZysLExWkTFAYze+VML3XPbACh3+3pHR8c1ixcvvpPZsPPiOJ7hrlx8+jZNIxoAt8PMHvBsL8+O6ejoOGjx4sX3Uu2tTwPJi9k9D3ALYGBnNDW1fFzSkfl8jtRidvbH9q9V/OdJklxOEgCAGlnBsPsfam1NHcdxfEy5XOYDE0B9HsXXSelnkqQ4n+tjAKgvm+8Ck8cO7klm9v+YCqMvjuOi5C/Jw1jdtWTx4sUPU3UAo2VgYKDsroHcXmKadqtUKpeGEBqYDaPxPOWfysnz8cqentYVVHy78+G+rI+xWq2eTKW3rq2t7VmS9snucwg7AAI7auMOMnpHjp8j+WAfAACop2u7AyWdShKotctyd6cxFai/K+Kr3aPZSdL93CRJLqP5DwDqDw2Aktz1qmKxvZXpMJrmRWmqL+TmasZsPjUHMJqWLVvWZ6Yl+U7Bpkv6IrNh58Rx/DLJcrHOiSIt5IWJYSV1R/bX9zaHOm/rWIlKGR/i3VQZGLlZs2Y9VbIfm23xWlFeeGNjIw2AAACgbhQKhXP0hDt9AbXDXhtC2IMcgLpRMbMP9vR0XU0UAFC/nvSibpIkN0h6II8rUSm9cPr06ROYEqMjhOSNZnpuXhZFTU0NP6fqAMbg6emnZGDnF4vxO8lhx7S3t+/trm/kaMgcM8PgbnfkYJQnn3TSSXtR7a06PcuDq1ard1BiYGSmTZvWODhY+Ymk/XL8DHnt1VdffT+zAQAA1IMQQou7ziIJ1KjJUvQGYgDqRoO7/pdeCQCob5t/qtvdlctPO5vp6JaWls8zJXZeqVQ6QLLP5WjIyaJFi1ZSeQCjbVNzcZUk9LlisfRSYhi5atW/pvy8kf9QS0vLQqq+fY2NeWgAVMuGDYOnU+0txXF8jGTPz/AQH12yZMkDVBoYmcmTd/uapBl5zsCMD98AAIC6cpqkfYgBtcvPk+ZF5ADUjWe2tLR8ghgAoH4NsfCyy3O7FHWdE8fxqUyLnVOt+sWS9sjPvLGfUHUAY2HRokUr3dWT9xw23obOLw0hvJBZMXxxHL9c8lflaKZcvmDBgn4qv32VSuVeSYPZP3f4mVR7qLWrvyHj13R3SHIqDQxfCOHDZjo776fHQqFAAyAAAKinq94LyAA17og47jmZGID6kaZ6e6lUaiMJAKhPWzQADgysv0pSX14Dcde3Z82a9VSmxo4JIZxpplNyNOT1Zul8Kg9grJgZ5xhJZpoo2VWlUulE0ti+WbNmPTVNc3XrX0npZVR+eJIkqbjrrhwM9TmlUukFVPzf5s6dO9Hdzsj4MG+n0sDwFYulN0s2jyT0u8WLF99LDAAAoD7WcO3TJU0jCdQ6dz+fFID6YaaoWvVLQgiTSQMA6s8WDYDLly9fb6Zf5ziTqYODlZ+EEFqYHiMTx/FzJPtqzpZCP0uS5CGqD2CsVKuDP3PXAElIknZPU19UKpVKRLF106dPnzA4WPmlmfbN0bBX9/X1dVH9EaxgzG7MxznU30+1/+2RR9adl/VzQxTpNioNDPsa/k2SX0gSkmQ/JgMAAFA/1z0pu/+hLrjbSW1tbU8nCaCOro5Nh0n6LEkAQB1eJwz1xTTN/W5DM8zs/6R5EVNkeEIIe7jrZ5Im5Ozi5btUH8BYWrJkySoz+xVJPG5SmvqVIYSXEMXQ1+ctLS3fkfS8nA37eytWrBik/CNZw3guGgDN9B/sArjR7NmzJ0l6Vw6Gej3VBrYvjuOz01TfMlPuX/dw10C1OvgDZgUAAKgHra2t+6epXk4SqAdmiqKo4TySAOru6H1LsViaQw4AUF+GfKE377cBliR3dYaQfIIpsn0hhAbJLpV0eM7myJ09PV0JMwDA2Eu/QwZP0uxul228ZR02e07+kLtenbdlm5R+m+qP8CIg0o15GWua+oeouNTfP/i2nOwMegPVBra7XniPuy6k+e9xly9ZsmQVMQAAgHpQKBTONlMTSaB++Bu4nShQd8zMLw4h7EEUAFA/hnyxd/ny5eslu4x47L1xHJ9NDtsOSbILJb0odwdPpIskOVMAwFhLkrDIXfeSxBOvPtVk5hcXi/FFc+bMaSaRjTv5SPbhvI3bXUuSJLmVGTDS3DxPTVIvCiF05LnebW1th5rpfTkY6qPlcvGvHOHA0Do7O5tCKF0i2ac3XstDkgoF48M2AACgbtZzkr2FJFBndjezM4gBqDtPc7cvEwMA1I9tfNqb3YYkKU31zRDCWSQxtBDCRyWdmbdxu+uxpqYmdhsCME7mpWZ2CTlsyUxnr1+/ISmVSgfkOYdiMX6nuy5UDt/MN/NvcSSMXJIk90h6MEcz5eJNt8DN5akyigrfkpSHT9vfJM1LOcKBIa/dn7Jq1arFkr+BNJ7knu7utsXEAAAA6sHKlWteLml/kkC9SVOdJz6EBNQdM50Rx/GpJAEA9WGrDYBJklwr6Wae2BRJdnEcx29jujxZHMfvk+wDOZ0X31+4cOFaZgGAcXvCjvQtSYMkMaQXpqmviOP4P/I4+GIx/qCZvqB8voi2WtJPOQR2iLtreY7Ge+jAwMDHc7pmf7Ok9nxMav2RQxvYUqlUmi3Z9ZK1ksYWZ45v0jgMAADqaO1yPhmgHpnp6BBCO0lgzM6OHr2goaFw+Fj+kfxd+cxWF4UQpjLLAKD2NWznhP6dTW8o535t6q4vF4vxpJ6e8qeIQwqh9HF3f39e15Fm+iqzAMB46u7uvi+E0mWSv5Y0hrSfu34ZQunH1erg25YsWbIq6wPu7OwsrFy5+v+Z6T9zvET7epKUNzD9d0wUaZm7TsnRfLmgWGz/VU9PVzkvI25razvWXZ/L05zmyAaeeN0eWtztI2nq/y122xhKn6SLiAEAANSDOI6nuetEkkD9svMlsfs2xkRzc+GeRYsWrRzjh/lCsRifYqZSzuLdz8y+IemVzDQAqG3RNpdi5t+XxJuqj+ehT4YQvhhCaMhvCvOiEEpfknLb/CdJC8vl8s0cEQDGW5pWaMrfLn9VodBwSxzHr8nyKFtbW/dftWr14jw3/7nrsWp18OvM+Z3J0K/J2ZALZulPQgiH5GGwra2t+0RR4VeSpuSmwIXCUo5sYKMQQnC3G8z0btH8NyQzfTtJkodIAgAA1Mc1vLH7H+rdi/PymgwyfCr26lmS1uVv4OoMIbyKKQAAtW2bDYBJkqyW7FJieiJ7h6RFra2t++Rt5DNmzJgSQu8vJX97rmeA6eMcBwB2hd7e3uskL5PEdk111w+KxbgnjuMZWRtcHMfthULDdZJCzuv8v3nY6XEsTZky5XfK363Fp7rbL0MIk7M8yDlz5jQXCg0/l3RIXgrrrnsXL158L0c28q61tXX/OI6/K1m3mZ5BIltVMbMvEwMAAKiTNd4+ktN4gXpXMLNziQH1rLe39y53e3c+R29fa21t3Z9ZAAC1K9ruaqxgX5TkRPWkJ7i4UGhYEUJ4Xl5G3NbWdmhjY/MyyV+c8+In5XKZW4sB2HXPQGafJ4XhZqU2dy0NIf51COG4eh/P9OnTJxSL8SfctVDSfjkvb7WxscCxsJOuuOKKx9z1+xyeG54t6SchhJYsjq+zs7Np/fr+SyXNzFlp2f0PuTZnzpzdQggfKxQa/uquN4pd/7bnsu7u7nuIAQAA1IMoajhLUgtJoN6lqc6cPn36BJJAPevp6b7QXd05HPrehULhImYAANTwdcP2vqGrq+sWya8iqi0cKNmSOI7fJs2LsjzQEMJpUVT4o+TH5r3o7P4HYFcrl8tXSlpBEiPyIndbEUL80xBCUB2+IR7H8SnNzS03mel9kgp5L6i7Llu8ePGdTO1RuBiItDCnq7o57vbLrL3oPH369AmrVq3+ueSvyN863Xs5opFHra2t+4QQPrx+/YY7JPuApEmksl2VQiH6KDEAAIB6EEJoMNM5JIFsXLtrr+bm5teQBOpcbm8FLNncYrH0RqYAANSm4TaufYGohtTiri+H0NMbQnhmBi8sJ2+6ddCPJe1BubW0XC53EQOAXX1xaaYPE8MIL0tNkaSXS1YOIb4lhPD2EELNP7fFcXxCCKHbXb+RdDiVlCRV3KvziGG0jg27KsfnhdlNTS2/zsrtgGfMmDGlubnlSkkvyuWFbRTxoTXkSgjhuGIxvqhQaLhHsnmSppLKsH2vq6vrL8QAAADq5Lr9VEkHkgQyNKsvIAPUuzzfCtjMv9jR0XEQswAAas+wGgCTJFksdhvalhmSXVcsxv8T/n97dx4mV1Xnf/zzvdXd2TogmsQfI26MiDoiQkQMkO5blRBERMAfQQQcXCKyLzPjMgoYf4IL6gyLApFBRXGBRlEabNNJ1z1VoWmitKwKKggoEEkCZE96qfv9/dFh3BLM0ktV3ffreXh4eB66+57P99S951SdOieOG+qhQa2thWMk+/Xmo4MgyUyfIAUA1SBJktsk3UkSO+x1kl3qbk/Gcf4HcRyfeNhhh724ei5vftTaWji8tTXf5a47JctTsr96In+rXC7/jhyGR7HYcpeklRke3xWk6Oe1/mWelpaW1zc2NvVIijNayl9xlCeyYObMmbvHceHcOM7fI9ndZjpFEsdnbZ++KLLPEgMAAKgV7jqTFFBn9m1tnTWTGFDrMnwU8K6Dg5VrVYMnLQFAvdvmxWpm+rS7biWyrRpvps+520n5fP6CJEluluS11ohCofDPaeqXSX4EJf2rSfYtISTdJAGgWkSRfTpNfSFJ7DgzTZT0Hsne09fXPxjH+W7JbjXzZMqUKfe3tbX1j+b1xHH8GjM7wb30AUmvokJb1NfQEPGh/bCan7rnO82U4eNX/PWS/by1tfChUqnYVmtXH8fxiZJdLak5wzXs4LWMehTHcYN7bj+zyjskHSHZWyTnDfadu19cUywmLBgGAAA1oaWlZR9l94teqGNRlJ4laQlJoNYnmO6VeWa5+5S99+Vm5/P505IkuZJuAADVY5sXACZJclsc55dKOpDYts5Mb3DXD+M4f1cU2aeKxWJnLVx3oVB4WZqm56epf0hSI5X8K5Uo0ieJAUA1KRaLnXGcD+JNwOEcE7VK3uourVixcqC1NX+/mf1SUq+UPiTpTwMDA092d3evHZYZ8uzZu1YqlUMktaapjpD0BncK8ULctWDx4sV/IInhHr/6zZKdkPEYJpv5jfl8/vuDg4P/vmTJkmXVfsFxHE+Roi9J/v6s9+EoilgAiJo3Z86cSZs2bXptLpfbK021r5kOknSAWTqJL9UPm+cqlcr/IwYAAFA78/Ucu/+hLrnrmEKh8LJisfgkaaCWlcvlR1tbCx8z8ysz+Dq+pFAoLCwWi4/QEwCgOmzXcbVRZBey29A2e0ua+sI4zpckv1TSrSGEwWq7yNmzZ+85OJienaZ+imQcHbTlafY3k6T4K3IAUIVTrPMku0tSjiyGXaOZ9pd8f0nznv/gvbGxSa2t+Q1m9qTkT5np9+7+iJn9UdIzGjpKdbBSqaxpamqqVCqV3SSNd/fd3KOXS76HpNeZ6U0DA5U9zRRJkvG5/ra8ofBsQ0PEh/YjYPLkyT9du3bdOmV6B7n/7WfvjaKGI+I4vlDS16px/D537tzcihUrTpXss5LvRg/WM6tXr2bXAOz4bM9yP4jj/MYRuqesNrM1kq92V99f/11NctdUM71U0pT+/oGXRVFO7owLRu4eb59esmTJCpIAAAC14JBDDtnNTCeSBOpUQ5qmp0q6gChQ60ql4tWtrfljzVTIWNMnpal/S5rfKs1P6QkAUAUDrO35nzfvNnS7pEOIbpu1StYq6Yk4jv+nsbHxmkWLFj01tpc0PyoUynGa+tkDA5Ujn198gC16rlIZYPc/AFUphHBPHBe+Kfk80hg9Q0cH+16S9nJXq2T62537oiinwcHKX/6UzPxvfw+2K3e/sKur6xmSGH7t7e0b4rhwq+THk4Zkpl0ku1TSuXFc+MrkyZO+0d7evmHsr2x+lM+Xjl6xYuWFku1Lpf63Xj/q7e0dIAnsRB96wwj+bkm+1ec+Y4FRrfT9ZulV5AAAAGpFQ0PDByVNIgnUK3c75fDDD7+oo6OjjzRQ8905u0cBHxLH4bwQ9BW6AQBUwRxie3/ATP/hrh5xBs322kOy+QMDg+fHcdwh6RYN7Qr4p9G6gHw+v2+a6gSpdHya6hWb64kXnoCwQwDkbi+J43g2SYyNNE2fLpfL95PEluVydv7goB83tGAFqNf7sO6bNm3q1SQxohnfaCYWAP61V0l+xdq16y6M43hBLpf7fldX169H+yKOPPLIievWrXu/e+k8d72GsvydG4gAwDbMKs6uxl1dAQAjz8x35329sczf/pgkyW9IYnvNj9xLp/P5Der7/qBpGzb0HSfpO6SBWpflo4Alu6ilpeWn5XL5QXoCxmCs2RrH8WqSqJl6LUuShJM3R9B2LwBMkmRpHBe+K/lJxLejmduRko50V9ramr/LzG+JomjRuHHj7h3Ob7occsghuzU2Nhbcdejmf/ZkwrhdtyB2CMDzE9H9JVtEEmMjl8u1STqOJLasq6vr6dbW/EWSLiEN1Kso0tltbW0VkhjJZ13a4W7PmunFpPF3pkp2fqWSnh/Hhful9AYz+5m73ztSi0k2L/o7PE317rVr1x0haVfKsEV/mjJlSiAGAC/EXd8ulQL3CgDI7mznUEmHksNYPYftMknnksT2iePwDsn2JAnU/R3a0rPEAkDUiQwfBTw+iqLr4jg+iC/eYfTHmrqJfctqynck/SsxjJyGHfux9D8lO0ZsP76TA1tFkt4q2VvT1C/auHHTQBznfyWp10y/TNPo/sZGe3L9+vXLenp6Nm7t98yePXvX/v7+V0RR9EpJ/+Ju+5vZfpK/xn3ojsfCv+1+WKRR5KclCQMVANVv3bo1l06evMuJkjgSEvXou0mSlIhhZIUQNrW25q+XdDZpvOAocR/J9nHXRZKti+P8Und1m/mDURT9fmBg4NEd2T26UCi8zN2nS3qLu79lzZp1rWaayBj+H86n2lgcDOAfWFapDJxLDAAAoKZmnm5nMR9ERmb2B+Tz+QOTJFlKFqiL23dmjwK2AyT7hKSL6AYAMHZ2aAFgCOGJfD5/ibs+Q4TDqlHSmyW92V0fMks1OCiNGzdecZxf5a6nzLRc0gTJJrr7JDNNHRysTI6i3J8fsSZJTpo7M0wxvzJJQjdJAKgFvb29A3Ecz5PsTkk5EkG9cNdyMz+XJEZt/HONZCwA3HbNkmaZaZZkSlNXLtegOM6vl7RC0iZJ6yVfI1lFsnVmPrC5bze5a6qZTZV89zT1v3hT0PjyzjaKouh/SAHACz/bdNrtt9/+HEkAAIBakc/n93Zn10pkh7udKYkFgKgLWT4K2N0viOP41hDCPfQEABgb0Y7+YHNz85fd9XsiHDUvMtMbJMWSDpR8HzPtKWky0Qz3AEV/GBgY+CRJAKglIYS7JLuUJFBXA9VIZ4UQVpLEqN1HHpC8hyR22iRJr5L0OknTJctLmi350e6a6665ko4y00GS76XMfSN42Mbsd3R1dd1HEgBe4D7xvSRJfkISAACgxpwhzrJDpsbtftysWbNeShKoF6VS8Wp3FbPWbjM1udt1c+fObaIXAMDY2OEFgO3t7RuiSKeIreZQf0OUU7u7u9eSA4BaM3nypAtZnI/64TcnSXIjOYzyKMjsalJATUxkIy0gBQAv4I/jxzedRQwAAKCWHHzwwZPTVCeTBLLETE2Dg+kpJIE64u6VeZLWZfD1/Kbly1d+mi4AAGMj2pkfTpKky0zfIkbUz4hMXy+Vih0kAaAWtbe3b8jl7AOSKqSBGn8eP1upVM4gidE3ZcqUH0h6giRQ5Z7ZtGlTGzEA2IpBM7134cKFzxIFAACoJY2N40420y4kgQw6dfr06Y3EgHpRLpcfdbePZbHtZvpYPp8/kF4AAKMv2tlfkMvlznPXU0SJOvCwmf87MQCoZcViseyuL5IEavxtgnlLlixZRg6jr62trV/yS0kCVX6PuLqnp2cjOQDYyj3igiRJuskBAADU2iBGcr4MiWx2ftM/TZ48+d0kgXqy+Sjgzgw2vcFd182YMWMCvQAARtdOLwBcvHjxajM/hyhRy9zVb6bjQwjrSANArVu3bs18SUtJAjX6TL6yVCreTBJjZ2Bg4OuSVpEEqtTGpqaGy4kBwFb8LISWS4gBAADUmkKhcKik15EEssvOJAPUGXevnKoMHgUsae/x48dfTBcAgNEVDccvCSHcJOk64kTNvhAiXZAkSS9JAKgHvb29A1FkJ0paSxqoJe66j914x153d/dayb5GEqhS3+js7FxODAC24FHJ3yfNT4kCAADUmjRNWfyErDukpaVlP2JAPcnyUcBpqnMKhUILvQAARk80XL9oYKD/LEmPEClqjbtuSZLkSyQBoJ4Ui8VHzHQqSaCGrHevHB9C2EQU1SD9srueJQdUmUHJv0wMALZgreTvCiGsJAoAAFBrZs+evae7HUESyDqzHAthUXc2HwVczN7rWVGl4t+M47iZXgAAo2PYFgB2d3evNdOJkgaIFTXkETM/WZITBYB6kyTJ9yS/lCRQA1zyeeVy+UGiqA4hhFWSvkASqC72rRDCY+QA4K8GEa5U8hNCCA+QBgAAqEWDg+npZsP3eR1Qs7N+03tnzZr1EpJA3U1bvTJPGTwK2Ex7SmITHgAYJcM6oUiSZKmZ5hMrasRGyY/d/AE3ANSrj0oqEQOq/K2AS0IIPyCH6tLfv+mrkp4gCVQDd22IIuaaALboEyGEW4kBAADUoiOPPHKi5B8kCUCSNKFSqcwjBtSbLB8FLNlHCoXCHHoBAIy8huH+hUnS+oU4Ls+Q/J3EiyrmZpqXJOEeogBQz0IIg3PmzDmuv3/gLkkvJxFU4SO5Y+rUKZ8ih+rT09OzMY7jCyT7JmlgrEWRLisWi0+SBIC/ZKYrQkjYTQAAANSsdevWnSRptww09V53u5iK79CY9zOSvz5DLT5t7ty5X25ra6tQfdSTUql4dWtr/lgzFbJ2G0tTvzaO433YlAcARlbD8P/K+akUv0+Kfi75XkSMKp0wXTR0NCYA1L/Ozs7lcRy/W7IgaRKJoFq467dmOoE39KpXCOG6OM5/SNIhpIEx9Ewul/siMQD4m5n99UnScq6UEAUAAKhZ7nam5Flo51dKpWIbFd9++Xx+N3ctyFCTX7l8+TPvknQz1Ufd3Qq9Ms8sd5+k5oy1fQ93u0zSyXQDABg50Uj80qHV2+m7lcGz7FH9zNSWJMmnSQJAloQQ7nK390pioRWqxQr3yjv51l/V8zStnC5pkCgwht3wU4sXL15NDgD+YmZ/69q1qz849CVUAACA2pTP51sl3ycDTX164sRxN1LxHdPc3Hy9u57N2PsAZ1J51KMsHwVspn/N5/NH0QsAYOREI/WLQwgPuNsHlYWvLqGWLG1ubn4//RJAFpVKxXbJePME1WCde3REuVz+HVFUv3K5fL9kl5EExsidIcTXEAOAvxD6+jYe19vbO0AUAACglrnrrIy0c0FHR0cfFd8x7e3tG6JI12apzWbK5/P5f6H6qEelUvFqdxUz+txbEMfxFHoBAIyMaCR/+dB23n4BMaNKpgy/a2pqfFd7e/sGsgCQVSEUr5b8CySBMTQg+dxSqesXRFE7Jk+edKGk35AERtng0A6U7PAF4M/DWcmP7Onp2UgUAACgls2ePfsVkrKwE9JALmdfp+I7x8y+pmyd7GLu7AKIuuVm/iFJazPY9pdKEV/0BYAREo30HwghXOwuBvcYa082NESzOzs7lxMFgKwLIXzSXd8gCYwBN9O8EMLPiKK2tLe3bzDTyeIoYIwqu6xcLt9NDgAkyV0/lfzwEMI60gAAALWuUqmcKqmh7md1ppuKxeKTVHznFIvFxyVrz9h7AifFcfwiqo96FEJ4zN0+ntHZ/dFxHB9PLwCA4ReNxh8x8zMk3UbcGJNhhOtZyd++ePHiP5AGAAzdGkul1g9Ldj1RYDT7nZnOTJLk20RRm5IkWequz5EERsmv+vo2sps8gOf9ZNq0KceEEDYRBQAAqHVxHI9317wstDVNoyuo+PBwt8sz1uRmKXo/lUe9yvJRwJJ9debMmbvTCwBgeI3KAsAQwqDkx0u6i8gxyp7L5ezQEMIDRAEAf2l+OnXqS97vrhvJAqPAJTs7SZIriaK2rVu35iJJd5IERlifmU7kiE8AkmSmayQ/tq2trZ80AABAnXiPpKn130z/RanU1UO5h0ep1JVIythnXX6GND+i+qjXDu5emScpi7vcvySXyy2gCwDA8Bq1QdPQES1+qLt+SewYJaujyN5eLBbpcwCwBW1tbZVp06acwCJAjDA307khFL9KFLWvt7d3oFIZfLekZaSBEbxtfCpJknvJAeBmINlnkiQ5ZeiLpQAAAPXCzsxIQy+n1sPcc0xZ21HxNfl86e1UHvWqXC4/aqaMHgVsR7a2Fj5ALwCA4TOq35oIIawaN67xcHf9mugxwlab6bBisfhzogCArWtra6usW7fmJMl+QBoYAW6mc5Mk4Q3fOrJkyZJlkp8gicUYGInbRkcI8X+TA5B5fe52YgjF+UQBAADqSWvrrBmS3pKBpj49YcKENio+vJqbm69317OZepfA/Uwqj3qWJMlVWT0K2Mz/e/bs2a+gFwDA8Bj1bZM7OzuXp+ngbHf9lvgxQlZEkRWSJFlKFADwj/X29g6E0HKima4iDQyjATO9n8V/9SmEELL77VSMoIcHBwdPlOanRAFk2jIzzSqVit8nCgAAUH/STCxmcteCjo6OPuo9vNrb2zdEka7NUpvd7bCWlpa9qD7quptn9yjgXQcHK9dKMroBAOy8aCz+6JIlS5aZ+SwWAWIEPCF5C8f+AsD2mp8mSXK6ZBeTBYbBenc7KkmSbxNF/UqS5L/cdSVJYJisk/yY22+//TmiADLt9kplcHqSJN1EAQAA6s3MmTN3l3RsBpo60NTUsICKjwx3v1JSJSvtNVMURQ1nUHnUs3K5/Ki7fSyjzZ+dz+dPoxcAwM6LxuoPhxCeGDeucaZkd1MGDNM04HdRZIeEEB4iCwDY0edz8XzJznMXuy9hR62MIiuUSsUOoqh/06ZNOVuyH5MEdsbQM8c/EEJ4gDSATM/pL1u7dk1h6Kh5AACA+pPL5U4xU1Pdj+pMNy1atOgpKj4yQgiPSdaerVb7++M4bqb6qGelUvHqrB4F7K5LCoXCP9MLAGDnRGP5xzs7O5c3NER5d5UpBXZyYHCHlB5ULBYfJw0A2DkhFC+V7GhJa0kD2+k3uVx0cLFY/DlRZENbW1ulr2/jCUNjMWDHmPm/hRBuIgkgs1ZJfnwIxXN7e3sHiAMAANSjuXPnNkn2kSy0NU2jK6j4yIoiZS3jXc3sX6k86lyWjwKelKb+LWl+RDcAgJ0YI471BSxevHj1xInj50h+M+XAjrGb+vs3zQ4hrCQLABgepVKxPU0rB0t6jDSwjRZK/raurq7fEkW29PT0bGxszL1D0lLSwHaP5E2fDyFcRhJANrnrjoaG3PQQwg2kAQAA6tnKlSuPlbR7BpraWyp19VDxkVUsFovuui9bcwc7U5JRfdSzcrn8qJk+ntHmHxLH4Tx6AQDsuKpYRd3R0dEn6TjJr6Yk2K7xvutzIRSP6+np2UgcADDsk837c7nobezshX/ETF+aOnXKESGEVaSRTYsXL17d0JA7zF3s/ojtuXd8M0mST5EEkEl9kn20VGqduXjx4t8TBwAAqHdpqjOy0E534wteoySK9LVstdhfH8fxLCqPepckyVVZPQpYsotaWlpeTy8AgB0cH1bLhYQQBkMIp5npHEkVSoN/YL2Zji+Vkk9JcuIAgJHR1dX19LRpU/KSXcb9Flt6Hkt+UpIkH2tra2P8lnGLFy9e3diYmyN2AsS2uW7KlCkf5tkCZJH/IpeL3hpC8cvS/JQ8AABAvcvn89PNdFAGmvr0xInjbqTio6O5ufl6dz2brVbbmVQeWZg0Z/go4PFRFF0Xx3ED3QAAtl/VnaOeJMnlUWTvkLSK8mArHknTyowkSZhIAsAoaGtr6w+heK6ZjpH0HIlAktz16zStzAghfJc08LzFixevbmpqnCXZraSBF7h/fCOE1g+ycBjI3Gt/g+SfmDp16oyurq77SAQAAGRoHHRWNlpqV28+8QujoL29fUMU6dqMvZaObGlpeTXVR73L9lHAdoAUfYJeAADbL6rGiyoWi51pWjlI0kOUCH8zvG8fHBw4oFwu308WADC6kiT5SRTZAe76JWlkm5muMvPpPI+xJZ2dneul9BjJ/oc0sKX7R6nU+mF2/QIy9+r/sZnvHUL4Iot/AQBAlsycOXOqpPdkoKkDjY25r1Px0eXuVypDp6qZKcrlcqdReWRBlo8CdvcL4jh+M70AALZPVK0XVi6XH5T8AEnsKgNJ2uRuZ4cQjrr99tvZfQoAxkixWHxk4sTxB0n+BWXozSU8P/HWs2Y6NkmS00MIm0gEWxNCGAyh+GHJz3cXC70wdAtxfTJJktNZ/Adkyq/c7R0hFI8JITxBHAAAIGuiqGGepPH13k4z3bRo0aKnqPjoCiE8Jll7ltqcpvrQjBkzJlB9ZEBmjwI2U5O7XTd37twmugEAbMfco8oHrutCSE4y08lDR8Ugox6SfEapVLxCkhMHAIytjo6OvhDCf5rpYLFbb5bclsvZm5Ik+SFRYDvG8xdL9k5xfHjW9Un+vlIp+TxRAJnxjOTnSv7mUqnYQRwAACCL5s6dmzPTR7LQVne/nIqPjSjSFVlqr5lePG7cuBOpPLIgy0cBm+lNy5ev/DS9AAC2Y1xYCxeZJMm3zfxgyR6kZNnhrtRdl0+e3Dw9hHAPiQBA1T2fl06e3DxdssvY4auurXS3E0JI3lksFp8kDmyvoYUf/lZ33UcambTMTLNCCOzsDmTDWskuHhjof3UI4bIQwiCRAACArFq5cuXRkl5Z/y31X4QQ7qTiY6NYLBYlPZCtVtuZVB5ZkeWjgM30sXw+fyC9AAC2TVQrFzq0ACzdX7KvsMggA9NF1+9zOcuXSsk57e3t7P4IAFWqvb19QwjFc6NIB0l2N4nUnRtyueiNpVLx+0SBnRzLP7zLLs0zzHSV2NE5S0qS758kSTdRAHVvrbs+l8tFrw6heH53d/daIgEAAFnnrjOz0c7oCqo9tsyUtRrs29o6ayaVR2YeJxk9ClhSg7u+xbHfALBtolq62BDCphCK/yFFsaRHKF9dqrjr8nHjGt9ULBbLxAEAtSFJkqVTp77kAHc7W9JqEql5D7hHhRCS47u6up4mDgyH9vb2DUmSnG6md0r6E4nUNXfXJZLPDiFQa6C+rTbTZ8eNa3pVqZR8qqur6xkiAQAAkFpaWvaRFGegqU9PnDjuRio+tpqbm69317NZanMUpWdReWRFlo8ClvS68ePHX0wvAIBtGB/V4kWXSl1LJH+zuy6XVKGM9cJ/YaYDS6XknM7OzvXkAQC1pa2trVIqFa+Q/HXu+jY79tak58x0juT7lUpdCXFgJCRJ8tNKZfBNkm4gjbr0hHt0WKmUfJyjP4E6nr27fi/ZeRMmjH9FkiQXLly48FlSAQAA+DOzXEZ2/9OCjo6OPio+ttrb2zdEka7N2JzkmEKh8DKqj6zI8lHAaapzCoVCC70AAF5YVKsXHkJYVyol56Rp5QBJd1LKmvacu50eQvy2JEl6iQMAalsI4U+lUnKymU+XtJBEakKfuy6vVAb3TpLkchbtYKQtWbJkRQjJ8e72jqFFJKgH7vq25PuUSl2LSAOo21d6IvkxpVLrXiEUL+3o6FhDJgAAAH/tkEMO2c1MJ2agqQNNTQ0LqHi1zMn9SmVr05SGNNVpVB7Zepln8yhgM0WVin8zjuNmugEAbF1U6w0ol8t3h9B6sLudkrXtrethcuiuy3O5aK9SqXiVNJ+dogCgjoQQ7gkhebuZZktigXd1qpjpm1Fke5dKyTlLlixZQSQYTaVSsaO/f9MbzfR5SewYULseN9NRpVJycghhFXEAdWeF5JdKvk8IoRBC+DHzdwAAgK1rbGz8gKRJ9d5OM920aNGip6h4dQghPCZZe5ba7O4fPvzww8dRfWRFlo8CNtOekr5ELwCArYvqoxnz01KpeE1DQ/RaM/23+PCwFh7TP87lojeWSsk5XV1dz5AHANSvJEm6QkgOMNNRkpaSyNhzV+quGyV/Y5IkHywWi4+TCsZKT0/PxiRJPrn5+PDvSXJSqRl9kl08eXLzG5IkuYU4gLoyKNmt7vbuqVOn7BFCOC+E8ACxAAAA/CPzozTVGVloaZpGV1Dv6hJFylRNzDRtw4a+46g8siTLRwFL9pFCoTCHXgAAW9ZQT43ZvJDs3+I4vlyyi9z1XrN6WeRYL3yRe+7TpVJXD1kAQLYeAJsXh9ySz+dnpak+aaYCsYy6TZKuc698pVwu/444UE2GvqmuE/P5/H+56wuSZpNKFd/UXbc0NEQf7erq+i1pAHVjUFKQ7Ie5nN3c1dX1NJEAAABsnzgO75BszwzMCn/B5zzVp1gsFuM4/4CkN2alzWbpWZK+Q/WRIe5emWeWu09S1o7EtTT1a+M43odTSADg79Xl4rgQwmMhJCe5V94i6Taxi0gVjERUlHxmCGEOk0IAyLYkSbpKpWRWFNmBkr7rrn5SGfHn8LOSXdzU1PjKEJJTWfyHKr9H9IaQHBpFdrC7fkoiVafkHh1UKiVHsfgPqAub3PVTM30ol4v+TwjJoSEUr2bxHwAAwI5xt7Oy0U52/6tWZspYbeyAfD5/IJVHlmT5KGBJe0h2Kb0AAP5eQz03rlwu3y3pnXEcv9nd/lPSsewIOJoTQKWSfmzmXyqVwp0kAgD4S8Vi8eeSTpo1a9a/VyqVeZKdOjR5wzA+i++IIi2Q/MYQkk0kghq7R9wh6YhCobB/muo/JT+63ucvVa7bTJ9NkmQhUQC1zh6U0oWSFvb19ZV6eno2kgkAAMDOy+fze7vr0Aw09emJE8fdSMWrU3Nz8/Vr1qz7vJlenJU2u9uZkpZSfWRJkiRXtbbm/29GT1o6OZ/P35wkyU/oCQDwZ5n4AC2EcI+k9+Tz+b0lfdxdJ0gaR/lHaqCtDWb6DscLAgC2xeYdZi6O4/iLZnaEu94n6QhJ40lnhzwn6XtpWllQLpfvJw7UumKx+EtJc1taWl6ey+VOc9c8SVNJZlTG9amkW6NIlyRJ0k0iQM16yEw9km7P5XKLFy9e/AciAQAAGBFnSLIMzBUXdHR09FHu6tTe3r4hn89f666PZqXN7n7crFmz/oOdzJExWT4KWO5aEMdxdwhhJV0BAIZkageNJEl+I+mDc+bM+cTAwMA8d50q6eV0g+FiD0rpAjNdF0JYRR4AgO0RQhiU9BNJP4nj+EXu0VzJTzLTTGXgzdOdtFbSLe52w7RpL1nY1tbGscqoO+Vy+Y+SPnn44Yd/ZsOGvuPM0g+4Wys7fI+IVZJf755eWS6XHyQOoHa461lJ95jZL8z8Dne/gzfDAQAARt7BBx88OU11stX/O1gDTU0NC6h4tc8L/ErJ/k1SLgvtNVPT4GB6iqTPUn1kSblcfjSfz3/cXV/LYPNfamZXSjqOngAAQzJ5hFZnZ+dySZ+bO3fuF1euXHmUu05zV4EPD3fIeslultJrQ0gCcQAAhsPmheTXSLrm0EMP/aeBgYEj3e1dm7ezZ2fAIc+YqdPdf9TX13cbx/chKzbvMvAdSd8pFAqvTFO9z93fZ6bXks5Ou9Pdvr7LLpNuaG9v30AcQFXbJOlhyR6S0nvco/saG6N72d0PAABgbDQ2jjtZ8l3qvZ1mumnRokVPUfHqFkJ4LI4L7ZIfnaFmnzp9+vQv9Pb2DtADkCVZPgrYXXPjOD4+hPADegIAZHQB4PPa2toqkn4k6UdxHO8h6UTJTpL0RrrGC6pIXnSPvmOW3hxCso5IAAAjZfObigskLZgzZ86kgYGBw9JUh5lZXvK9MjWfdd1tZh3udtu0aS/++eaxDJBZxWLxcUkXSbqopaVlv1wud4y7jmE8v10ekvwHuVzu+11dXb8lDqBqrJXsCcmflvSk5H+U9LCkRyQ9HEJ4UpITEwAAQFUwyc/IQkPTNLqCcteGKNIVaaqjM/MiNP3T5MmT3y3pBqqPjMn0UcCSfXXmzJmlJUuWLKMrAMi6BiIYEkJ4QtIXJX0xn8/vm6Y6QdLR7CTyv/rc1SXZjxsa7Jaurq6niQR/Y6kkjpbCsEtT3U8KeF5nZ+d6bV68L0mFQuFlaZrmJYslO8jd966XHX3d1S/pLkm3S3b7+PGN3QsXLnyWXgBsWblcvlvS3ZIubGlp2SuKondJdqikFkkTSOjPtxfJ7pH00zQd/OHm3IBtYqYedz1BEtv8cttoZpuGnutWcfc1m3MccNdqM19jZs+5+2r3aE0up9WDg4Mrdt111yfZhRM1bpWkxfXauCiKllNi1OEzvuyu3UgCw9+3PBNfMmppaXmdpCc2/1PPFX2iVOrqoWfXhmKxWGxtzX/PTNMyMwNze5NYALi11+9jktftGL2/v78/y9XdfBTwGe56Xxbb39DQ8F5J/8XrfIseq+f5OWrtOe2/IoURftoTwQvL5/N7SzrKXe+S9DZJuQw1/4+SOt1t4eBg38+6u7vX0iMAANUsjuNm99x+Zj5d0nTJ93HXXmaaWOWXvk7y+yXdK+ke99x9/f0b7uFYX2BY7gvj3XMzoyg91F0zh+4NasxYDCvdVZbsZ01Nuds4rgkAAAAAAAAAAKB+sABwOxx22GEv7uvra3G3vKTYTPvUU4buempoRwcrmaWLQggPUXUAQD2Md1paWvZoaGjYK031Wnd/dRRpd3ftLg3920wvHuFrWOWu5RraKfUxM3tUSh+NoujRwcHBR8vlwuPS/JRSASNvxowZEyZMmHBApeIHm/kMyfaX9LJ6aqO7/hBFWupuZSkNIYRfiaNCAQAAAAAAAAAA6hILAHdCHMdTzOxgd3+LpOnuNr2GttJeJeled9079OGg3xFCeIyqAgCyaO7cublly5btEkVRcy6XmyipOU2jXcwqW93518xyaWq7PP/fUeT97r7ezFzSqkql0u/uKzds2LCyt7d3gJSB6jVz5sypjY2N+6Vpup+Z7Zum2ttMr5XUXOWXPiDp95IekPxuSb2VSqV3yZIlK6gqAAAAAAAAAABANrAAcJi1tLS8PIqifSXt7W6vNfO9JNtL0h6jfS3uSs30R0kPS3rYXY9EkX7j7vex2A8AAAD4x2P7XC73Wnfby8xf4a5XSHqVpFdK2l1SbhQuY52kx931uJn/wd3+YOa/y+Vyv161atXvWGAMAAAAAAAAAACQbSwAHCUzZsyYMGnSpN0rlcru7r67e7S7mV4q+YvcNSGKNNldu7hrgpkmbf6xVdrCUV3u6o8irZe0KU211szXSFplZs+lqS0zS5c1NjY+NTAwsDyEMEj6AAAAwHCbH82atWRqpVKZamYvdff/I0VTpXRXM9s1TbWrme0i+Yv+5gfXm6nf3SruvsbM1rr7+ijSend/xsxWpGm0wqyyYmBg4Onu7u61ZA0AAAAAAAAAAICt+f9XMlAtrUfKlAAAACV0RVh0ZGF0ZTpjcmVhdGUAMjAyNC0wNy0wMVQwODoyMjoyNSswMDowMKLsfWMAAAAldEVYdGRhdGU6bW9kaWZ5ADIwMjQtMDctMDFUMDg6MjI6MjUrMDA6MDDTscXfAAAAAElFTkSuQmCC;" vertex="1" parent="1">
          <mxGeometry x="98" y="661" width="235.45" height="77.81" as="geometry" />
        </mxCell>
        <mxCell id="IqXkSeY8LU8EEEE8MS7V-81" value="&lt;div&gt;DNS, Caching, DDoS Protection&lt;br&gt;&lt;/div&gt;" style="text;html=1;align=center;verticalAlign=middle;whiteSpace=wrap;rounded=0;" vertex="1" parent="1">
          <mxGeometry x="106.44999999999999" y="717" width="227" height="73" as="geometry" />
        </mxCell>
        <mxCell id="IqXkSeY8LU8EEEE8MS7V-88" value="" style="edgeStyle=orthogonalEdgeStyle;rounded=0;orthogonalLoop=1;jettySize=auto;html=1;" edge="1" parent="1" source="IqXkSeY8LU8EEEE8MS7V-83" target="IqXkSeY8LU8EEEE8MS7V-80">
          <mxGeometry relative="1" as="geometry" />
        </mxCell>
        <mxCell id="IqXkSeY8LU8EEEE8MS7V-83" value="" style="sketch=0;outlineConnect=0;fontColor=#232F3E;gradientColor=none;fillColor=#232F3D;strokeColor=none;dashed=0;verticalLabelPosition=bottom;verticalAlign=top;align=center;html=1;fontSize=12;fontStyle=0;aspect=fixed;pointerEvents=1;shape=mxgraph.aws4.users;" vertex="1" parent="1">
          <mxGeometry x="98.001" y="458.0010000000001" width="46" height="46" as="geometry" />
        </mxCell>
        <mxCell id="IqXkSeY8LU8EEEE8MS7V-89" value="" style="edgeStyle=orthogonalEdgeStyle;rounded=0;orthogonalLoop=1;jettySize=auto;html=1;" edge="1" parent="1" source="IqXkSeY8LU8EEEE8MS7V-84" target="IqXkSeY8LU8EEEE8MS7V-80">
          <mxGeometry relative="1" as="geometry" />
        </mxCell>
        <mxCell id="IqXkSeY8LU8EEEE8MS7V-84" value="" style="sketch=0;outlineConnect=0;fontColor=#232F3E;gradientColor=none;fillColor=#232F3D;strokeColor=none;dashed=0;verticalLabelPosition=bottom;verticalAlign=top;align=center;html=1;fontSize=12;fontStyle=0;aspect=fixed;pointerEvents=1;shape=mxgraph.aws4.users;" vertex="1" parent="1">
          <mxGeometry x="257.002" y="458.0020000000001" width="46" height="46" as="geometry" />
        </mxCell>
        <mxCell id="IqXkSeY8LU8EEEE8MS7V-87" value="" style="edgeStyle=orthogonalEdgeStyle;rounded=0;orthogonalLoop=1;jettySize=auto;html=1;" edge="1" parent="1" source="IqXkSeY8LU8EEEE8MS7V-85" target="IqXkSeY8LU8EEEE8MS7V-81">
          <mxGeometry relative="1" as="geometry" />
        </mxCell>
        <mxCell id="IqXkSeY8LU8EEEE8MS7V-85" value="" style="sketch=0;outlineConnect=0;fontColor=#232F3E;gradientColor=none;fillColor=#232F3D;strokeColor=none;dashed=0;verticalLabelPosition=bottom;verticalAlign=top;align=center;html=1;fontSize=12;fontStyle=0;aspect=fixed;pointerEvents=1;shape=mxgraph.aws4.users;" vertex="1" parent="1">
          <mxGeometry x="257.003" y="935.9930000000002" width="46" height="46" as="geometry" />
        </mxCell>
        <mxCell id="IqXkSeY8LU8EEEE8MS7V-93" value="La Carmagnole - Infrastructure Architecture Diagram" style="text;strokeColor=none;fillColor=none;html=1;fontSize=38;fontStyle=1;verticalAlign=middle;align=center;" vertex="1" parent="1">
          <mxGeometry x="196" y="84" width="1242" height="40" as="geometry" />
        </mxCell>
        <mxCell id="IqXkSeY8LU8EEEE8MS7V-96" value="" style="outlineConnect=0;dashed=0;verticalLabelPosition=bottom;verticalAlign=top;align=center;html=1;shape=mxgraph.aws3.ses;fillColor=#D9A741;gradientColor=none;aspect=fixed;" vertex="1" parent="1">
          <mxGeometry x="1180.2" y="799.43" width="81.31" height="95.12" as="geometry" />
        </mxCell>
        <mxCell id="IqXkSeY8LU8EEEE8MS7V-99" value="" style="edgeStyle=orthogonalEdgeStyle;rounded=0;orthogonalLoop=1;jettySize=auto;html=1;entryX=0.521;entryY=-0.012;entryDx=0;entryDy=0;entryPerimeter=0;endArrow=blockThin;endFill=0;strokeColor=#4D4D4D;flowAnimation=1;" edge="1" parent="1" source="SjB44mdSJOXD2yQ44_Wg-23" target="IqXkSeY8LU8EEEE8MS7V-96">
          <mxGeometry relative="1" as="geometry">
            <Array as="points">
              <mxPoint x="1075" y="713" />
              <mxPoint x="1229" y="713" />
            </Array>
          </mxGeometry>
        </mxCell>
        <mxCell id="IqXkSeY8LU8EEEE8MS7V-100" value="AWS SES for Newsletters" style="text;html=1;align=center;verticalAlign=middle;whiteSpace=wrap;rounded=0;" vertex="1" parent="1">
          <mxGeometry x="1180.2" y="897" width="93" height="30" as="geometry" />
        </mxCell>
        <mxCell id="IqXkSeY8LU8EEEE8MS7V-106" value="Stock Market Fetch" style="text;html=1;align=center;verticalAlign=middle;whiteSpace=wrap;rounded=0;fontSize=6;" vertex="1" parent="1">
          <mxGeometry x="1209.8120000000001" y="579.7520000000002" width="60" height="14" as="geometry" />
        </mxCell>
      </root>
    </mxGraphModel>
  </diagram>
</mxfile>
